<?xml version="1.0" encoding="utf-8"?>
<!-- Generator: Adobe Illustrator 26.5.0, SVG Export Plug-In . SVG Version: 6.00 Build 0)  -->
<svg version="1.0" id="Camada_1" xmlns="http://www.w3.org/2000/svg" xmlns:xlink="http://www.w3.org/1999/xlink" x="0px" y="0px"
	 viewBox="0 0 708.66 247.38" style="enable-background:new 0 0 708.66 247.38;" xml:space="preserve">
<style type="text/css">
	.st0{fill:#FFFFFF;}
</style>
<g>
	<path class="st0" d="M476.29,35.08c0,9.87,0,18.82,0,28.62c-6.09,0.39-11.9,0.77-15.94,1.03c0.55,21.85,1.52,43.09,1.52,64.33
		c0,32.97-22.67,55.26-55.65,55.39c-18.74,0.08-37.48,0.18-56.22-0.03c-29.63-0.33-52.14-22.33-52.85-51.81
		c-0.37-15.39-0.35-30.79,0-46.18c0.61-26.91,19.01-49.68,45.86-50.84C387.02,33.7,431.17,35.08,476.29,35.08z M379.17,154.41
		c9.69,0,19.37,0.18,29.06-0.04c14.12-0.32,23.2-8.98,23.61-23.12c0.42-14.35,0.38-28.73,0.03-43.08
		c-0.34-14.13-9.09-23.3-23.26-23.66c-19.69-0.5-39.42-0.55-59.1,0.05c-13.84,0.42-22.06,9.27-22.4,23.19
		c-0.37,14.69-0.39,29.4,0.06,44.08c0.42,13.87,9.1,22.15,22.95,22.52C359.79,154.6,369.48,154.39,379.17,154.41z"/>
	<path class="st0" d="M182.23,184.46c-10.04-0.01-20.08,0.16-30.12-0.04c-28.42-0.57-50.93-22.52-51.78-50.81
		c-0.45-15.05-0.31-30.12-0.11-45.17c0.41-31,21.86-53.09,52.89-53.94c19.4-0.53,38.83-0.49,58.22-0.02
		c31.33,0.75,53.29,23.19,53.73,54.46c0.2,14.05,0.27,28.12-0.03,42.16c-0.65,30.64-23.25,53-53.69,53.36
		C201.64,184.56,191.93,184.46,182.23,184.46z M182.28,154.41c9.69,0,19.37,0.18,29.06-0.04c14.12-0.32,23.21-8.98,23.62-23.11
		c0.42-14.35,0.38-28.73,0.03-43.08c-0.34-14.13-9.08-23.3-23.25-23.67c-19.69-0.5-39.42-0.55-59.1,0.05
		c-13.84,0.42-22.06,9.27-22.41,23.19c-0.37,14.68-0.39,29.4,0.06,44.08c0.42,13.87,9.1,22.16,22.94,22.52
		C162.9,154.6,172.59,154.39,182.28,154.41z"/>
	<path class="st0" d="M668.51,184.21c-10.12,0-19.1,0-29.59,0c0-3.75,0-7.26,0-10.78c0-27.43,0.07-54.86-0.03-82.29
		c-0.07-17.79-8.73-26.61-26.4-26.79c-17.73-0.18-35.46-0.24-53.18,0.02c-16.73,0.25-25.15,8.79-25.26,25.62
		c-0.18,27.43-0.06,54.86-0.06,82.29c0,3.62,0,7.23,0,11.51c-10.05,0-19.23,0-29.11,0c-0.27-2.03-0.82-4.22-0.82-6.41
		c-0.05-29.77-0.26-59.54,0.03-89.31c0.29-30.42,21.69-52.54,52.19-53.54c20.05-0.66,40.15-0.64,60.2,0.02
		c27.63,0.91,50,19.6,51.56,46.63C669.99,115.1,668.51,149.22,668.51,184.21z"/>
	<path class="st0" d="M298.13,184.97c9.13,0,18.34,0,28.08,0c0.33,2.84,0.65,5.41,0.92,7.99c1.33,12.79,9.39,21.14,22.14,21.41
		c20.05,0.43,40.12,0.49,60.16-0.01c14.73-0.37,21.55-9.37,22.97-29.12c9.36,0,18.8,0,28.24-0.01c5.98,28.36-18.03,57.89-49,59.11
		c-21.36,0.84-42.8,0.77-64.17,0.04C316.3,243.31,293.49,215.63,298.13,184.97z"/>
	<rect x="39.61" y="4.43" class="st0" width="29.77" height="179.24"/>
</g>
</svg>
