<svg width="109" height="35" viewBox="0 0 109 35" fill="none" xmlns="http://www.w3.org/2000/svg">
<path d="M9 0H0V7H9V0Z" fill="#45F882"/>
<path d="M24 0H15V7H24V0Z" fill="#45F882"/>
<path d="M38 0H29V7H38V0Z" fill="#45F882"/>
<path d="M53 0H44V7H53V0Z" fill="#45F882"/>
<path d="M67 0H58V7H67V0Z" fill="#45F882"/>
<path d="M80 0H71V7H80V0Z" fill="#45F882"/>
<path d="M9 14H0V21H9V14Z" fill="#45F882"/>
<path d="M24 14H15V21H24V14Z" fill="#45F882"/>
<path d="M38 14H29V21H38V14Z" fill="#45F882"/>
<path d="M53 14H44V21H53V14Z" fill="#45F882"/>
<path d="M67 14H58V21H67V14Z" fill="#45F882"/>
<path d="M80 14H71V21H80V14Z" fill="#45F882"/>
<path d="M95 14H86V21H95V14Z" fill="#45F882"/>
<path d="M109 14H100V21H109V14Z" fill="#45F882"/>
<path d="M9 28H0V35H9V28Z" fill="#45F882"/>
<path d="M24 28H15V35H24V28Z" fill="#45F882"/>
<path d="M38 28H29V35H38V28Z" fill="#45F882"/>
<path d="M53 28H44V35H53V28Z" fill="#45F882"/>
<path d="M67 28H58V35H67V28Z" fill="#45F882"/>
<path d="M80 28H71V35H80V28Z" fill="#45F882"/>
<path d="M95 28H86V35H95V28Z" fill="#45F882"/>
<path d="M109 28H100V35H109V28Z" fill="#45F882"/>
</svg>
