<svg xmlns="http://www.w3.org/2000/svg" width="45" height="45" viewBox="0 0 750 500"><g id="freepik--background-complete--inject-257"><rect x="24.1" y="79.59" width="152.3" height="101.97" style="fill:#fff"></rect><path d="M176.39,181.57s0-.64,0-1.86,0-3,0-5.38c0-4.72,0-11.64-.05-20.51,0-17.71-.07-43.18-.12-74.23l.22.22-152.28.06h0l.27-.28c0,36.33,0,70.88,0,102l-.25-.25,109.72.12,31.34.07,8.34,0h2.15l.74,0h-.71l-2.12,0-8.29,0-31.29.06-109.88.13h-.25v-.25c0-31.1,0-65.65,0-102v-.27h.29l152.28.06h.22v.21c-.05,31.11-.09,56.62-.11,74.37,0,8.84-.05,15.75-.06,20.46,0,2.33,0,4.12,0,5.34S176.39,181.57,176.39,181.57Z" style="fill:#e0e0e0"></path><path d="M24.1,88.69c0-.15,34.06-.27,76.08-.27s76.09.12,76.09.27-34.06.28-76.09.28S24.1,88.85,24.1,88.69Z" style="fill:#e0e0e0"></path><g style="opacity:0.30000000000000004"><path d="M30.1,84.1a1.22,1.22,0,0,1-2.44,0,1.22,1.22,0,0,1,2.44,0Z" style="fill:#e0e0e0"></path></g><g style="opacity:0.30000000000000004"><path d="M34.29,84.1a1.22,1.22,0,1,1-1.22-1.22A1.22,1.22,0,0,1,34.29,84.1Z" style="fill:#e0e0e0"></path></g><g style="opacity:0.30000000000000004"><path d="M38.41,84.1a1.22,1.22,0,1,1-1.22-1.22A1.22,1.22,0,0,1,38.41,84.1Z" style="fill:#e0e0e0"></path></g><rect x="37.19" y="99.33" width="40.62" height="40.63" style="fill:#e0e0e0"></rect><path d="M155.51,110.81c0,.15-15.85.27-35.39.27s-35.39-.12-35.39-.27,15.85-.27,35.39-.27S155.51,110.66,155.51,110.81Z" style="fill:#e0e0e0"></path><path d="M155.51,118.36c0,.15-15.85.27-35.39.27s-35.39-.12-35.39-.27,15.85-.27,35.39-.27S155.51,118.21,155.51,118.36Z" style="fill:#e0e0e0"></path><path d="M155.51,125.91c0,.15-15.85.27-35.39.27s-35.39-.12-35.39-.27,15.85-.27,35.39-.27S155.51,125.76,155.51,125.91Z" style="fill:#e0e0e0"></path><path d="M126.56,133.46a9.76,9.76,0,0,1-1.64.11l-4.48.08c-3.79,0-9,.08-14.79.08s-11,0-14.79-.08l-4.48-.08a10,10,0,0,1-1.65-.11,10,10,0,0,1,1.65-.11l4.48-.08c3.78-.05,9-.08,14.79-.08s11,0,14.79.08l4.48.08A9.76,9.76,0,0,1,126.56,133.46Z" style="fill:#e0e0e0"></path><rect x="39.73" y="153.65" width="19.09" height="19.09" style="fill:#e0e0e0"></rect><rect x="74.35" y="153.65" width="19.09" height="19.09" style="fill:#e0e0e0"></rect><rect x="108.98" y="153.65" width="19.09" height="19.09" style="fill:#e0e0e0"></rect><rect x="143.6" y="153.65" width="19.09" height="19.09" style="fill:#e0e0e0"></rect><rect x="198.87" y="30.04" width="131.19" height="53.29" style="fill:#fff"></rect><path d="M330.06,83.33s0-.33,0-1,0-1.56,0-2.77c0-2.43,0-6,0-10.6,0-9.2-.05-22.5-.08-39l.15.15-131.19.06h0l.2-.21c0,18.66,0,36.68,0,53.29l-.19-.2,94.06.09,27.28.06,7.31,0h0l-7.26,0-27.24.05-94.19.1h-.2v-.2c0-16.61,0-34.63,0-53.29v-.21h.21l131.19.07h.14V30c0,16.51-.06,29.84-.08,39.06,0,4.58,0,8.15,0,10.57,0,1.2,0,2.11,0,2.74S330.06,83.33,330.06,83.33Z" style="fill:#e0e0e0"></path><path d="M199,37.23c0-.12,29.32-.21,65.48-.21s65.5.09,65.5.21-29.32.21-65.5.21S199,37.34,199,37.23Z" style="fill:#e0e0e0"></path><g style="opacity:0.30000000000000004"><path d="M204.49,34a.95.95,0,1,1-1-.95A1,1,0,0,1,204.49,34Z" style="fill:#ebebeb"></path></g><g style="opacity:0.30000000000000004"><path d="M207.75,34a.95.95,0,1,1-.95-.95A1,1,0,0,1,207.75,34Z" style="fill:#ebebeb"></path></g><g style="opacity:0.30000000000000004"><circle cx="210.02" cy="34.01" r="0.95" style="fill:#ebebeb"></circle></g><rect x="210.02" y="45.89" width="31.69" height="31.69" style="fill:#e0e0e0"></rect><path d="M321,54.38c0,.12-16.31.21-36.42.21s-36.42-.09-36.42-.21,16.31-.21,36.42-.21S321,54.27,321,54.38Z" style="fill:#e0e0e0"></path><path d="M321,60.84c0,.11-16.31.2-36.42.2s-36.42-.09-36.42-.2,16.31-.21,36.42-.21S321,60.72,321,60.84Z" style="fill:#e0e0e0"></path><path d="M295,67.29a1.61,1.61,0,0,1-.48,0l-1.36,0-5,.07-16.57.06L255,67.44l-5-.07-1.37,0a1.68,1.68,0,0,1-.48,0,2.32,2.32,0,0,1,.48,0l1.37,0,5-.06,16.58-.07,16.57.07,5,.06,1.36,0A2.2,2.2,0,0,1,295,67.29Z" style="fill:#e0e0e0"></path><path d="M684,101.16a4.68,4.68,0,0,1,.74-.85c.59-.58,1.31-1.31,2.16-2.16,1.83-1.82,4.39-4.3,7.24-7l.07-.06v.36c-2.87-2.66-5.45-5.09-7.29-6.87l-2.17-2.12a5,5,0,0,1-.75-.83,4.57,4.57,0,0,1,.88.68l2.28,2c1.9,1.71,4.52,4.1,7.39,6.76l.2.19-.2.18-.06.06c-2.85,2.72-5.45,5.16-7.35,6.9l-2.26,2.06A6.07,6.07,0,0,1,684,101.16Z" style="fill:#e0e0e0"></path><path d="M661.87,81.62a5.39,5.39,0,0,1-.74.84L659,84.63c-1.83,1.81-4.39,4.29-7.24,7l-.07.06v-.37c2.87,2.67,5.45,5.1,7.29,6.88l2.17,2.12a4.53,4.53,0,0,1,.75.83,5,5,0,0,1-.88-.69l-2.28-2c-1.9-1.71-4.52-4.1-7.39-6.77l-.2-.18.2-.18.06-.07c2.85-2.71,5.45-5.15,7.35-6.9L661,82.32A4.66,4.66,0,0,1,661.87,81.62Z" style="fill:#e0e0e0"></path><path d="M667.56,105.76c-.13-.05,2.19-6.58,5.19-14.59s5.53-14.47,5.66-14.42-2.2,6.58-5.19,14.59S667.69,105.81,667.56,105.76Z" style="fill:#e0e0e0"></path><path d="M709.19,119.74s0-.38,0-1.09,0-1.78,0-3.14c0-2.76,0-6.79,0-11.91,0-10.25-.06-24.9-.11-42.56l.21.21-72,0h0l.25-.25c0,21.22,0,41.26,0,58.7l-.22-.22,52,.11,14.74.06,3.92,0h1.36l-.33,0h-1l-3.87,0-14.7.06-52.17.11h-.22v-.23c0-17.44,0-37.48,0-58.7v-.25h.26l72,0h.21V61c0,17.71-.08,32.41-.11,42.69,0,5.11,0,9.11,0,11.86,0,1.35,0,2.39,0,3.11S709.19,119.74,709.19,119.74Z" style="fill:#e0e0e0"></path><path d="M709.76,69.75c0,.14-16.27.25-36.33.25s-36.32-.11-36.32-.25,16.26-.25,36.32-.25S709.76,69.61,709.76,69.75Z" style="fill:#e0e0e0"></path><path d="M643,65.46a1,1,0,1,1-1-1A1,1,0,0,1,643,65.46Z" style="fill:#e0e0e0"></path><path d="M646.56,65.46a1,1,0,1,1-1-1A1,1,0,0,1,646.56,65.46Z" style="fill:#e0e0e0"></path><path d="M650.09,65.46a1,1,0,1,1-1-1A1,1,0,0,1,650.09,65.46Z" style="fill:#e0e0e0"></path><path d="M692.59,377.9c4.16-2.15,9.07-2.43,13.69-1.66,2.48.41,5.07,1.15,6.76,3s2,5.14.07,6.75a6.55,6.55,0,0,1-4.26,1.08c-3.62,0-7.64-.68-10.53,1.5-1.65,1.24-2.74,3.3-4.72,3.91a4.66,4.66,0,0,1-5.13-2.28,8,8,0,0,1-.58-5.88A9,9,0,0,1,692.59,377.9Z" style="fill:#ebebeb"></path><path d="M683.05,359.49c2.55,3.63,7.5,2.43,9.79.21s3.26-5.44,4.15-8.5c2-7,4-14.36,2.55-21.5a12,12,0,0,0-2.75-5.85,6.23,6.23,0,0,0-5.91-2c-2.5.66-4,3.1-5.17,5.42a51.26,51.26,0,0,0-5.06,22c0,3.54.4,7.25,2.4,10.18" style="fill:#ebebeb"></path><path d="M676.06,364.7c2.76-3.28,3.29-8.06,2.06-12.17a23.46,23.46,0,0,0-7.21-10.46A38.88,38.88,0,0,0,658,334.45a13.86,13.86,0,0,0-5.81-1,6.12,6.12,0,0,0-4.88,3c-1.35,2.59,0,5.74,1.36,8.3a98.45,98.45,0,0,0,8.48,12.92c2.54,3.27,5.45,6.51,9.33,8s7.9,1.31,9.95-1.38" style="fill:#ebebeb"></path><path d="M682.88,414.34a8.29,8.29,0,0,0,.23-1.66c.12-1.2.26-2.71.44-4.51s.49-4.15,1-6.61a51.47,51.47,0,0,1,2.41-7.81,28.8,28.8,0,0,1,4-7.06,15,15,0,0,1,5-4.19,14.18,14.18,0,0,1,4.25-1.32,7.69,7.69,0,0,0,1.64-.24,8.6,8.6,0,0,0-1.67,0,12.77,12.77,0,0,0-4.43,1.15,14.89,14.89,0,0,0-5.31,4.22,28.24,28.24,0,0,0-4.14,7.21,47.94,47.94,0,0,0-2.38,7.93,56.11,56.11,0,0,0-.88,6.7c-.14,1.92-.2,3.47-.23,4.54A7.58,7.58,0,0,0,682.88,414.34Z" style="fill:#e0e0e0"></path><path d="M683.19,410.87a3.39,3.39,0,0,0,0-.77v-2.19c0-1.91,0-4.66.1-8.06.16-6.8.75-14.12,1.88-24.43,1.07-9.7,2.51-21,4-28.34.32-1.67.65-3.17,1-4.48s.54-2.46.78-3.38.38-1.57.52-2.13a3.24,3.24,0,0,0,.13-.76,4.49,4.49,0,0,0-.27.72q-.24.82-.63,2.1c-.28.92-.57,2-.9,3.36s-.71,2.81-1.07,4.47a249.06,249.06,0,0,0-4.23,26.29c-1.13,10.34-1.64,19.76-1.69,26.57,0,3.41,0,6.17.12,8.07.06.89.1,1.62.14,2.19A3.87,3.87,0,0,0,683.19,410.87Z" style="fill:#e0e0e0"></path><path d="M683.24,392.71a17.42,17.42,0,0,0,0-2.29c-.08-1.47-.29-3.6-.7-6.2a82.83,82.83,0,0,0-2-9,74,74,0,0,0-3.78-10.7,57.22,57.22,0,0,0-11.1-17.29,27.72,27.72,0,0,0-2.61-2.42c-.4-.34-.76-.68-1.12-.95l-1-.7a14.27,14.27,0,0,0-1.93-1.23,68.67,68.67,0,0,1,6.32,5.64,59.9,59.9,0,0,1,10.82,17.22,84.12,84.12,0,0,1,3.81,10.6A89.48,89.48,0,0,1,682,384.3c.48,2.58.75,4.68.92,6.14A13.57,13.57,0,0,0,683.24,392.71Z" style="fill:#e0e0e0"></path><polygon points="665.69 424.74 667.51 449.66 699.53 449.66 701.35 424.74 665.69 424.74" style="fill:#e0e0e0"></polygon><rect x="662.59" y="414.91" width="42.57" height="9.82" style="fill:#e0e0e0"></rect><polygon points="662.59 448.71 662.59 451.43 664.59 451.43 704.46 451.43 704.46 448.71 662.59 448.71" style="fill:#ebebeb"></polygon><polygon points="666.55 456.23 664.59 451.43 702.94 451.43 700.65 456.23 666.55 456.23" style="fill:#e0e0e0"></polygon><path d="M700.75,432.88s0,.09-.15.23l-.48.64-1.86,2.38-.08.11-.09-.11c-1.17-1.62-2.73-3.79-4.58-6.34h.27l-4.52,6.39-.14.2-.16-.19-5.35-6.36h.31l-.29.37-4.79,6-.16.2-.14-.21c-1.63-2.3-3.15-4.44-4.52-6.39l.26,0-5.55,6.33-.1.11-.08-.12-1.74-2.93-.45-.78a1.39,1.39,0,0,1-.13-.27s.07.07.18.24l.5.75,1.83,2.87h-.18l5.47-6.41.14-.16.12.17,4.56,6.36h-.31l4.78-6,.29-.37.15-.19.16.19,5.33,6.38H689l4.56-6.36.14-.18.13.18,4.48,6.41h-.16l1.94-2.33.52-.6A1.17,1.17,0,0,1,700.75,432.88Z" style="fill:#f5f5f5"></path><path d="M701.79,424.57c0,.11-8,.2-17.92.2s-17.92-.09-17.92-.2,8-.2,17.92-.2S701.79,424.46,701.79,424.57Z" style="fill:#f5f5f5"></path><path d="M703.41,451.7c0,.11-8.72.2-19.47.2s-19.48-.09-19.48-.2,8.72-.2,19.48-.2S703.41,451.59,703.41,451.7Z" style="fill:#f5f5f5"></path></g><g id="freepik--Device--inject-257"><path d="M109.14,104.09H620a6.74,6.74,0,0,1,6.74,6.74V437a14.57,14.57,0,0,1-14.57,14.57H116A14.57,14.57,0,0,1,101.39,437V111.85A7.75,7.75,0,0,1,109.14,104.09Z" style="fill:#455a64"></path><path d="M79.42,425.83H648.63a0,0,0,0,1,0,0V442.5a13.72,13.72,0,0,1-13.72,13.72H93.14A13.72,13.72,0,0,1,79.42,442.5V425.83a0,0,0,0,1,0,0Z" style="fill:#455a64"></path><rect x="115.49" y="117.9" width="495.7" height="293.4" style="fill:#e0e0e0"></rect><polygon points="312.29 425.83 319.35 437.06 418.74 437.06 425.3 425.83 312.29 425.83" style="fill:#263238"></polygon><rect x="130.2" y="134.9" width="467.48" height="276.4" style="fill:#263238"></rect><path d="M166.07,403.18c-.24,0-.44-58.86-.44-131.46s.2-131.49.44-131.49.44,58.86.44,131.49S166.31,403.18,166.07,403.18Z" style="fill:#e0e0e0"></path><path d="M156.64,164.07c0,.24-3.4.44-7.59.44s-7.6-.2-7.6-.44,3.4-.44,7.6-.44S156.64,163.83,156.64,164.07Z" style="fill:#e0e0e0"></path><path d="M157.22,149.15c0,.24-3.4.44-7.59.44s-7.59-.2-7.59-.44,3.4-.44,7.59-.44S157.22,148.91,157.22,149.15Z" style="fill:#e0e0e0"></path><path d="M156.64,180.15c0,.24-3.4.44-7.59.44s-7.6-.2-7.6-.44,3.4-.44,7.6-.44S156.64,179.91,156.64,180.15Z" style="fill:#e0e0e0"></path><path d="M156.64,196.23c0,.25-3.4.44-7.59.44s-7.6-.19-7.6-.44,3.4-.43,7.6-.43S156.64,196,156.64,196.23Z" style="fill:#e0e0e0"></path><path d="M156.64,212.32c0,.24-3.4.44-7.59.44s-7.6-.2-7.6-.44,3.4-.44,7.6-.44S156.64,212.07,156.64,212.32Z" style="fill:#e0e0e0"></path><path d="M156.64,228.4c0,.24-3.4.44-7.59.44s-7.6-.2-7.6-.44,3.4-.44,7.6-.44S156.64,228.16,156.64,228.4Z" style="fill:#e0e0e0"></path><path d="M156.64,244.48c0,.24-3.4.44-7.59.44s-7.6-.2-7.6-.44,3.4-.44,7.6-.44S156.64,244.24,156.64,244.48Z" style="fill:#e0e0e0"></path><path d="M156.64,260.56c0,.25-3.4.44-7.59.44s-7.6-.19-7.6-.44,3.4-.43,7.6-.43S156.64,260.32,156.64,260.56Z" style="fill:#e0e0e0"></path><path d="M156.64,276.65c0,.24-3.4.43-7.59.43s-7.6-.19-7.6-.43,3.4-.44,7.6-.44S156.64,276.4,156.64,276.65Z" style="fill:#e0e0e0"></path><path d="M156.64,292.73c0,.24-3.4.44-7.59.44s-7.6-.2-7.6-.44,3.4-.44,7.6-.44S156.64,292.49,156.64,292.73Z" style="fill:#e0e0e0"></path><path d="M156.64,308.81c0,.24-3.4.44-7.59.44s-7.6-.2-7.6-.44,3.4-.44,7.6-.44S156.64,308.57,156.64,308.81Z" style="fill:#e0e0e0"></path><path d="M156.64,324.89c0,.25-3.4.44-7.59.44s-7.6-.19-7.6-.44,3.4-.43,7.6-.43S156.64,324.65,156.64,324.89Z" style="fill:#e0e0e0"></path><path d="M156.64,341c0,.24-3.4.43-7.59.43s-7.6-.19-7.6-.43,3.4-.44,7.6-.44S156.64,340.73,156.64,341Z" style="fill:#e0e0e0"></path><path d="M156.64,357.06c0,.24-3.4.44-7.59.44s-7.6-.2-7.6-.44,3.4-.44,7.6-.44S156.64,356.82,156.64,357.06Z" style="fill:#e0e0e0"></path><path d="M156.64,373.14c0,.24-3.4.44-7.59.44s-7.6-.2-7.6-.44,3.4-.44,7.6-.44S156.64,372.9,156.64,373.14Z" style="fill:#e0e0e0"></path><path d="M156.64,389.22c0,.25-3.4.44-7.59.44s-7.6-.19-7.6-.44,3.4-.44,7.6-.44S156.64,389,156.64,389.22Z" style="fill:#e0e0e0"></path><path d="M217.51,163.12c0,.24-8.82.44-19.7.44s-19.71-.2-19.71-.44,8.82-.44,19.71-.44S217.51,162.88,217.51,163.12Z" style="fill:#09AFF4"></path><path d="M217.51,389.22c0,.25-8.82.44-19.7.44s-19.71-.19-19.71-.44,8.82-.44,19.71-.44S217.51,389,217.51,389.22Z" style="fill:#09AFF4"></path><path d="M272.4,196.23c0,.25-16.51.44-36.87.44s-36.87-.19-36.87-.44,16.5-.43,36.87-.43S272.4,196,272.4,196.23Z" style="fill:#09AFF4"></path><path d="M357.68,196.23c0,.25-16.51.44-36.87.44s-36.88-.19-36.88-.44,16.51-.43,36.88-.43S357.68,196,357.68,196.23Z" style="fill:#e0e0e0"></path><path d="M325.09,212.32c0,.24-24.33.44-54.34.44s-54.34-.2-54.34-.44,24.32-.44,54.34-.44S325.09,212.07,325.09,212.32Z" style="fill:#e0e0e0"></path><path d="M325.09,228.4c0,.24-24.33.44-54.34.44s-54.34-.2-54.34-.44,24.32-.44,54.34-.44S325.09,228.16,325.09,228.4Z" style="fill:#e0e0e0"></path><path d="M399.9,276.65c0,.24-24.34.43-54.34.43s-54.35-.19-54.35-.43,24.33-.44,54.35-.44S399.9,276.4,399.9,276.65Z" style="fill:#e0e0e0"></path><path d="M367.61,244.48c0,.24-24.33.44-54.33.44s-54.35-.2-54.35-.44,24.33-.44,54.35-.44S367.61,244.24,367.61,244.48Z" style="fill:#e0e0e0"></path><path d="M500.42,244.48c0,.24-24.33.44-54.33.44s-54.35-.2-54.35-.44,24.33-.44,54.35-.44S500.42,244.24,500.42,244.48Z" style="fill:#e0e0e0"></path><path d="M454.24,212.32c0,.24-24.34.44-54.34.44s-54.34-.2-54.34-.44,24.32-.44,54.34-.44S454.24,212.07,454.24,212.32Z" style="fill:#fafafa"></path><path d="M529.31,276.65c0,.24-24.33.43-54.34.43s-54.34-.19-54.34-.43,24.32-.44,54.34-.44S529.31,276.4,529.31,276.65Z" style="fill:#fafafa"></path><path d="M514.32,228.4c0,.24-37.78.44-84.38.44s-84.38-.2-84.38-.44,37.77-.44,84.38-.44S514.32,228.16,514.32,228.4Z" style="fill:#455a64"></path><path d="M217.51,180.15c0,.24-8.82.44-19.7.44s-19.71-.2-19.71-.44,8.82-.44,19.71-.44S217.51,179.91,217.51,180.15Z" style="fill:#fafafa"></path><path d="M217.51,373.14c0,.24-8.82.44-19.7.44s-19.71-.2-19.71-.44,8.82-.44,19.71-.44S217.51,372.9,217.51,373.14Z" style="fill:#fafafa"></path><path d="M237,244.48c0,.24-8.82.44-19.71.44s-19.71-.2-19.71-.44,8.83-.44,19.71-.44S237,244.24,237,244.48Z" style="fill:#fafafa"></path><path d="M552.93,244.48c0,.24-8.82.44-19.7.44s-19.71-.2-19.71-.44,8.82-.44,19.71-.44S552.93,244.24,552.93,244.48Z" style="fill:#09AFF4"></path><path d="M272.4,308.72c0,.24-16.51.44-36.87.44s-36.87-.2-36.87-.44,16.5-.44,36.87-.44S272.4,308.47,272.4,308.72Z" style="fill:#09AFF4"></path><path d="M357.68,308.72c0,.24-16.51.44-36.87.44s-36.88-.2-36.88-.44,16.51-.44,36.88-.44S357.68,308.47,357.68,308.72Z" style="fill:#e0e0e0"></path><path d="M325.09,324.8c0,.24-24.33.44-54.34.44s-54.34-.2-54.34-.44,24.32-.44,54.34-.44S325.09,324.56,325.09,324.8Z" style="fill:#e0e0e0"></path><path d="M325.09,340.88c0,.24-24.33.44-54.34.44s-54.34-.2-54.34-.44,24.32-.44,54.34-.44S325.09,340.64,325.09,340.88Z" style="fill:#e0e0e0"></path><path d="M367.61,357c0,.25-24.33.44-54.33.44s-54.35-.19-54.35-.44,24.33-.43,54.35-.43S367.61,356.72,367.61,357Z" style="fill:#e0e0e0"></path><path d="M500.42,357c0,.25-24.33.44-54.33.44s-54.35-.19-54.35-.44,24.33-.43,54.35-.43S500.42,356.72,500.42,357Z" style="fill:#e0e0e0"></path><path d="M454.24,324.8c0,.24-24.34.44-54.34.44s-54.34-.2-54.34-.44,24.32-.44,54.34-.44S454.24,324.56,454.24,324.8Z" style="fill:#fafafa"></path><path d="M514.32,340.88c0,.24-37.78.44-84.38.44s-84.38-.2-84.38-.44,37.77-.44,84.38-.44S514.32,340.64,514.32,340.88Z" style="fill:#455a64"></path><path d="M237,357c0,.25-8.82.44-19.71.44s-19.71-.19-19.71-.44,8.83-.43,19.71-.43S237,356.72,237,357Z" style="fill:#fafafa"></path><path d="M552.93,357c0,.25-8.82.44-19.7.44s-19.71-.19-19.71-.44,8.82-.43,19.71-.43S552.93,356.72,552.93,357Z" style="fill:#09AFF4"></path><path d="M563.44,436c0,.14-100.64.26-224.76.26S113.9,436.12,113.9,436s100.62-.26,224.78-.26S563.44,435.84,563.44,436Z" style="fill:#263238"></path></g></svg>