<svg xmlns="http://www.w3.org/2000/svg" width="45" height="45" viewBox="0 0 500 500"><g id="freepik--Floor--inject-311"><path id="freepik--floor--inject-311" d="M80.75,250.29c-93.47,54-93.47,141.46,0,195.43s245,54,338.5,0,93.47-141.46,0-195.43S174.22,196.32,80.75,250.29Z" style="fill:#f5f5f5"></path></g><g id="freepik--Shadows--inject-311"><path id="freepik--Shadow--inject-311" d="M279.23,266.64l-15.32-8.85a3.71,3.71,0,0,0-3.31,0L31,390.36a1,1,0,0,0,0,1.92l15.47,9a3.64,3.64,0,0,0,3.31,0l69.8-40.36a14.85,14.85,0,0,0,1.43,1L146,376.26a23.94,23.94,0,0,0,22.09,0l48.09-27.76c3.58-2.06,5.62-5.14,5.62-8.44s-2-6.37-5.62-8.44l-23-13.27,86.07-49.8A1,1,0,0,0,279.23,266.64Z" style="fill:#e0e0e0"></path><path id="freepik--shadow--inject-311" d="M169.58,458.76l-3.05-1.84a1.81,1.81,0,0,0,.08-.51,1.4,1.4,0,0,0-.06-.52c-1.14-2.69-6.92-8.75-8.92-9.94l0,0h0L155,444.4a1.85,1.85,0,0,0-.7-.22L89.94,407h0a5.54,5.54,0,0,0-6.22.47L81.19,406h0a2,2,0,0,0-2.68.72,1.89,1.89,0,0,0-.26,1.05h0v0a1.77,1.77,0,0,0,.07.46s0,0,0,0a2.43,2.43,0,0,0,.16.37l.07.11a1.64,1.64,0,0,0,.2.26l.09.1a2.11,2.11,0,0,0,.37.28h0l2.51,1.46a5.53,5.53,0,0,0,2.67,5.72h0l64.33,37.21a2.24,2.24,0,0,0,.56.51l2.62,1.5h0c2,1.12,10.17,3.16,13.1,2.8h0a1.14,1.14,0,0,0,.43-.14,1.9,1.9,0,0,0,.39-.31l3,1.83a.69.69,0,0,0,.94-.24A.67.67,0,0,0,169.58,458.76Z" style="fill:#e0e0e0"></path><path id="freepik--shadow--inject-311" d="M133.32,410.52l80.41,46.88a6.59,6.59,0,0,0,6,0l152.59-87.94c1.65-.94,1.65-2.49,0-3.44l-80.42-46.88a6.57,6.57,0,0,0-5.95,0L133.32,407.08C131.67,408,131.67,409.57,133.32,410.52Z" style="fill:#e0e0e0"></path><path id="freepik--shadow--inject-311" d="M447.92,297.81l-68.08,39.31c-3.78,2.18-10.37,1.91-14.72-.61l-107.39-62c-4.36-2.51-4.83-6.32-1.06-8.5l68.08-39.3c3.78-2.18,10.37-1.91,14.72.61l107.39,62C451.22,291.83,451.69,295.63,447.92,297.81Z" style="fill:#e0e0e0"></path><path id="freepik--shadow--inject-311" d="M443.58,361.25c-11.07-7.82-25.6-17-37.06-15.81a45.47,45.47,0,0,0-10.41,2c-3.76,1.32-6.25,3.64-9,6.41-5.72,5.8-3.45,11.58,7.72,16.14,12.1,4.94,15.5,7.91,21.72,12.27,7,4.92,20.52,7.71,30.67,1.05C456,377.63,454.64,369.07,443.58,361.25Z" style="fill:#e0e0e0"></path></g><g id="freepik--CPU--inject-311"><g id="freepik--cpu--inject-311"><path d="M265.92,95.64a11.13,11.13,0,0,0-5,8.71v163.9a3.51,3.51,0,0,0,1.52,3.28L371,334.25a3.53,3.53,0,0,0,3.56-.35L440,296.13a11.11,11.11,0,0,0,5-8.71V123.52a3.53,3.53,0,0,0-1.47-3.25L335,57.57a3.49,3.49,0,0,0-3.65.3Z" style="fill:#263238"></path><path d="M359.26,169.25l-23-13.3V227.7a3.49,3.49,0,0,0,1.52,3.28l21.52,12.43Z"></path><path d="M271.54,264.27l6.68,3.85,56.91-32.85a11.16,11.16,0,0,0,5-8.71V158.22l-68.62-39.61Z" style="fill:#37474f"></path><polygon points="286.8 128.32 278.07 133.37 273.71 145.97 278.07 153.53 286.8 148.49 291.17 135.89 286.8 128.32" style="fill:#455a64"></polygon><polygon points="303.14 132.49 294.41 137.53 290.04 150.14 294.41 157.7 303.14 152.66 307.51 140.06 303.14 132.49" style="fill:#455a64"></polygon><polygon points="296.22 190.35 287.49 195.39 283.13 207.99 287.49 215.55 296.22 210.51 300.59 197.91 296.22 190.35" style="fill:#455a64"></polygon><polygon points="286.93 239.35 278.2 244.39 273.83 257 278.2 264.56 286.93 259.52 291.3 246.91 286.93 239.35" style="fill:#455a64"></polygon><polygon points="311.66 170.14 302.93 175.19 298.56 187.79 302.93 195.35 311.66 190.31 316.02 177.71 311.66 170.14" style="fill:#455a64"></polygon><polygon points="286.93 153.09 278.2 158.13 273.83 170.73 278.2 178.29 286.93 173.25 291.3 160.65 286.93 153.09" style="fill:#455a64"></polygon><g id="freepik--Controller--inject-311"><polygon points="360.05 278.44 403.45 253.43 317.1 203.54 273.7 228.55 360.05 278.44" style="fill:#455a64"></polygon><polygon points="403.45 253.43 403.44 266.84 360.05 291.85 360.05 278.44 403.45 253.43" style="fill:#263238"></polygon><polygon points="273.7 228.55 273.7 241.96 360.05 291.85 360.05 278.44 273.7 228.55" style="fill:#37474f"></polygon><path d="M315.77,257.79a.26.26,0,0,0,.22-.13.25.25,0,0,0-.09-.34l-27.1-15.64a.25.25,0,0,0-.25.43l27.1,15.65Z" style="fill:#09AFF4"></path><path d="M315.77,260a.26.26,0,0,0,.22-.13.25.25,0,0,0-.09-.34l-27.1-15.65a.26.26,0,0,0-.34.1.25.25,0,0,0,.09.34L315.65,260A.19.19,0,0,0,315.77,260Z" style="fill:#09AFF4"></path><path d="M315.77,262.26a.25.25,0,0,0,.22-.12.25.25,0,0,0-.09-.34l-27.1-15.65a.25.25,0,0,0-.34.09.26.26,0,0,0,.09.35l27.1,15.64Z" style="fill:#09AFF4"></path><path d="M377.59,264.67c-9.63,5.56-25.24,5.56-34.87,0s-9.62-14.57,0-20.13,25.23-5.56,34.86,0S387.21,259.11,377.59,264.67Z" style="fill:#263238"></path><path d="M342.57,264.58l4.88-11.09,5.79,3.06-2.7,11.16a30,30,0,0,1-7.82-3Z" style="fill:#37474f"></path><path d="M338.77,261.69l5.76-10.43,1.58.64L341,263.55A18.06,18.06,0,0,1,338.77,261.69Z" style="fill:#37474f"></path><path d="M376.63,261.22c-9.1,5.25-23.85,5.25-32.95,0s-9.1-13.77,0-19,23.85-5.25,32.95,0S385.73,256,376.63,261.22Z" style="fill:#09AFF4"></path><g style="opacity:0.15"><path d="M347.45,253.49l5.79,3.06-1.84,7.63a28.81,28.81,0,0,1-7.42-2.8Z" style="fill:#fff"></path><path d="M344.53,251.26l1.58.64-3.73,8.49a17.65,17.65,0,0,1-2-1.6Z" style="fill:#fff"></path></g><path d="M375.5,257.89c-8.47,4.89-22.21,4.89-30.69,0s-8.47-12.83,0-17.72,22.22-4.89,30.69,0S384,253,375.5,257.89Z" style="fill:#263238"></path><path d="M374.52,257c-7.93,4.4-20.8,4.4-28.73,0s-7.94-11.54,0-15.95,20.8-4.4,28.74,0S382.46,252.6,374.52,257Z" style="fill:#37474f"></path><path d="M377.34,255l-17.18-6L379,253.32A11.64,11.64,0,0,1,377.34,255Z" style="fill:#263238"></path><path d="M355.34,260,360.16,249l-1.44,11.24C357.58,260.22,356.46,260.12,355.34,260Z" style="fill:#263238"></path><path d="M339.91,249.85l20.25-.82-19.7,2.73A6.79,6.79,0,0,1,339.91,249.85Z" style="fill:#263238"></path><path d="M352.59,238.56,360.16,249l-10.63-9.6A30,30,0,0,1,352.59,238.56Z" style="fill:#263238"></path><path d="M374.53,241.05c.38.22.72.44,1.07.66L360.16,249l13-8.67C373.62,240.58,374.08,240.81,374.53,241.05Z" style="fill:#263238"></path><path d="M365.05,251.85a10.82,10.82,0,0,1-9.79,0c-2.7-1.56-2.7-4.09,0-5.65a10.82,10.82,0,0,1,9.79,0C367.75,247.76,367.75,250.29,365.05,251.85Z" style="fill:#09AFF4"></path><path d="M363.45,250.93a7.29,7.29,0,0,1-6.59,0c-1.82-1.05-1.82-2.75,0-3.8a7.29,7.29,0,0,1,6.59,0C365.27,248.18,365.27,249.88,363.45,250.93Z" style="fill:#263238"></path><path d="M361.53,249.82a3,3,0,0,1-2.75,0,.84.84,0,0,1,0-1.59,3.09,3.09,0,0,1,2.75,0A.84.84,0,0,1,361.53,249.82Z" style="fill:#09AFF4"></path><path d="M335.13,239.92c-9.63,5.56-25.24,5.56-34.86,0s-9.63-14.57,0-20.13,25.23-5.56,34.86,0S344.76,234.36,335.13,239.92Z" style="fill:#263238"></path><path d="M300.12,239.83,305,228.74l5.79,3.06L308.09,243a29.89,29.89,0,0,1-7.82-3Z" style="fill:#37474f"></path><path d="M296.32,236.94l5.76-10.43,1.57.65-5.12,11.64A15.94,15.94,0,0,1,296.32,236.94Z" style="fill:#37474f"></path><path d="M334.17,236.47c-9.09,5.25-23.85,5.25-32.95,0s-9.1-13.77,0-19,23.86-5.25,33,0S343.27,231.22,334.17,236.47Z" style="fill:#09AFF4"></path><g style="opacity:0.15"><path d="M305,228.74l5.79,3.06-1.84,7.63a28.81,28.81,0,0,1-7.42-2.8Z" style="fill:#fff"></path><path d="M302.08,226.51l1.57.65-3.73,8.48a16.61,16.61,0,0,1-2-1.6Z" style="fill:#fff"></path></g><path d="M333,233.14c-8.47,4.89-22.21,4.89-30.69,0s-8.47-12.83,0-17.72,22.21-4.89,30.68,0S341.52,228.25,333,233.14Z" style="fill:#263238"></path><path d="M332.07,232.25c-7.94,4.41-20.8,4.41-28.74,0s-7.93-11.54,0-15.94,20.8-4.41,28.74,0S340,227.85,332.07,232.25Z" style="fill:#37474f"></path><path d="M334.88,230.29l-17.18-6,18.79,4.29A11.16,11.16,0,0,1,334.88,230.29Z" style="fill:#263238"></path><path d="M312.89,235.22l4.81-10.94-1.44,11.24C315.13,235.47,314,235.37,312.89,235.22Z" style="fill:#263238"></path><path d="M297.45,225.1l20.25-.82L298,227A6.65,6.65,0,0,1,297.45,225.1Z" style="fill:#263238"></path><path d="M310.14,213.81l7.56,10.47-10.63-9.6A29.46,29.46,0,0,1,310.14,213.81Z" style="fill:#263238"></path><path d="M332.07,216.31c.38.21.73.43,1.07.66l-15.44,7.31,13-8.67C331.16,215.83,331.62,216.06,332.07,216.31Z" style="fill:#263238"></path><path d="M322.59,227.1a10.8,10.8,0,0,1-9.78,0c-2.7-1.56-2.7-4.09,0-5.65a10.83,10.83,0,0,1,9.78,0C325.29,223,325.29,225.54,322.59,227.1Z" style="fill:#09AFF4"></path><path d="M321,226.18a7.29,7.29,0,0,1-6.59,0c-1.81-1.05-1.81-2.75,0-3.8a7.27,7.27,0,0,1,6.58,0C322.81,223.43,322.81,225.13,321,226.18Z" style="fill:#263238"></path><path d="M319.07,225.07a3,3,0,0,1-2.74,0,.83.83,0,0,1,0-1.58,3,3,0,0,1,2.74,0A.83.83,0,0,1,319.07,225.07Z" style="fill:#09AFF4"></path></g><g id="freepik--controller--inject-311"><polygon points="355.83 163.95 355.83 222.05 319.03 200.78 319.03 142.67 355.83 163.95" style="fill:#455a64"></polygon><polygon points="355.83 222.05 367.44 215.35 367.44 157.25 355.83 163.95 355.83 222.05" style="fill:#263238"></polygon><polygon points="319.03 142.67 330.64 135.97 367.44 157.25 355.83 163.95 319.03 142.67" style="fill:#37474f"></polygon><path d="M343.63,159.51a.25.25,0,0,1,0,.12l0,3.21a.27.27,0,0,1-.12.22.3.3,0,0,1-.26,0l-6.05-3.55a.27.27,0,0,1-.12-.22l0-3.15a.26.26,0,0,1,.13-.22.28.28,0,0,1,.25,0l6.05,3.5A.2.2,0,0,1,343.63,159.51Zm-.44,2.89,0-2.62-5.55-3.21,0,2.58Z" style="fill:#09AFF4"></path><path d="M332,152.8a.5.5,0,0,1,0,.13l0,3.21a.23.23,0,0,1-.13.21.23.23,0,0,1-.25,0l-6.05-3.55a.22.22,0,0,1-.12-.21l0-3.15a.25.25,0,0,1,.13-.22.23.23,0,0,1,.25,0l6.05,3.49A.26.26,0,0,1,332,152.8Zm-.44,2.9,0-2.63-5.55-3.2v2.57Z" style="fill:#09AFF4"></path><path d="M343.63,208.67a.28.28,0,0,1,0,.12l0,3.21a.26.26,0,0,1-.12.22.24.24,0,0,1-.26,0l-6.05-3.55a.25.25,0,0,1-.12-.21l0-3.16a.26.26,0,0,1,.13-.22.28.28,0,0,1,.25,0l6.05,3.5A.2.2,0,0,1,343.63,208.67Zm-.44,2.9,0-2.63-5.55-3.21,0,2.58Z" style="fill:#09AFF4"></path><path d="M332,202a.34.34,0,0,1,0,.12l0,3.21a.26.26,0,0,1-.13.22.28.28,0,0,1-.25,0L325.65,202a.22.22,0,0,1-.12-.21l0-3.15a.25.25,0,0,1,.13-.22.28.28,0,0,1,.25,0l6.05,3.49A.28.28,0,0,1,332,202Zm-.44,2.89,0-2.62L326,199v2.58Z" style="fill:#09AFF4"></path><polygon points="343.06 202.31 343.06 171.03 341.8 170.3 341.8 201.58 343.06 202.31" style="fill:#263238"></polygon><polygon points="344.55 176.36 343.45 177 339.58 174.76 340.68 174.13 344.55 176.36" style="fill:#09AFF4"></polygon><polygon points="344.55 176.36 343.45 177 339.58 174.76 340.68 174.13 344.55 176.36" style="opacity:0.15"></polygon><polygon points="343.46 179.23 343.45 177 339.58 174.76 339.58 177 343.46 179.23" style="fill:#09AFF4"></polygon><polygon points="344.55 178.6 344.55 176.36 343.45 177 343.46 179.23 344.55 178.6" style="fill:#09AFF4"></polygon><polygon points="344.55 178.6 344.55 176.36 343.45 177 343.46 179.23 344.55 178.6" style="opacity:0.30000000000000004"></polygon><polygon points="341.8 201.58 343.06 200.85 343.06 202.31 341.8 201.58"></polygon><polygon points="339.19 200.08 339.19 168.79 337.93 168.06 337.93 199.35 339.19 200.08" style="fill:#263238"></polygon><polygon points="340.68 183.07 339.58 183.7 335.71 181.46 336.81 180.83 340.68 183.07" style="fill:#09AFF4"></polygon><polygon points="340.68 183.07 339.58 183.7 335.71 181.46 336.81 180.83 340.68 183.07" style="opacity:0.15"></polygon><polygon points="339.59 185.94 339.58 183.7 335.71 181.46 335.71 183.7 339.59 185.94" style="fill:#09AFF4"></polygon><polygon points="340.68 185.3 340.68 183.07 339.58 183.7 339.59 185.94 340.68 185.3" style="fill:#09AFF4"></polygon><polygon points="340.68 185.3 340.68 183.07 339.58 183.7 339.59 185.94 340.68 185.3" style="opacity:0.30000000000000004"></polygon><polygon points="337.93 199.35 339.19 198.62 339.19 200.08 337.93 199.35"></polygon><polygon points="335.32 197.85 335.32 166.56 334.05 165.83 334.05 197.11 335.32 197.85" style="fill:#263238"></polygon><polygon points="336.81 173.7 335.71 174.33 331.84 172.1 332.94 171.46 336.81 173.7" style="fill:#09AFF4"></polygon><polygon points="336.81 173.7 335.71 174.33 331.84 172.1 332.94 171.46 336.81 173.7" style="opacity:0.15"></polygon><polygon points="335.72 176.57 335.71 174.33 331.84 172.1 331.84 174.33 335.72 176.57" style="fill:#09AFF4"></polygon><polygon points="336.81 175.93 336.81 173.7 335.71 174.33 335.72 176.57 336.81 175.93" style="fill:#09AFF4"></polygon><polygon points="336.81 175.93 336.81 173.7 335.71 174.33 335.72 176.57 336.81 175.93" style="opacity:0.30000000000000004"></polygon><polygon points="334.05 197.11 335.32 196.38 335.32 197.85 334.05 197.11"></polygon><polygon points="331.45 195.61 331.45 164.33 330.18 163.59 330.18 194.88 331.45 195.61" style="fill:#263238"></polygon><polygon points="332.94 187.53 331.84 188.17 327.97 185.93 329.07 185.3 332.94 187.53" style="fill:#09AFF4"></polygon><polygon points="332.94 187.53 331.84 188.17 327.97 185.93 329.07 185.3 332.94 187.53" style="opacity:0.15"></polygon><polygon points="331.85 190.41 331.84 188.17 327.97 185.93 327.97 188.17 331.85 190.41" style="fill:#09AFF4"></polygon><polygon points="332.94 189.77 332.94 187.53 331.84 188.17 331.85 190.41 332.94 189.77" style="fill:#09AFF4"></polygon><polygon points="332.94 189.77 332.94 187.53 331.84 188.17 331.85 190.41 332.94 189.77" style="opacity:0.30000000000000004"></polygon><polygon points="330.18 194.88 331.45 194.15 331.45 195.61 330.18 194.88"></polygon><path d="M352,179.6h0l-3,1.49-1.5-2.6,2.77-1.83h0a.81.81,0,0,1,.89.05,2.64,2.64,0,0,1,1.2,2.08A.83.83,0,0,1,352,179.6Z" style="fill:#09AFF4"></path><path d="M352,179.6h0l-3,1.49-1.5-2.6,2.77-1.83h0a.81.81,0,0,1,.89.05,2.64,2.64,0,0,1,1.2,2.08A.83.83,0,0,1,352,179.6Z" style="opacity:0.2"></path><path d="M348.27,178.54c-.59-.34-1.07-.06-1.07.62a2.36,2.36,0,0,0,1.07,1.84c.58.34,1.06.06,1.06-.62A2.38,2.38,0,0,0,348.27,178.54Z" style="fill:#09AFF4"></path><path d="M352,185.45h0l-3,1.49-1.5-2.6,2.77-1.83h0a.83.83,0,0,1,.89,0,2.66,2.66,0,0,1,1.2,2.09A.81.81,0,0,1,352,185.45Z" style="fill:#09AFF4"></path><path d="M352,185.45h0l-3,1.49-1.5-2.6,2.77-1.83h0a.83.83,0,0,1,.89,0,2.66,2.66,0,0,1,1.2,2.09A.81.81,0,0,1,352,185.45Z" style="opacity:0.2"></path><path d="M348.28,184.4c-.59-.34-1.07-.07-1.07.61a2.35,2.35,0,0,0,1.07,1.84c.58.34,1.06.06,1.06-.61A2.36,2.36,0,0,0,348.28,184.4Z" style="fill:#09AFF4"></path><path d="M352,191.3h0l-3,1.49-1.5-2.6,2.77-1.83h0a.81.81,0,0,1,.89.06,2.62,2.62,0,0,1,1.2,2.08A.81.81,0,0,1,352,191.3Z" style="fill:#09AFF4"></path><path d="M352,191.3h0l-3,1.49-1.5-2.6,2.77-1.83h0a.81.81,0,0,1,.89.06,2.62,2.62,0,0,1,1.2,2.08A.81.81,0,0,1,352,191.3Z" style="opacity:0.2"></path><path d="M348.29,190.25c-.59-.34-1.07-.06-1.07.61a2.33,2.33,0,0,0,1.07,1.84c.58.34,1.06.07,1.06-.61A2.36,2.36,0,0,0,348.29,190.25Z" style="fill:#09AFF4"></path><path d="M352,197.16h0l-3,1.49-1.5-2.6,2.77-1.83h0a.81.81,0,0,1,.89.05,2.66,2.66,0,0,1,1.2,2.09A.81.81,0,0,1,352,197.16Z" style="fill:#09AFF4"></path><path d="M352,197.16h0l-3,1.49-1.5-2.6,2.77-1.83h0a.81.81,0,0,1,.89.05,2.66,2.66,0,0,1,1.2,2.09A.81.81,0,0,1,352,197.16Z" style="opacity:0.2"></path><path d="M348.29,196.1c-.58-.33-1.06-.06-1.06.62a2.36,2.36,0,0,0,1.06,1.84c.59.34,1.07.06,1.07-.62A2.36,2.36,0,0,0,348.29,196.1Z" style="fill:#09AFF4"></path><path d="M352,203h0l-3,1.49-1.5-2.6,2.77-1.82h0a.81.81,0,0,1,.89.06,2.65,2.65,0,0,1,1.2,2.08A.81.81,0,0,1,352,203Z" style="fill:#09AFF4"></path><path d="M352,203h0l-3,1.49-1.5-2.6,2.77-1.82h0a.81.81,0,0,1,.89.06,2.65,2.65,0,0,1,1.2,2.08A.81.81,0,0,1,352,203Z" style="opacity:0.2"></path><path d="M348.3,202c-.58-.34-1.06-.07-1.06.61a2.36,2.36,0,0,0,1.06,1.84c.59.34,1.07.07,1.07-.61A2.35,2.35,0,0,0,348.3,202Z" style="fill:#09AFF4"></path><path d="M325.14,166.21h0l-3,1.49-1.5-2.6,2.77-1.83h0a.83.83,0,0,1,.89.05,2.68,2.68,0,0,1,1.2,2.09A.83.83,0,0,1,325.14,166.21Z" style="fill:#09AFF4"></path><path d="M325.14,166.21h0l-3,1.49-1.5-2.6,2.77-1.83h0a.83.83,0,0,1,.89.05,2.68,2.68,0,0,1,1.2,2.09A.83.83,0,0,1,325.14,166.21Z" style="opacity:0.2"></path><path d="M321.44,165.16c-.59-.34-1.06-.07-1.06.61a2.33,2.33,0,0,0,1.06,1.84c.59.34,1.06.06,1.06-.61A2.32,2.32,0,0,0,321.44,165.16Z" style="fill:#09AFF4"></path><path d="M325.15,172.06h0l-3,1.49-1.5-2.6,2.77-1.83h0a.81.81,0,0,1,.89.06,2.65,2.65,0,0,1,1.2,2.08A.83.83,0,0,1,325.15,172.06Z" style="fill:#09AFF4"></path><path d="M325.15,172.06h0l-3,1.49-1.5-2.6,2.77-1.83h0a.81.81,0,0,1,.89.06,2.65,2.65,0,0,1,1.2,2.08A.83.83,0,0,1,325.15,172.06Z" style="opacity:0.2"></path><path d="M321.45,171c-.59-.34-1.06-.06-1.06.61a2.33,2.33,0,0,0,1.06,1.84c.59.34,1.06.07,1.06-.61A2.33,2.33,0,0,0,321.45,171Z" style="fill:#09AFF4"></path><path d="M325.16,177.92h0l-3,1.49-1.5-2.6,2.77-1.83h0a.81.81,0,0,1,.89,0,2.67,2.67,0,0,1,1.2,2.08A.85.85,0,0,1,325.16,177.92Z" style="fill:#09AFF4"></path><path d="M325.16,177.92h0l-3,1.49-1.5-2.6,2.77-1.83h0a.81.81,0,0,1,.89,0,2.67,2.67,0,0,1,1.2,2.08A.85.85,0,0,1,325.16,177.92Z" style="opacity:0.2"></path><path d="M321.46,176.86c-.59-.34-1.06-.06-1.06.62a2.35,2.35,0,0,0,1.06,1.84c.59.34,1.06.06,1.06-.62A2.35,2.35,0,0,0,321.46,176.86Z" style="fill:#09AFF4"></path><path d="M325.17,183.77h0l-3,1.49-1.5-2.6,2.77-1.83h0a.83.83,0,0,1,.89,0,2.68,2.68,0,0,1,1.2,2.09A.83.83,0,0,1,325.17,183.77Z" style="fill:#09AFF4"></path><path d="M325.17,183.77h0l-3,1.49-1.5-2.6,2.77-1.83h0a.83.83,0,0,1,.89,0,2.68,2.68,0,0,1,1.2,2.09A.83.83,0,0,1,325.17,183.77Z" style="opacity:0.2"></path><path d="M321.47,182.72c-.59-.34-1.06-.07-1.06.61a2.33,2.33,0,0,0,1.06,1.84c.59.34,1.06.06,1.06-.61A2.33,2.33,0,0,0,321.47,182.72Z" style="fill:#09AFF4"></path><path d="M325.18,189.62h0l-3,1.49-1.5-2.6,2.77-1.83h0a.81.81,0,0,1,.89.06,2.65,2.65,0,0,1,1.2,2.08A.83.83,0,0,1,325.18,189.62Z" style="fill:#09AFF4"></path><path d="M325.18,189.62h0l-3,1.49-1.5-2.6,2.77-1.83h0a.81.81,0,0,1,.89.06,2.65,2.65,0,0,1,1.2,2.08A.83.83,0,0,1,325.18,189.62Z" style="opacity:0.2"></path><path d="M321.48,188.57c-.59-.34-1.06-.06-1.06.61a2.32,2.32,0,0,0,1.06,1.84c.59.34,1.06.07,1.06-.61A2.33,2.33,0,0,0,321.48,188.57Z" style="fill:#09AFF4"></path><path d="M350,165.74c-.75-.43-1.36-.08-1.36.79a3,3,0,0,0,1.36,2.35c.75.43,1.36.08,1.36-.79A3,3,0,0,0,350,165.74Z" style="fill:#09AFF4"></path><path d="M350,210.43c-.75-.43-1.36-.08-1.36.78a3,3,0,0,0,1.36,2.36c.75.43,1.35.08,1.35-.79A3,3,0,0,0,350,210.43Z" style="fill:#09AFF4"></path></g><path d="M443.57,120.27,335,57.57a3.49,3.49,0,0,0-3.65.3L265.92,95.64a11.12,11.12,0,0,0-5,8.71v163.9a3.53,3.53,0,0,0,1.51,3.28L371,334.25a3.53,3.53,0,0,0,3.56-.35L440,296.13a11.1,11.1,0,0,0,5-8.71V123.52A3.53,3.53,0,0,0,443.57,120.27ZM359.26,314.91l-87.71-50.64V118.61l87.71,50.64Z" style="fill:#263238"></path><polygon points="271.55 264.27 359.26 314.91 359.26 169.25 271.55 118.61 271.55 264.27" style="fill:#09AFF4;opacity:0.4"></polygon><path d="M271.54,238.67l22.18,38.4,9.07,5.24-31.25-54.12Zm0-51.23,66.55,115.25,20,11.53L271.54,164.38Zm35.17-48.53-20-11.52L359.26,253v-23Zm-35.17,14.66L359.26,305.5V295L271.54,143.1Z" style="fill:#fff;opacity:0.1"></path><path d="M369.56,167.1V331a3.07,3.07,0,0,0,5,2.9L440,296.13a11.11,11.11,0,0,0,5-8.71V123.52a3.07,3.07,0,0,0-5-2.9l-32.77,18.92-32.65,18.85A11.1,11.1,0,0,0,369.56,167.1Z" style="fill:#455a64"></path><path d="M408.93,149.32l21.58,1.74V273.92l-24.95,30.81-21.47-1.79V180.07l24.84-30.75m-1.69-3.93-26.93,33.35V306.42l26.93,2.25,27.05-33.42V147.57l-27.05-2.18Z" style="fill:#263238"></path><path d="M380.31,305.76l26,2.17,27-33.41v-127l-26.1-2.11-26.93,33.35Zm2.83-126.42L408,148.59l21.58,1.74V151l.95.08V273.92l-24.95,30.81-21.47-1.79-.95-.73Z" style="fill:#09AFF4"></path><path d="M408.76,253.12l-2.93,1.69c-1.4.81-2.53-.05-2.53-1.92V172.05a6.07,6.07,0,0,1,2.53-4.84l2.93-1.69c1.4-.81,2.54,0,2.54,1.91v80.84A6.09,6.09,0,0,1,408.76,253.12Z" style="fill:#09AFF4"></path><path d="M411.3,167.43v80.84a6.08,6.08,0,0,1-2.53,4.85l-2.94,1.69a1.49,1.49,0,0,1-2.39-.9,2,2,0,0,0,.86-.29l2.93-1.7a6,6,0,0,0,2.53-4.84V166.24a3.42,3.42,0,0,0-.14-1C410.6,165.12,411.3,166,411.3,167.43Z" style="fill:#263238"></path><path d="M265.92,95.65l65.44-37.78a3.48,3.48,0,0,1,3.63-.3l108.58,62.7a3.55,3.55,0,0,0-3.56.34l-65.44,37.78a10.25,10.25,0,0,0-3.55,3.74L262.36,99.39A10.35,10.35,0,0,1,265.92,95.65Z" style="fill:#37474f"></path><ellipse cx="407.3" cy="273.2" rx="14.43" ry="8.68" transform="translate(-3.57 541.01) rotate(-66.95)" style="fill:#37474f"></ellipse><ellipse cx="407.3" cy="273.2" rx="13.17" ry="7.45" transform="matrix(0.39, -0.92, 0.92, 0.39, -3.57, 541.01)" style="fill:#09AFF4"></ellipse><ellipse cx="407.3" cy="273.2" rx="13.17" ry="7.45" transform="matrix(0.39, -0.92, 0.92, 0.39, -3.57, 541.01)" style="fill:#fff;opacity:0.6000000000000001"></ellipse><path d="M409.5,266.41a.62.62,0,0,0-.69.54.63.63,0,0,0,.55.69c1.2.14,1.95,1.45,1.95,3.42,0,3.21-1.94,6.94-4.32,8.31a2.43,2.43,0,0,1-2.41.25c-.82-.48-1.3-1.65-1.3-3.21a11.23,11.23,0,0,1,2.47-6.64.63.63,0,0,0-.09-.87.61.61,0,0,0-.87.09,12.37,12.37,0,0,0-2.74,7.42c0,2,.69,3.58,1.91,4.28a3,3,0,0,0,1.5.39,4.31,4.31,0,0,0,2.15-.64c2.77-1.6,4.94-5.72,4.94-9.38C412.55,268.41,411.38,266.62,409.5,266.41Zm-2.13,7.81a.61.61,0,0,0,.62-.61V265.7a.62.62,0,1,0-1.24,0v7.91A.61.61,0,0,0,407.37,274.22Z" style="fill:#fff"></path></g></g><g id="freepik--Monitor--inject-311"><g id="freepik--monitor--inject-311"><path d="M214.36,331.35,189.44,317c-5.12-3-13.73-3.63-19.25-1.51l-14.79,5.69A85.52,85.52,0,0,0,137,331.61l-15,11.86a7.51,7.51,0,0,0-3.23,5.8c0,.57,0,2.85,0,3.43,0,2.29,1.39,4.52,4.09,6.07l24.92,14.39c5.12,3,13.41,3,18.53,0l48.09-27.76c2.57-1.49,3.84-3.43,3.83-5.38,0-.55,0-2.76,0-3.32C218.19,334.77,216.92,332.83,214.36,331.35Z" style="fill:#37474f"></path><path d="M118.73,352.7c0,2.29,1.39,4.52,4.09,6.07l24.92,14.39a18.9,18.9,0,0,0,9.26,2.22v-3.56l-38.27-22.1C118.72,350.6,118.72,352.23,118.73,352.7Z" style="fill:#263238"></path><path d="M170.19,315.46l-14.79,5.69A85.52,85.52,0,0,0,137,331.61l-15,11.86c-4.64,3.65-4.26,9,.86,12l24.92,14.39c5.12,2.95,13.41,2.95,18.53,0l48.09-27.77c5.12-2.95,5.12-7.74,0-10.7L189.44,317C184.32,314,175.71,313.34,170.19,315.46Z" style="fill:#455a64"></path><path d="M189.44,317c-5.12-3-13.73-3.63-19.25-1.51l-14.79,5.69A85.52,85.52,0,0,0,137,331.61l-15,11.86a7.51,7.51,0,0,0-3.23,5.8c0,.57,0,2.85,0,3.43,0,2.29,1.39,4.52,4.09,6.07l13.88,8v-3.33L203.34,325Z" style="opacity:0.1"></path><path d="M166.09,332.1c0-7.35,2.3-30.49,7.12-35.9l-15.43-1.71c-7.59,8-16.67,27.18-22.17,38.22,0,0,4.53,1.85,10.12,4.16s13.36,2.31,17.36,0a5.38,5.38,0,0,0,3-4.77Z" style="fill:#37474f"></path><path d="M163.21,296.72c3,1.24,7.16,1.24,9.3,0s2.14-3.65,0-5.38l-3.88-3.14a44.81,44.81,0,0,0-10.85,6.29Z" style="fill:#e0e0e0"></path><path d="M51.91,363a8.81,8.81,0,0,0,8-.15L273.56,239.5a9.09,9.09,0,0,0,4.1-7.11V59.79a8.77,8.77,0,0,0-3.85-6.95,8.78,8.78,0,0,0-7.95.14L52.16,176.34a9.09,9.09,0,0,0-4.1,7.11v172.6A8.79,8.79,0,0,0,51.91,363Z" style="fill:#455a64"></path><path d="M59.86,362.86l213.7-123.37a9.07,9.07,0,0,0,4.1-7.1V59.79c0-2.62-1.84-3.68-4.1-2.37L59.86,180.78a9.09,9.09,0,0,0-4.1,7.11v172.6C55.76,363.1,57.59,364.16,59.86,362.86Z" style="fill:#37474f"></path><path d="M55.76,346.53v14c0,2.61,1.83,3.67,4.1,2.37l213.7-123.37a9.07,9.07,0,0,0,4.1-7.1v-14Z" style="fill:#263238"></path><path d="M61.18,333.55V189.72a5.57,5.57,0,0,1,2.52-4.37l206-118.93c1.39-.8,2.52-.15,2.52,1.46V211.72a5.59,5.59,0,0,1-2.52,4.37L63.7,335C62.31,335.81,61.18,335.16,61.18,333.55Z"></path><path d="M269.81,66.49s0-.07,0-.11l-.09,0L63.7,185.35a5.57,5.57,0,0,0-2.52,4.37V333.55s0,.07,0,.11l.09,0,206-118.92a5.59,5.59,0,0,0,2.52-4.37Z" style="fill:#09AFF4"></path><path d="M269.81,66.49s0-.07,0-.11l-.09,0L63.7,185.35a5.57,5.57,0,0,0-2.52,4.37V333.55s0,.07,0,.11l.09,0,206-118.92a5.59,5.59,0,0,0,2.52-4.37Z" style="fill:#fff;opacity:0.30000000000000004"></path><path d="M49.27,179.4,57,183.83a8.72,8.72,0,0,0-1.21,4V360.49c0,2.38,1.61,3.72,4.1,2.37a8.69,8.69,0,0,1-8,.15,7.9,7.9,0,0,1-3.85-6.46V183.45A8.43,8.43,0,0,1,49.27,179.4Z"></path><path d="M162.07,292l9.28-5.33c.83-.48,1.5-.14,1.5.76a3.23,3.23,0,0,1-1.5,2.5l-9.28,5.33c-.83.48-1.5.14-1.5-.76A3.23,3.23,0,0,1,162.07,292Z" style="fill:#09AFF4"></path><path d="M61.18,316.39l18.24,9.54,15.62-9L61.18,299.2Zm211.06-164.2L193,110.72l-26.3,15.18,105.56,55.23Zm0-21.31L212.34,99.54l-7.89,4.55,67.79,35.47Zm0-45.43-18.61-9.74-15.62,9,34.23,17.91Zm-211,180.41,64.16,33.57,26.29-15.18L61.18,236.92Zm56.7-111.79,136,71.16,15.62-9-136-71.16Zm-38,22,136,71.16L242.12,232l-136-71.15ZM61.18,218.2l107.46,56.23,7.89-4.55L61.18,209.52Z" style="fill:#fff;opacity:0.1"></path></g></g><g id="freepik--Keyboard--inject-311"><g id="freepik--keyboard--inject-311"><g id="freepik--keyboard--inject-311"><path d="M340.53,347.38a2.14,2.14,0,0,0-1.26-1.75l-50.83-29.34a6.67,6.67,0,0,0-6.06,0L138.19,399.7a2.1,2.1,0,0,0-1.25,1.75v5.33a2.1,2.1,0,0,0,1.25,1.75L189,437.87a6.73,6.73,0,0,0,6.07,0l144.2-83.26a2.12,2.12,0,0,0,1.26-1.74Z" style="fill:#263238"></path><path d="M189,432.4l-50.81-29.2c-1.67-1-1.67-2.53,0-3.5l144.19-83.41a6.67,6.67,0,0,1,6.06,0l50.83,29.34c1.68,1,1.68,2.54,0,3.5L195.07,432.4A6.73,6.73,0,0,1,189,432.4Z" style="fill:#37474f"></path><path d="M191.84,433.12v5.45a6.13,6.13,0,0,1-2.85-.7L138.2,408.53a2.14,2.14,0,0,1-1.26-1.75v-5.34a2.14,2.14,0,0,0,1.26,1.75L189,432.41A6.26,6.26,0,0,0,191.84,433.12Z"></path></g><path d="M287.82,327.65a.16.16,0,0,0,0,.15.14.14,0,0,0,0,.14.16.16,0,0,0,0,.15.16.16,0,0,0,0,.15.16.16,0,0,0,0,.15.14.14,0,0,0,0,.14.16.16,0,0,0,0,.15.16.16,0,0,0,0,.15.17.17,0,0,0,0,.2l-1.24-.71a.81.81,0,0,0-.74,0l-4.45,2.57a.19.19,0,0,0-.1.25.16.16,0,0,0,0,.15.16.16,0,0,0,0,.15.16.16,0,0,0,0,.15.14.14,0,0,0,0,.14.16.16,0,0,0,0,.15.16.16,0,0,0,0,.15.16.16,0,0,0,0,.15.14.14,0,0,0,0,.14.16.16,0,0,0,0,.15.16.16,0,0,0,0,.15.17.17,0,0,0,0,.2l-1.24-.71a.79.79,0,0,0-.73,0l-4.46,2.57a.19.19,0,0,0-.1.25.16.16,0,0,0,0,.15.16.16,0,0,0,0,.15.14.14,0,0,0,0,.14.16.16,0,0,0,0,.15.16.16,0,0,0,0,.15.16.16,0,0,0,0,.15.14.14,0,0,0,0,.14.16.16,0,0,0,0,.15.16.16,0,0,0,0,.15.16.16,0,0,0,0,.15.17.17,0,0,0,0,.2l-1.24-.72a.85.85,0,0,0-.73,0l-4.46,2.58a.19.19,0,0,0-.1.25.16.16,0,0,0,0,.15.14.14,0,0,0,0,.14.16.16,0,0,0,0,.15.16.16,0,0,0,0,.15.16.16,0,0,0,0,.15.14.14,0,0,0,0,.14.16.16,0,0,0,0,.15.16.16,0,0,0,0,.15.16.16,0,0,0,0,.15.14.14,0,0,0,0,.14c-.06.11,0,.23.16.32l5.53,3.2a.81.81,0,0,0,.74,0l4.46-2.57a.19.19,0,0,0,.1-.25.2.2,0,0,0,0-.15.19.19,0,0,0,0-.15.2.2,0,0,0,0-.15.17.17,0,0,0,0-.14.19.19,0,0,0,0-.15.2.2,0,0,0,0-.15.19.19,0,0,0,0-.15.17.17,0,0,0,0-.14.2.2,0,0,0,0-.15.2.2,0,0,0,0-.15.21.21,0,0,0,0-.2l1.23.71a.81.81,0,0,0,.74,0l4.46-2.57a.19.19,0,0,0,.1-.25.2.2,0,0,0,0-.15.2.2,0,0,0,0-.15.17.17,0,0,0,0-.14.2.2,0,0,0,0-.15.2.2,0,0,0,0-.15.19.19,0,0,0,0-.15.17.17,0,0,0,0-.14.2.2,0,0,0,0-.15.19.19,0,0,0,0-.15.2.2,0,0,0,0-.15.19.19,0,0,0,0-.2l1.24.71a.84.84,0,0,0,.74,0l4.45-2.58a.19.19,0,0,0,.11-.25.19.19,0,0,0,0-.15.19.19,0,0,0,0-.15.17.17,0,0,0,0-.14.19.19,0,0,0,0-.15.2.2,0,0,0,0-.15.17.17,0,0,0,0-.14.2.2,0,0,0,0-.15.19.19,0,0,0,0-.15.2.2,0,0,0,0-.15.17.17,0,0,0,0-.14.2.2,0,0,0,0-.21l1.24.72a.84.84,0,0,0,.74,0l4.45-2.57a.2.2,0,0,0,.11-.26.2.2,0,0,0,0-.15.17.17,0,0,0,0-.14.2.2,0,0,0,0-.15.2.2,0,0,0,0-.15.2.2,0,0,0,0-.15.17.17,0,0,0,0-.14.2.2,0,0,0,0-.15.2.2,0,0,0,0-.15.19.19,0,0,0,0-.15.17.17,0,0,0,0-.14c.05-.11,0-.23-.16-.32l-5.54-3.2a.81.81,0,0,0-.74,0l-4.45,2.57a.19.19,0,0,0-.1.25.16.16,0,0,0,0,.15A.16.16,0,0,0,287.82,327.65ZM247.39,351a.16.16,0,0,0,0,.15.16.16,0,0,0,0,.15.14.14,0,0,0,0,.14.16.16,0,0,0,0,.15.16.16,0,0,0,0,.15s0,.09,0,.15a.14.14,0,0,0,0,.14.16.16,0,0,0,0,.15c0,.1,0,.23.16.32l5.54,3.2a.82.82,0,0,0,.73,0l4.46-2.57a.2.2,0,0,0,.1-.26s0-.09,0-.15a.14.14,0,0,0,0-.14.16.16,0,0,0,0-.15.16.16,0,0,0,0-.15s0-.09,0-.15a.14.14,0,0,0,0-.14.16.16,0,0,0,0-.15.16.16,0,0,0,0-.15.14.14,0,0,0,0-.14.16.16,0,0,0,0-.15.2.2,0,0,0,0-.21l1.23.72a.81.81,0,0,0,.74,0l4.46-2.57a.2.2,0,0,0,.1-.26.14.14,0,0,0,0-.14.16.16,0,0,0,0-.15.16.16,0,0,0,0-.15.16.16,0,0,0,0-.15.14.14,0,0,0,0-.14.16.16,0,0,0,0-.15.16.16,0,0,0,0-.15s0-.09,0-.15a.14.14,0,0,0,0-.14.16.16,0,0,0,0-.15.18.18,0,0,0,0-.2l1.23.71a.81.81,0,0,0,.74,0l4.46-2.57a.19.19,0,0,0,.1-.25.2.2,0,0,0,0-.15.2.2,0,0,0,0-.15.19.19,0,0,0,0-.15.17.17,0,0,0,0-.14.2.2,0,0,0,0-.15.19.19,0,0,0,0-.15.2.2,0,0,0,0-.15.17.17,0,0,0,0-.14.2.2,0,0,0,0-.15.2.2,0,0,0,0-.15c.05-.1,0-.23-.16-.32l-5.54-3.2a.82.82,0,0,0-.73,0l-4.46,2.58a.19.19,0,0,0-.1.25.16.16,0,0,0,0,.15.14.14,0,0,0,0,.14.16.16,0,0,0,0,.15.16.16,0,0,0,0,.15.16.16,0,0,0,0,.15.14.14,0,0,0,0,.14.16.16,0,0,0,0,.15.16.16,0,0,0,0,.15.16.16,0,0,0,0,.15.14.14,0,0,0,0,.14.18.18,0,0,0,0,.21l-1.24-.72a.82.82,0,0,0-.73,0L254,346.68a.2.2,0,0,0-.1.26s0,.09,0,.15a.14.14,0,0,0,0,.14.16.16,0,0,0,0,.15.16.16,0,0,0,0,.15.14.14,0,0,0,0,.14.16.16,0,0,0,0,.15.16.16,0,0,0,0,.15.16.16,0,0,0,0,.15.14.14,0,0,0,0,.14.16.16,0,0,0,0,.15.2.2,0,0,0,0,.21l-1.23-.72a.81.81,0,0,0-.74,0l-4.46,2.57a.2.2,0,0,0-.1.26.14.14,0,0,0,0,.14A.16.16,0,0,0,247.39,351Zm-9.6-5.69a.16.16,0,0,0,0,.15.14.14,0,0,0,0,.14.16.16,0,0,0,0,.15.16.16,0,0,0,0,.15.16.16,0,0,0,0,.15.14.14,0,0,0,0,.14.16.16,0,0,0,0,.15.16.16,0,0,0,0,.15.16.16,0,0,0,0,.15c-.06.1,0,.22.15.32l5.54,3.19a.81.81,0,0,0,.74,0l4.45-2.57a.19.19,0,0,0,.11-.25.2.2,0,0,0,0-.15.19.19,0,0,0,0-.15.17.17,0,0,0,0-.14.2.2,0,0,0,0-.15.19.19,0,0,0,0-.15.2.2,0,0,0,0-.15.17.17,0,0,0,0-.14.19.19,0,0,0,0-.15.2.2,0,0,0,0-.15.19.19,0,0,0,0-.15.19.19,0,0,0,0-.2l1.24.72a.88.88,0,0,0,.74,0l4.45-2.58a.19.19,0,0,0,.11-.25.2.2,0,0,0,0-.15.19.19,0,0,0,0-.15.17.17,0,0,0,0-.14.2.2,0,0,0,0-.15.2.2,0,0,0,0-.15.17.17,0,0,0,0-.14.19.19,0,0,0,0-.15.2.2,0,0,0,0-.15.2.2,0,0,0,0-.15.17.17,0,0,0,0-.14.2.2,0,0,0,0-.21l1.24.72a.84.84,0,0,0,.74,0l4.45-2.57a.21.21,0,0,0,.11-.26.19.19,0,0,0,0-.15.17.17,0,0,0,0-.14.2.2,0,0,0,0-.15.19.19,0,0,0,0-.15.2.2,0,0,0,0-.15.17.17,0,0,0,0-.14.2.2,0,0,0,0-.15.2.2,0,0,0,0-.15.19.19,0,0,0,0-.15.17.17,0,0,0,0-.14c.05-.11,0-.23-.16-.32l-5.54-3.2a.81.81,0,0,0-.74,0l-4.45,2.57a.21.21,0,0,0-.11.26.17.17,0,0,0,0,.14.19.19,0,0,0,0,.15.2.2,0,0,0,0,.15.17.17,0,0,0,0,.14.19.19,0,0,0,0,.15.2.2,0,0,0,0,.15.19.19,0,0,0,0,.15.17.17,0,0,0,0,.14.2.2,0,0,0,0,.15.19.19,0,0,0,0,.15.19.19,0,0,0,0,.2l-1.24-.71a.81.81,0,0,0-.74,0l-4.45,2.57a.19.19,0,0,0-.1.25.16.16,0,0,0,0,.15.16.16,0,0,0,0,.15.16.16,0,0,0,0,.15.14.14,0,0,0,0,.14.16.16,0,0,0,0,.15.16.16,0,0,0,0,.15.16.16,0,0,0,0,.15.14.14,0,0,0,0,.14.16.16,0,0,0,0,.15.16.16,0,0,0,0,.15.17.17,0,0,0,0,.2l-1.24-.71a.81.81,0,0,0-.74,0l-4.45,2.57a.19.19,0,0,0-.1.25A.16.16,0,0,0,237.79,345.3Zm57.94-13.38a.16.16,0,0,0,0,.15.16.16,0,0,0,0,.15.16.16,0,0,0,0,.15.14.14,0,0,0,0,.14.16.16,0,0,0,0,.15.16.16,0,0,0,0,.15s0,.09,0,.15a.14.14,0,0,0,0,.14.16.16,0,0,0,0,.15.16.16,0,0,0,0,.15.19.19,0,0,0,0,.2l-1.23-.71a.81.81,0,0,0-.74,0l-4.46,2.57a.19.19,0,0,0-.1.25.16.16,0,0,0,0,.15.16.16,0,0,0,0,.15.14.14,0,0,0,0,.14.16.16,0,0,0,0,.15.16.16,0,0,0,0,.15.16.16,0,0,0,0,.15.14.14,0,0,0,0,.14.16.16,0,0,0,0,.15.16.16,0,0,0,0,.15.16.16,0,0,0,0,.15.19.19,0,0,0,0,.2l-1.23-.72a.88.88,0,0,0-.74,0l-4.46,2.58a.19.19,0,0,0-.1.25.2.2,0,0,0,0,.15.17.17,0,0,0,0,.14.19.19,0,0,0,0,.15.2.2,0,0,0,0,.15.19.19,0,0,0,0,.15.17.17,0,0,0,0,.14.19.19,0,0,0,0,.15.2.2,0,0,0,0,.15.19.19,0,0,0,0,.15.17.17,0,0,0,0,.14.2.2,0,0,0,0,.21l-1.24-.72a.84.84,0,0,0-.74,0l-4.46,2.57a.2.2,0,0,0-.1.26.19.19,0,0,0,0,.15.17.17,0,0,0,0,.14.19.19,0,0,0,0,.15.19.19,0,0,0,0,.15.19.19,0,0,0,0,.15.17.17,0,0,0,0,.14.19.19,0,0,0,0,.15.19.19,0,0,0,0,.15.17.17,0,0,0,0,.14.19.19,0,0,0,0,.15c-.05.11,0,.23.16.32l5.54,3.2a.79.79,0,0,0,.73,0l4.46-2.57a.2.2,0,0,0,.1-.26.14.14,0,0,0,0-.14.16.16,0,0,0,0-.15.16.16,0,0,0,0-.15.16.16,0,0,0,0-.15.14.14,0,0,0,0-.14.16.16,0,0,0,0-.15.16.16,0,0,0,0-.15s0-.09,0-.15a.14.14,0,0,0,0-.14.16.16,0,0,0,0-.15.17.17,0,0,0,0-.2l1.24.71a.79.79,0,0,0,.73,0l4.46-2.57a.19.19,0,0,0,.1-.25.16.16,0,0,0,0-.15.16.16,0,0,0,0-.15.16.16,0,0,0,0-.15.14.14,0,0,0,0-.14.16.16,0,0,0,0-.15.16.16,0,0,0,0-.15.16.16,0,0,0,0-.15.14.14,0,0,0,0-.14.16.16,0,0,0,0-.15.16.16,0,0,0,0-.15.17.17,0,0,0,0-.2l1.24.71a.79.79,0,0,0,.73,0l4.46-2.57a.19.19,0,0,0,.1-.25.16.16,0,0,0,0-.15.16.16,0,0,0,0-.15.14.14,0,0,0,0-.14.16.16,0,0,0,0-.15.16.16,0,0,0,0-.15.16.16,0,0,0,0-.15.14.14,0,0,0,0-.14.16.16,0,0,0,0-.15.16.16,0,0,0,0-.15.16.16,0,0,0,0-.15.19.19,0,0,0,0-.2l2.11,1.22a.8.8,0,0,0-.61,0L297.24,340a.19.19,0,0,0-.11.25.2.2,0,0,0,0,.15.17.17,0,0,0,0,.14.19.19,0,0,0,0,.15.2.2,0,0,0,0,.15.19.19,0,0,0,0,.15.17.17,0,0,0,0,.14.2.2,0,0,0,0,.15.19.19,0,0,0,0,.15.19.19,0,0,0,0,.15.17.17,0,0,0,0,.14.2.2,0,0,0,0,.21l-1.24-.72a.84.84,0,0,0-.74,0l-4.45,2.57a.2.2,0,0,0-.11.26.19.19,0,0,0,0,.15.17.17,0,0,0,0,.14.19.19,0,0,0,0,.15.19.19,0,0,0,0,.15.19.19,0,0,0,0,.15.17.17,0,0,0,0,.14.19.19,0,0,0,0,.15.19.19,0,0,0,0,.15.17.17,0,0,0,0,.14.19.19,0,0,0,0,.15.2.2,0,0,0,0,.21l-1.24-.72a.81.81,0,0,0-.74,0l-4.45,2.57a.2.2,0,0,0-.11.26.17.17,0,0,0,0,.14.2.2,0,0,0,0,.15.19.19,0,0,0,0,.15.19.19,0,0,0,0,.15.17.17,0,0,0,0,.14.2.2,0,0,0,0,.15.19.19,0,0,0,0,.15.19.19,0,0,0,0,.15.17.17,0,0,0,0,.14.19.19,0,0,0,0,.15c-.05.1,0,.23.16.32l5.54,3.2a.84.84,0,0,0,.74,0l4.45-2.57a.21.21,0,0,0,.11-.26.22.22,0,0,0,0-.14.26.26,0,0,0,0-.15.26.26,0,0,0,0-.15.26.26,0,0,0,0-.15.22.22,0,0,0,0-.14.26.26,0,0,0,0-.15.26.26,0,0,0,0-.15.26.26,0,0,0,0-.15.22.22,0,0,0,0-.14.26.26,0,0,0,0-.15.2.2,0,0,0,0-.21l1.24.72a.81.81,0,0,0,.74,0l4.45-2.57a.2.2,0,0,0,.1-.26.14.14,0,0,0,0-.14.16.16,0,0,0,0-.15.16.16,0,0,0,0-.15.16.16,0,0,0,0-.15.14.14,0,0,0,0-.14.16.16,0,0,0,0-.15.16.16,0,0,0,0-.15.16.16,0,0,0,0-.15.14.14,0,0,0,0-.14.16.16,0,0,0,0-.15.17.17,0,0,0,0-.2l1.24.71a.81.81,0,0,0,.74,0L308,342.7a.19.19,0,0,0,.1-.25.16.16,0,0,0,0-.15.16.16,0,0,0,0-.15.16.16,0,0,0,0-.15.14.14,0,0,0,0-.14.16.16,0,0,0,0-.15.16.16,0,0,0,0-.15.16.16,0,0,0,0-.15.14.14,0,0,0,0-.14.16.16,0,0,0,0-.15.16.16,0,0,0,0-.15.17.17,0,0,0,0-.2l1.24.71a.79.79,0,0,0,.73,0l4.46-2.57a.19.19,0,0,0,.1-.25.16.16,0,0,0,0-.15.16.16,0,0,0,0-.15.14.14,0,0,0,0-.14.16.16,0,0,0,0-.15.16.16,0,0,0,0-.15.16.16,0,0,0,0-.15.14.14,0,0,0,0-.14.16.16,0,0,0,0-.15.16.16,0,0,0,0-.15.16.16,0,0,0,0-.15c.06-.1,0-.22-.15-.32L301,329.13a.81.81,0,0,0-.74,0l-4.46,2.57A.19.19,0,0,0,295.73,331.92Zm-21,20.85,4.46-2.57a.2.2,0,0,0,.1-.26.14.14,0,0,0,0-.14.16.16,0,0,0,0-.15.16.16,0,0,0,0-.15.16.16,0,0,0,0-.15.14.14,0,0,0,0-.14.16.16,0,0,0,0-.15.16.16,0,0,0,0-.15.16.16,0,0,0,0-.15.14.14,0,0,0,0-.14.16.16,0,0,0,0-.15c.06-.1,0-.23-.15-.32l-5.54-3.2a.84.84,0,0,0-.74,0l-4.46,2.57a.2.2,0,0,0-.1.26.17.17,0,0,0,0,.14.19.19,0,0,0,0,.15.19.19,0,0,0,0,.15.2.2,0,0,0,0,.15.17.17,0,0,0,0,.14.19.19,0,0,0,0,.15.2.2,0,0,0,0,.15.19.19,0,0,0,0,.15.17.17,0,0,0,0,.14.19.19,0,0,0,0,.15.2.2,0,0,0,0,.21l-1.24-.72a.81.81,0,0,0-.74,0l-4.46,2.57a.2.2,0,0,0-.1.26.17.17,0,0,0,0,.14.19.19,0,0,0,0,.15.19.19,0,0,0,0,.15.19.19,0,0,0,0,.15.17.17,0,0,0,0,.14.19.19,0,0,0,0,.15.19.19,0,0,0,0,.15.19.19,0,0,0,0,.15.17.17,0,0,0,0,.14.19.19,0,0,0,0,.15.19.19,0,0,0,0,.2l-1.24-.71a.81.81,0,0,0-.74,0L255.41,355c-.12.07-.15.16-.11.25a.19.19,0,0,0,0,.15.19.19,0,0,0,0,.15.2.2,0,0,0,0,.15.17.17,0,0,0,0,.14.19.19,0,0,0,0,.15.19.19,0,0,0,0,.15.19.19,0,0,0,0,.15.17.17,0,0,0,0,.14.19.19,0,0,0,0,.15.19.19,0,0,0,0,.15c-.05.1,0,.23.16.32l5.54,3.2a.84.84,0,0,0,.74,0l4.45-2.58a.19.19,0,0,0,.1-.25.16.16,0,0,0,0-.15.14.14,0,0,0,0-.14.16.16,0,0,0,0-.15.16.16,0,0,0,0-.15.16.16,0,0,0,0-.15.14.14,0,0,0,0-.14.16.16,0,0,0,0-.15.16.16,0,0,0,0-.15.16.16,0,0,0,0-.15.14.14,0,0,0,0-.14.18.18,0,0,0,0-.21l1.24.72a.82.82,0,0,0,.73,0L272.7,354a.2.2,0,0,0,.1-.26.16.16,0,0,0,0-.15.14.14,0,0,0,0-.14.16.16,0,0,0,0-.15.16.16,0,0,0,0-.15s0-.09,0-.15a.14.14,0,0,0,0-.14.16.16,0,0,0,0-.15.16.16,0,0,0,0-.15.14.14,0,0,0,0-.14.16.16,0,0,0,0-.15.18.18,0,0,0,0-.21l1.24.72A.82.82,0,0,0,274.75,352.77Zm-64.44,8.39a.16.16,0,0,0,0,.15.16.16,0,0,0,0,.15.16.16,0,0,0,0,.15.14.14,0,0,0,0,.14.16.16,0,0,0,0,.15.16.16,0,0,0,0,.15s0,.09,0,.15a.14.14,0,0,0,0,.14.16.16,0,0,0,0,.15c-.05.1,0,.23.16.32L216,366a.84.84,0,0,0,.74,0l4.46-2.57a.2.2,0,0,0,.1-.26.16.16,0,0,0,0-.15.14.14,0,0,0,0-.14.16.16,0,0,0,0-.15.16.16,0,0,0,0-.15s0-.09,0-.15a.14.14,0,0,0,0-.14.16.16,0,0,0,0-.15.16.16,0,0,0,0-.15.14.14,0,0,0,0-.14.16.16,0,0,0,0-.15.2.2,0,0,0,0-.21l1.23.72a.81.81,0,0,0,.74,0l4.46-2.57a.2.2,0,0,0,.1-.26.14.14,0,0,0,0-.14.16.16,0,0,0,0-.15.16.16,0,0,0,0-.15.16.16,0,0,0,0-.15.14.14,0,0,0,0-.14.16.16,0,0,0,0-.15.16.16,0,0,0,0-.15.16.16,0,0,0,0-.15.14.14,0,0,0,0-.14.16.16,0,0,0,0-.15.18.18,0,0,0,0-.2l1.23.71a.81.81,0,0,0,.74,0l4.46-2.57a.19.19,0,0,0,.1-.25.2.2,0,0,0,0-.15.2.2,0,0,0,0-.15.19.19,0,0,0,0-.15.17.17,0,0,0,0-.14.16.16,0,0,0,0-.15.16.16,0,0,0,0-.15.16.16,0,0,0,0-.15.17.17,0,0,0,0-.14.16.16,0,0,0,0-.15.16.16,0,0,0,0-.15.18.18,0,0,0,0-.2l1.23.71a.81.81,0,0,0,.74,0l4.46-2.57a.19.19,0,0,0,.1-.25.2.2,0,0,0,0-.15.19.19,0,0,0,0-.15.19.19,0,0,0,0-.15.17.17,0,0,0,0-.14.19.19,0,0,0,0-.15.2.2,0,0,0,0-.15.17.17,0,0,0,0-.14.19.19,0,0,0,0-.15.2.2,0,0,0,0-.15.19.19,0,0,0,0-.15c0-.1,0-.23-.16-.32L235.13,347a.79.79,0,0,0-.73,0l-4.46,2.57a.19.19,0,0,0-.1.25.16.16,0,0,0,0,.15.16.16,0,0,0,0,.15.14.14,0,0,0,0,.14.16.16,0,0,0,0,.15.16.16,0,0,0,0,.15s0,.09,0,.15a.14.14,0,0,0,0,.14.16.16,0,0,0,0,.15.16.16,0,0,0,0,.15s0,.09,0,.15a.17.17,0,0,0,0,.2l-1.24-.72a.82.82,0,0,0-.73,0l-4.46,2.58a.19.19,0,0,0-.1.25.16.16,0,0,0,0,.15.14.14,0,0,0,0,.14.16.16,0,0,0,0,.15.16.16,0,0,0,0,.15.16.16,0,0,0,0,.15.14.14,0,0,0,0,.14.16.16,0,0,0,0,.15.16.16,0,0,0,0,.15.16.16,0,0,0,0,.15.14.14,0,0,0,0,.14.18.18,0,0,0,0,.21l-1.24-.72a.82.82,0,0,0-.73,0L216.92,357a.2.2,0,0,0-.1.26.14.14,0,0,0,0,.14.16.16,0,0,0,0,.15.16.16,0,0,0,0,.15.16.16,0,0,0,0,.15.14.14,0,0,0,0,.14.16.16,0,0,0,0,.15.16.16,0,0,0,0,.15.16.16,0,0,0,0,.15.14.14,0,0,0,0,.14.16.16,0,0,0,0,.15.2.2,0,0,0,0,.21l-1.23-.72a.81.81,0,0,0-.74,0l-4.46,2.57a.2.2,0,0,0-.1.26A.14.14,0,0,0,210.31,361.16Zm67.32-.22a.17.17,0,0,0,0,.14.19.19,0,0,0,0,.15.19.19,0,0,0,0,.15.2.2,0,0,0,0,.15.17.17,0,0,0,0,.14.2.2,0,0,0,0,.15.19.19,0,0,0,0,.15.2.2,0,0,0,0,.15c-.05.1,0,.22.16.32l5.54,3.19a.81.81,0,0,0,.74,0l4.45-2.57a1.06,1.06,0,0,0,.11-.55.17.17,0,0,0,0-.14.19.19,0,0,0,0-.15.19.19,0,0,0,0-.15.2.2,0,0,0,0-.15.17.17,0,0,0,0-.14.19.19,0,0,0,0-.15.2.2,0,0,0,0-.15.2.2,0,0,0,0-.15c.05-.1,0-.22-.16-.32l-5.54-3.19a.81.81,0,0,0-.74,0l-4.45,2.57a.2.2,0,0,0-.11.25.19.19,0,0,0,0,.15A.19.19,0,0,0,277.63,360.94Zm25.42,2.56a.2.2,0,0,0,0-.15.17.17,0,0,0,0-.14.2.2,0,0,0,0-.15.2.2,0,0,0,0-.15.19.19,0,0,0,0-.15.17.17,0,0,0,0-.14.2.2,0,0,0,0-.15.19.19,0,0,0,0-.15.2.2,0,0,0,0-.15c.05-.1,0-.22-.16-.32l-5.54-3.19a.81.81,0,0,0-.74,0l-4.45,2.57a.19.19,0,0,0-.1.25.16.16,0,0,0,0,.15.16.16,0,0,0,0,.15.14.14,0,0,0,0,.14.16.16,0,0,0,0,.15.16.16,0,0,0,0,.15.16.16,0,0,0,0,.15.14.14,0,0,0,0,.14.16.16,0,0,0,0,.15.16.16,0,0,0,0,.15.16.16,0,0,0,0,.15.17.17,0,0,0,0,.2l-1.24-.72a.85.85,0,0,0-.73,0L285.65,365a.19.19,0,0,0-.1.25.16.16,0,0,0,0,.15.14.14,0,0,0,0,.14.16.16,0,0,0,0,.15.16.16,0,0,0,0,.15.16.16,0,0,0,0,.15.14.14,0,0,0,0,.14.16.16,0,0,0,0,.15.16.16,0,0,0,0,.15.16.16,0,0,0,0,.15.14.14,0,0,0,0,.14.18.18,0,0,0,0,.21l-1.24-.72a.82.82,0,0,0-.73,0l-4.46,2.57a.2.2,0,0,0-.1.26.16.16,0,0,0,0,.15.14.14,0,0,0,0,.14.16.16,0,0,0,0,.15.16.16,0,0,0,0,.15s0,.09,0,.15a.14.14,0,0,0,0,.14.16.16,0,0,0,0,.15.16.16,0,0,0,0,.15s0,.09,0,.15a.14.14,0,0,0,0,.14c-.06.11,0,.23.15.32l5.54,3.2a.81.81,0,0,0,.74,0l4.46-2.57a.2.2,0,0,0,.1-.26.17.17,0,0,0,0-.14.2.2,0,0,0,0-.15.2.2,0,0,0,0-.15.19.19,0,0,0,0-.15.17.17,0,0,0,0-.14.19.19,0,0,0,0-.15.2.2,0,0,0,0-.15.17.17,0,0,0,0-.14.19.19,0,0,0,0-.15.2.2,0,0,0,0-.15.19.19,0,0,0,0-.2l1.24.71a.81.81,0,0,0,.74,0l4.46-2.57a.19.19,0,0,0,.1-.25.2.2,0,0,0,0-.15.2.2,0,0,0,0-.15.2.2,0,0,0,0-.15.17.17,0,0,0,0-.14.2.2,0,0,0,0-.15.2.2,0,0,0,0-.15.19.19,0,0,0,0-.15.17.17,0,0,0,0-.14.2.2,0,0,0,0-.15.19.19,0,0,0,0-.15.19.19,0,0,0,0-.2l1.24.71a.81.81,0,0,0,.74,0l4.45-2.57a.19.19,0,0,0,.11-.25A.2.2,0,0,0,303.05,363.5ZM181.44,377.83a.16.16,0,0,0,0,.15.16.16,0,0,0,0,.15.14.14,0,0,0,0,.14.16.16,0,0,0,0,.15.16.16,0,0,0,0,.15.16.16,0,0,0,0,.15.14.14,0,0,0,0,.14.16.16,0,0,0,0,.15.16.16,0,0,0,0,.15c-.05.1,0,.23.16.32l5.53,3.2a.84.84,0,0,0,.74,0l4.46-2.58a.19.19,0,0,0,.1-.25.16.16,0,0,0,0-.15.14.14,0,0,0,0-.14.16.16,0,0,0,0-.15.16.16,0,0,0,0-.15.16.16,0,0,0,0-.15.14.14,0,0,0,0-.14.16.16,0,0,0,0-.15.16.16,0,0,0,0-.15.16.16,0,0,0,0-.15.14.14,0,0,0,0-.14.2.2,0,0,0,0-.21l1.23.72a.84.84,0,0,0,.74,0l4.46-2.57a.2.2,0,0,0,.1-.26s0-.09,0-.15a.14.14,0,0,0,0-.14.16.16,0,0,0,0-.15.16.16,0,0,0,0-.15.14.14,0,0,0,0-.14.16.16,0,0,0,0-.15.16.16,0,0,0,0-.15.16.16,0,0,0,0-.15.14.14,0,0,0,0-.14.16.16,0,0,0,0-.15.2.2,0,0,0,0-.21l1.23.72a.84.84,0,0,0,.74,0l4.46-2.57a.2.2,0,0,0,.1-.26.17.17,0,0,0,0-.14.2.2,0,0,0,0-.15.19.19,0,0,0,0-.15.2.2,0,0,0,0-.15.17.17,0,0,0,0-.14.19.19,0,0,0,0-.15.2.2,0,0,0,0-.15.2.2,0,0,0,0-.15.17.17,0,0,0,0-.14.2.2,0,0,0,0-.15.21.21,0,0,0,0-.2l1.23.71a.81.81,0,0,0,.74,0l4.46-2.57a.19.19,0,0,0,.1-.25.2.2,0,0,0,0-.15.2.2,0,0,0,0-.15.19.19,0,0,0,0-.15.17.17,0,0,0,0-.14.2.2,0,0,0,0-.15.19.19,0,0,0,0-.15.2.2,0,0,0,0-.15.17.17,0,0,0,0-.14.2.2,0,0,0,0-.15.19.19,0,0,0,0-.15c0-.1,0-.23-.16-.32l-5.54-3.2a.82.82,0,0,0-.73,0l-4.46,2.57a.2.2,0,0,0-.1.26.16.16,0,0,0,0,.15.14.14,0,0,0,0,.14.16.16,0,0,0,0,.15.16.16,0,0,0,0,.15.16.16,0,0,0,0,.15.14.14,0,0,0,0,.14.16.16,0,0,0,0,.15.16.16,0,0,0,0,.15.16.16,0,0,0,0,.15.14.14,0,0,0,0,.14.18.18,0,0,0,0,.21l-1.24-.72a.82.82,0,0,0-.73,0l-4.46,2.57a.2.2,0,0,0-.1.26.14.14,0,0,0,0,.14.16.16,0,0,0,0,.15.16.16,0,0,0,0,.15.16.16,0,0,0,0,.15.14.14,0,0,0,0,.14.16.16,0,0,0,0,.15.16.16,0,0,0,0,.15.16.16,0,0,0,0,.15.14.14,0,0,0,0,.14.16.16,0,0,0,0,.15.18.18,0,0,0,0,.21l-1.24-.72a.79.79,0,0,0-.73,0l-4.46,2.57a.2.2,0,0,0-.1.26.14.14,0,0,0,0,.14.16.16,0,0,0,0,.15.16.16,0,0,0,0,.15s0,.09,0,.15a.14.14,0,0,0,0,.14.16.16,0,0,0,0,.15.16.16,0,0,0,0,.15.14.14,0,0,0,0,.14.16.16,0,0,0,0,.15.16.16,0,0,0,0,.15.18.18,0,0,0,0,.2l-1.23-.71a.81.81,0,0,0-.74,0l-4.46,2.57a.19.19,0,0,0-.1.25A.16.16,0,0,0,181.44,377.83Zm100.71-2.26a.2.2,0,0,0,0-.15.2.2,0,0,0,0-.15.19.19,0,0,0,0-.15.17.17,0,0,0,0-.14.2.2,0,0,0,0-.15.19.19,0,0,0,0-.15.19.19,0,0,0,0-.15.17.17,0,0,0,0-.14.19.19,0,0,0,0-.15c.05-.1,0-.23-.16-.32l-5.54-3.2a.82.82,0,0,0-.73,0l-6.86,4a.19.19,0,0,0-.1.25.19.19,0,0,0,0,.15.19.19,0,0,0,0,.15.17.17,0,0,0,0,.14.19.19,0,0,0,0,.15.19.19,0,0,0,0,.15.19.19,0,0,0,0,.15.17.17,0,0,0,0,.14.19.19,0,0,0,0,.15.19.19,0,0,0,0,.15.19.19,0,0,0,0,.15.21.21,0,0,0,0,.2l-1.23-.71a.81.81,0,0,0-.74,0L261.33,379c-.12.07-.15.16-.11.25a.19.19,0,0,0,0,.15.2.2,0,0,0,0,.15.19.19,0,0,0,0,.15.17.17,0,0,0,0,.14.2.2,0,0,0,0,.15.19.19,0,0,0,0,.15.2.2,0,0,0,0,.15.17.17,0,0,0,0,.14.19.19,0,0,0,0,.15.2.2,0,0,0,0,.15.19.19,0,0,0,0,.2l-1.24-.71a.81.81,0,0,0-.74,0l-5.48,3.16a.2.2,0,0,0-.11.26.17.17,0,0,0,0,.14.2.2,0,0,0,0,.15.19.19,0,0,0,0,.15.19.19,0,0,0,0,.15.17.17,0,0,0,0,.14.19.19,0,0,0,0,.15.19.19,0,0,0,0,.15.19.19,0,0,0,0,.15.17.17,0,0,0,0,.14.19.19,0,0,0,0,.15.19.19,0,0,0,0,.2l-1.24-.71a.81.81,0,0,0-.74,0l-5.48,3.16a.2.2,0,0,0-.1.26.14.14,0,0,0,0,.14.16.16,0,0,0,0,.15.16.16,0,0,0,0,.15.16.16,0,0,0,0,.15.14.14,0,0,0,0,.14.16.16,0,0,0,0,.15.16.16,0,0,0,0,.15.16.16,0,0,0,0,.15.14.14,0,0,0,0,.14.16.16,0,0,0,0,.15.18.18,0,0,0,0,.21l-1.24-.72a.79.79,0,0,0-.73,0l-36.66,21.17a.52.52,0,0,0-.11.4.17.17,0,0,0,0,.14.2.2,0,0,0,0,.15.2.2,0,0,0,0,.15.19.19,0,0,0,0,.15.17.17,0,0,0,0,.14.2.2,0,0,0,0,.15.19.19,0,0,0,0,.15.19.19,0,0,0,0,.15.17.17,0,0,0,0,.14.2.2,0,0,0,0,.21l-1.24-.72a.84.84,0,0,0-.74,0L200,414.41a.19.19,0,0,0-.1.25.16.16,0,0,0,0,.15.16.16,0,0,0,0,.15.14.14,0,0,0,0,.14.16.16,0,0,0,0,.15.16.16,0,0,0,0,.15s0,.09,0,.15a.14.14,0,0,0,0,.14.16.16,0,0,0,0,.15.16.16,0,0,0,0,.15s0,.09,0,.15a.17.17,0,0,0,0,.2l-1.24-.72a.84.84,0,0,0-.74,0l-5.48,3.17a.19.19,0,0,0-.1.25.16.16,0,0,0,0,.15.16.16,0,0,0,0,.15.14.14,0,0,0,0,.14.16.16,0,0,0,0,.15.16.16,0,0,0,0,.15.16.16,0,0,0,0,.15.14.14,0,0,0,0,.14.16.16,0,0,0,0,.15.16.16,0,0,0,0,.15.16.16,0,0,0,0,.15.17.17,0,0,0,0,.2l-1.23-.71a.81.81,0,0,0-.74,0l-6.86,3.95a.2.2,0,0,0-.1.26.17.17,0,0,0,0,.14.19.19,0,0,0,0,.15.19.19,0,0,0,0,.15.19.19,0,0,0,0,.15.17.17,0,0,0,0,.14.19.19,0,0,0,0,.15.19.19,0,0,0,0,.15.17.17,0,0,0,0,.14.19.19,0,0,0,0,.15.19.19,0,0,0,0,.15c0,.1,0,.23.16.32l5.54,3.2a.82.82,0,0,0,.73,0l6.86-4a.19.19,0,0,0,.1-.25.16.16,0,0,0,0-.15.16.16,0,0,0,0-.15.14.14,0,0,0,0-.14.16.16,0,0,0,0-.15.16.16,0,0,0,0-.15.16.16,0,0,0,0-.15.14.14,0,0,0,0-.14.16.16,0,0,0,0-.15.16.16,0,0,0,0-.15.16.16,0,0,0,0-.15.19.19,0,0,0,0-.2l1.23.71a.81.81,0,0,0,.74,0l5.48-3.16c.12-.07.15-.16.11-.25a.2.2,0,0,0,0-.15.19.19,0,0,0,0-.15.2.2,0,0,0,0-.15.17.17,0,0,0,0-.14.2.2,0,0,0,0-.15.2.2,0,0,0,0-.15.19.19,0,0,0,0-.15.17.17,0,0,0,0-.14.2.2,0,0,0,0-.15.19.19,0,0,0,0-.15.19.19,0,0,0,0-.2l1.24.71a.81.81,0,0,0,.74,0l5.48-3.16a.2.2,0,0,0,.11-.26.17.17,0,0,0,0-.14.2.2,0,0,0,0-.15.2.2,0,0,0,0-.15.19.19,0,0,0,0-.15.17.17,0,0,0,0-.14.2.2,0,0,0,0-.15.19.19,0,0,0,0-.15.19.19,0,0,0,0-.15.17.17,0,0,0,0-.14.19.19,0,0,0,0-.15.19.19,0,0,0,0-.2l1.24.71a.81.81,0,0,0,.74,0l36.66-21.16a.2.2,0,0,0,.1-.26.19.19,0,0,0,0-.15.17.17,0,0,0,0-.14.2.2,0,0,0,0-.15.19.19,0,0,0,0-.15.17.17,0,0,0,0-.14.19.19,0,0,0,0-.15.2.2,0,0,0,0-.15.2.2,0,0,0,0-.15.17.17,0,0,0,0-.14.2.2,0,0,0,0-.15.2.2,0,0,0,0-.21l1.24.72a.81.81,0,0,0,.74,0l5.48-3.17a.52.52,0,0,0,.11-.4.17.17,0,0,0,0-.14.2.2,0,0,0,0-.15.19.19,0,0,0,0-.15.2.2,0,0,0,0-.15.17.17,0,0,0,0-.14.2.2,0,0,0,0-.15.19.19,0,0,0,0-.15.2.2,0,0,0,0-.15.17.17,0,0,0,0-.14.2.2,0,0,0,0-.21l1.24.72a.84.84,0,0,0,.74,0l5.48-3.17a.2.2,0,0,0,.11-.25.2.2,0,0,0,0-.15.2.2,0,0,0,0-.15.17.17,0,0,0,0-.14.2.2,0,0,0,0-.15.2.2,0,0,0,0-.15.19.19,0,0,0,0-.15.17.17,0,0,0,0-.14.19.19,0,0,0,0-.15.2.2,0,0,0,0-.15.2.2,0,0,0,0-.15.19.19,0,0,0,0-.2l1.24.72a.84.84,0,0,0,.74,0l5.48-3.17a.19.19,0,0,0,.1-.25.16.16,0,0,0,0-.15.16.16,0,0,0,0-.15s0-.09,0-.15a.14.14,0,0,0,0-.14.16.16,0,0,0,0-.15.16.16,0,0,0,0-.15.14.14,0,0,0,0-.14.16.16,0,0,0,0-.15.16.16,0,0,0,0-.15.16.16,0,0,0,0-.15.17.17,0,0,0,0-.2l1.24.71a.79.79,0,0,0,.73,0l6.86-3.95a.2.2,0,0,0,.1-.26A.17.17,0,0,0,282.15,375.57Zm48.31-27.75a.17.17,0,0,0,0-.14.19.19,0,0,0,0-.15.2.2,0,0,0,0-.15.2.2,0,0,0,0-.15.17.17,0,0,0,0-.14.2.2,0,0,0,0-.15.2.2,0,0,0,0-.15.19.19,0,0,0,0-.15.17.17,0,0,0,0-.14.2.2,0,0,0,0-.15c.05-.1,0-.23-.16-.32l-13.45-7.77a.84.84,0,0,0-.74,0l-4.45,2.58a.52.52,0,0,0-.11.4.17.17,0,0,0,0,.14.19.19,0,0,0,0,.15.19.19,0,0,0,0,.15.2.2,0,0,0,0,.15.17.17,0,0,0,0,.14.19.19,0,0,0,0,.15.2.2,0,0,0,0,.15.19.19,0,0,0,0,.15.17.17,0,0,0,0,.14.2.2,0,0,0,0,.21l-1.24-.72a.84.84,0,0,0-.74,0l-4.45,2.57a.2.2,0,0,0-.11.26.19.19,0,0,0,0,.15.17.17,0,0,0,0,.14.19.19,0,0,0,0,.15.2.2,0,0,0,0,.15.17.17,0,0,0,0,.14.19.19,0,0,0,0,.15.2.2,0,0,0,0,.15.19.19,0,0,0,0,.15.17.17,0,0,0,0,.14.2.2,0,0,0,0,.15.2.2,0,0,0,0,.21l-1.24-.72a.81.81,0,0,0-.74,0l-4.45,2.57a.2.2,0,0,0-.11.26.17.17,0,0,0,0,.14.2.2,0,0,0,0,.15.19.19,0,0,0,0,.15.19.19,0,0,0,0,.15.17.17,0,0,0,0,.14.19.19,0,0,0,0,.15.19.19,0,0,0,0,.15.19.19,0,0,0,0,.15.17.17,0,0,0,0,.14.19.19,0,0,0,0,.15.19.19,0,0,0,0,.2l-1.24-.71a.81.81,0,0,0-.74,0l-4.45,2.57a1.81,1.81,0,0,0-.11.7.17.17,0,0,0,0,.14.2.2,0,0,0,0,.15.19.19,0,0,0,0,.15.2.2,0,0,0,0,.15.17.17,0,0,0,0,.14.19.19,0,0,0,0,.15.2.2,0,0,0,0,.15c0,.1,0,.23.16.32l5.54,3.2a.84.84,0,0,0,.74,0l4.45-2.58a.52.52,0,0,0,.11-.4.17.17,0,0,0,0-.14.19.19,0,0,0,0-.15.2.2,0,0,0,0-.15.2.2,0,0,0,0-.15.17.17,0,0,0,0-.14.2.2,0,0,0,0-.15.2.2,0,0,0,0-.15.19.19,0,0,0,0-.15.17.17,0,0,0,0-.14.2.2,0,0,0,0-.21l1.24.72a.84.84,0,0,0,.74,0l4.45-2.57a.2.2,0,0,0,.11-.26.19.19,0,0,0,0-.15.17.17,0,0,0,0-.14.2.2,0,0,0,0-.15.19.19,0,0,0,0-.15.19.19,0,0,0,0-.15.17.17,0,0,0,0-.14.19.19,0,0,0,0-.15.2.2,0,0,0,0-.15.17.17,0,0,0,0-.14.2.2,0,0,0,0-.15.2.2,0,0,0,0-.21l1.24.72a.81.81,0,0,0,.74,0l4.45-2.57A.2.2,0,0,0,316,347a.17.17,0,0,0,0-.14.19.19,0,0,0,0-.15.2.2,0,0,0,0-.15.2.2,0,0,0,0-.15.17.17,0,0,0,0-.14.19.19,0,0,0,0-.15.2.2,0,0,0,0-.15.19.19,0,0,0,0-.15.17.17,0,0,0,0-.14.2.2,0,0,0,0-.15.19.19,0,0,0,0-.2l2.11,1.22a.76.76,0,0,0-.61,0l-4.45,2.57a.21.21,0,0,0-.11.26.22.22,0,0,0,0,.14.26.26,0,0,0,0,.15.26.26,0,0,0,0,.15.25.25,0,0,0,0,.15.22.22,0,0,0,0,.14.26.26,0,0,0,0,.15.26.26,0,0,0,0,.15.25.25,0,0,0,0,.15.22.22,0,0,0,0,.14.26.26,0,0,0,0,.15.19.19,0,0,0,0,.2l-1.24-.71a.81.81,0,0,0-.74,0l-11,6.33a.19.19,0,0,0-.1.25.16.16,0,0,0,0,.15.16.16,0,0,0,0,.15.14.14,0,0,0,0,.14.16.16,0,0,0,0,.15.16.16,0,0,0,0,.15.16.16,0,0,0,0,.15.14.14,0,0,0,0,.14.16.16,0,0,0,0,.15.16.16,0,0,0,0,.15.16.16,0,0,0,0,.15c-.06.1,0,.22.15.32l5.54,3.19a.81.81,0,0,0,.74,0l11-6.33a.19.19,0,0,0,.11-.25.19.19,0,0,0,0-.15.17.17,0,0,0,0-.14.2.2,0,0,0,0-.15.19.19,0,0,0,0-.15.19.19,0,0,0,0-.15.17.17,0,0,0,0-.14.2.2,0,0,0,0-.15.19.19,0,0,0,0-.15.2.2,0,0,0,0-.15.17.17,0,0,0,0-.14.2.2,0,0,0,0-.21l1.24.72a.84.84,0,0,0,.74,0l4.45-2.57a.54.54,0,0,0,.11-.41.17.17,0,0,0,0-.14.19.19,0,0,0,0-.15.2.2,0,0,0,0-.15.19.19,0,0,0,0-.15.17.17,0,0,0,0-.14.2.2,0,0,0,0-.15.19.19,0,0,0,0-.15.17.17,0,0,0,0-.14.2.2,0,0,0,0-.15.2.2,0,0,0,0-.21l1.24.72a.81.81,0,0,0,.74,0l4.45-2.57A.2.2,0,0,0,330.46,347.82Zm-147.73,67a.19.19,0,0,0,0-.15.17.17,0,0,0,0-.14.2.2,0,0,0,0-.15.2.2,0,0,0,0-.15.19.19,0,0,0,0-.15.17.17,0,0,0,0-.14.19.19,0,0,0,0-.15.2.2,0,0,0,0-.15.17.17,0,0,0,0-.14.19.19,0,0,0,0-.15.2.2,0,0,0,0-.21l1.24.72a.81.81,0,0,0,.74,0l4.46-2.57a.2.2,0,0,0,.1-.26.17.17,0,0,0,0-.14.2.2,0,0,0,0-.15.2.2,0,0,0,0-.15.19.19,0,0,0,0-.15.17.17,0,0,0,0-.14.2.2,0,0,0,0-.15.2.2,0,0,0,0-.15.19.19,0,0,0,0-.15.17.17,0,0,0,0-.14.2.2,0,0,0,0-.15.19.19,0,0,0,0-.2l1.24.71a.81.81,0,0,0,.74,0l4.45-2.57c.12-.07.15-.16.11-.25a.2.2,0,0,0,0-.15.2.2,0,0,0,0-.15.2.2,0,0,0,0-.15.17.17,0,0,0,0-.14.2.2,0,0,0,0-.15.2.2,0,0,0,0-.15.19.19,0,0,0,0-.15.17.17,0,0,0,0-.14.2.2,0,0,0,0-.15.2.2,0,0,0,0-.15.19.19,0,0,0,0-.2l1.24.71a.81.81,0,0,0,.74,0l4.45-2.57a.19.19,0,0,0,.11-.25.19.19,0,0,0,0-.15.2.2,0,0,0,0-.15.19.19,0,0,0,0-.15.17.17,0,0,0,0-.14.2.2,0,0,0,0-.15.2.2,0,0,0,0-.15.19.19,0,0,0,0-.15.17.17,0,0,0,0-.14.2.2,0,0,0,0-.15.2.2,0,0,0,0-.15.19.19,0,0,0,0-.2l1.24.71a.81.81,0,0,0,.74,0l4.45-2.57a.19.19,0,0,0,.11-.25.19.19,0,0,0,0-.15.2.2,0,0,0,0-.15.17.17,0,0,0,0-.14.19.19,0,0,0,0-.15.2.2,0,0,0,0-.15.2.2,0,0,0,0-.15.17.17,0,0,0,0-.14.19.19,0,0,0,0-.15.2.2,0,0,0,0-.15.19.19,0,0,0,0-.15.19.19,0,0,0,0-.2l1.24.72a.84.84,0,0,0,.74,0l4.45-2.58a.52.52,0,0,0,.11-.4.17.17,0,0,0,0-.14.19.19,0,0,0,0-.15.2.2,0,0,0,0-.15.19.19,0,0,0,0-.15.17.17,0,0,0,0-.14.2.2,0,0,0,0-.15.19.19,0,0,0,0-.15.2.2,0,0,0,0-.15.17.17,0,0,0,0-.14.2.2,0,0,0,0-.21l1.24.72a.84.84,0,0,0,.74,0l4.45-2.57a.2.2,0,0,0,.11-.26.19.19,0,0,0,0-.15.17.17,0,0,0,0-.14.2.2,0,0,0,0-.15.2.2,0,0,0,0-.15.17.17,0,0,0,0-.14.2.2,0,0,0,0-.15.2.2,0,0,0,0-.15.19.19,0,0,0,0-.15.17.17,0,0,0,0-.14.2.2,0,0,0,0-.15.2.2,0,0,0,0-.21l1.24.72a.81.81,0,0,0,.74,0l4.45-2.57a.2.2,0,0,0,.11-.26.17.17,0,0,0,0-.14.19.19,0,0,0,0-.15.2.2,0,0,0,0-.15.19.19,0,0,0,0-.15.17.17,0,0,0,0-.14.2.2,0,0,0,0-.15.19.19,0,0,0,0-.15.19.19,0,0,0,0-.15.17.17,0,0,0,0-.14.2.2,0,0,0,0-.15.19.19,0,0,0,0-.2l1.24.71a.81.81,0,0,0,.74,0L234.7,385a1.81,1.81,0,0,0,.11-.7.17.17,0,0,0,0-.14.2.2,0,0,0,0-.15.2.2,0,0,0,0-.15.19.19,0,0,0,0-.15.17.17,0,0,0,0-.14.2.2,0,0,0,0-.15.2.2,0,0,0,0-.15.19.19,0,0,0,0-.2l1.24.71a.81.81,0,0,0,.74,0l4.45-2.57a1.06,1.06,0,0,0,.11-.55.17.17,0,0,0,0-.14.19.19,0,0,0,0-.15.2.2,0,0,0,0-.15.19.19,0,0,0,0-.15.17.17,0,0,0,0-.14.2.2,0,0,0,0-.15.19.19,0,0,0,0-.15.2.2,0,0,0,0-.15.19.19,0,0,0,0-.2l1.24.71a.81.81,0,0,0,.74,0l4.45-2.57a.2.2,0,0,0,.11-.25.2.2,0,0,0,0-.15.19.19,0,0,0,0-.15.17.17,0,0,0,0-.14.2.2,0,0,0,0-.15.19.19,0,0,0,0-.15.19.19,0,0,0,0-.15.17.17,0,0,0,0-.14.19.19,0,0,0,0-.15.2.2,0,0,0,0-.15.19.19,0,0,0,0-.15.19.19,0,0,0,0-.2l1.24.72a.84.84,0,0,0,.74,0l4.45-2.57a.2.2,0,0,0,.1-.26.16.16,0,0,0,0-.15.14.14,0,0,0,0-.14.16.16,0,0,0,0-.15.16.16,0,0,0,0-.15.16.16,0,0,0,0-.15.14.14,0,0,0,0-.14.16.16,0,0,0,0-.15.16.16,0,0,0,0-.15.16.16,0,0,0,0-.15.14.14,0,0,0,0-.14.18.18,0,0,0,0-.21l1.24.72a.84.84,0,0,0,.74,0l9.93-5.74a1.06,1.06,0,0,0,.11-.55.17.17,0,0,0,0-.14.2.2,0,0,0,0-.15.19.19,0,0,0,0-.15.2.2,0,0,0,0-.15.17.17,0,0,0,0-.14.19.19,0,0,0,0-.15.2.2,0,0,0,0-.15.2.2,0,0,0,0-.15c.05-.1,0-.22-.16-.32L252.72,357a.81.81,0,0,0-.74,0l-5.14,3a.2.2,0,0,0-.1.26.16.16,0,0,0,0,.15.14.14,0,0,0,0,.14.16.16,0,0,0,0,.15.16.16,0,0,0,0,.15.16.16,0,0,0,0,.15.14.14,0,0,0,0,.14.16.16,0,0,0,0,.15.16.16,0,0,0,0,.15.16.16,0,0,0,0,.15.14.14,0,0,0,0,.14.18.18,0,0,0,0,.21l-1.24-.72a.84.84,0,0,0-.74,0l-4.45,2.57a.2.2,0,0,0-.1.26.14.14,0,0,0,0,.14.16.16,0,0,0,0,.15.16.16,0,0,0,0,.15.16.16,0,0,0,0,.15.14.14,0,0,0,0,.14.16.16,0,0,0,0,.15.16.16,0,0,0,0,.15.16.16,0,0,0,0,.15.14.14,0,0,0,0,.14.16.16,0,0,0,0,.15.18.18,0,0,0,0,.21l-1.24-.72a.79.79,0,0,0-.73,0l-4.46,2.57a.2.2,0,0,0-.1.26.14.14,0,0,0,0,.14.16.16,0,0,0,0,.15.16.16,0,0,0,0,.15s0,.09,0,.15a.14.14,0,0,0,0,.14.16.16,0,0,0,0,.15.16.16,0,0,0,0,.15.14.14,0,0,0,0,.14.16.16,0,0,0,0,.15.16.16,0,0,0,0,.15.17.17,0,0,0,0,.2l-1.24-.71a.79.79,0,0,0-.73,0l-4.46,2.57a.19.19,0,0,0-.1.25.16.16,0,0,0,0,.15.16.16,0,0,0,0,.15.16.16,0,0,0,0,.15.14.14,0,0,0,0,.14.16.16,0,0,0,0,.15.16.16,0,0,0,0,.15.16.16,0,0,0,0,.15.14.14,0,0,0,0,.14.16.16,0,0,0,0,.15.16.16,0,0,0,0,.15.17.17,0,0,0,0,.2l-1.24-.71a.79.79,0,0,0-.73,0L220.8,375a.19.19,0,0,0-.1.25.16.16,0,0,0,0,.15.16.16,0,0,0,0,.15.14.14,0,0,0,0,.14.16.16,0,0,0,0,.15.16.16,0,0,0,0,.15.16.16,0,0,0,0,.15.14.14,0,0,0,0,.14.16.16,0,0,0,0,.15.16.16,0,0,0,0,.15.16.16,0,0,0,0,.15.17.17,0,0,0,0,.2l-1.24-.71a.82.82,0,0,0-.73,0l-4.46,2.58a.19.19,0,0,0-.1.25.16.16,0,0,0,0,.15s0,.09,0,.15a.14.14,0,0,0,0,.14.16.16,0,0,0,0,.15.16.16,0,0,0,0,.15s0,.09,0,.15a.14.14,0,0,0,0,.14.16.16,0,0,0,0,.15.16.16,0,0,0,0,.15.14.14,0,0,0,0,.14.2.2,0,0,0,0,.21L213,380a.84.84,0,0,0-.74,0l-4.46,2.57a.2.2,0,0,0-.1.26.16.16,0,0,0,0,.15.14.14,0,0,0,0,.14.16.16,0,0,0,0,.15.16.16,0,0,0,0,.15.16.16,0,0,0,0,.15.14.14,0,0,0,0,.14.16.16,0,0,0,0,.15.16.16,0,0,0,0,.15.16.16,0,0,0,0,.15.14.14,0,0,0,0,.14.2.2,0,0,0,0,.21l-1.23-.72a.84.84,0,0,0-.74,0l-4.46,2.57a.2.2,0,0,0-.1.26.17.17,0,0,0,0,.14.19.19,0,0,0,0,.15.19.19,0,0,0,0,.15.2.2,0,0,0,0,.15.17.17,0,0,0,0,.14.19.19,0,0,0,0,.15.2.2,0,0,0,0,.15.19.19,0,0,0,0,.15.17.17,0,0,0,0,.14.2.2,0,0,0,0,.15.23.23,0,0,0,0,.21l-1.23-.72a.81.81,0,0,0-.74,0L194.76,390a.2.2,0,0,0-.1.26.17.17,0,0,0,0,.14.2.2,0,0,0,0,.15.19.19,0,0,0,0,.15.19.19,0,0,0,0,.15.17.17,0,0,0,0,.14.19.19,0,0,0,0,.15.2.2,0,0,0,0,.15.17.17,0,0,0,0,.14.19.19,0,0,0,0,.15.2.2,0,0,0,0,.15.21.21,0,0,0,0,.2l-1.23-.71a.81.81,0,0,0-.74,0l-4.46,2.57a.19.19,0,0,0-.1.25.19.19,0,0,0,0,.15.2.2,0,0,0,0,.15.19.19,0,0,0,0,.15.17.17,0,0,0,0,.14.2.2,0,0,0,0,.15.19.19,0,0,0,0,.15.19.19,0,0,0,0,.15.17.17,0,0,0,0,.14.19.19,0,0,0,0,.15.19.19,0,0,0,0,.15.19.19,0,0,0,0,.2l-1.24-.71a.81.81,0,0,0-.74,0l-4.45,2.57a.19.19,0,0,0-.11.25.19.19,0,0,0,0,.15.2.2,0,0,0,0,.15.17.17,0,0,0,0,.14.19.19,0,0,0,0,.15.2.2,0,0,0,0,.15.19.19,0,0,0,0,.15.17.17,0,0,0,0,.14.19.19,0,0,0,0,.15.2.2,0,0,0,0,.15.19.19,0,0,0,0,.15.19.19,0,0,0,0,.2l-1.24-.72a.88.88,0,0,0-.74,0l-4.45,2.58a.19.19,0,0,0-.11.25.19.19,0,0,0,0,.15.17.17,0,0,0,0,.14.19.19,0,0,0,0,.15.19.19,0,0,0,0,.15.19.19,0,0,0,0,.15.17.17,0,0,0,0,.14.19.19,0,0,0,0,.15.19.19,0,0,0,0,.15.19.19,0,0,0,0,.15.17.17,0,0,0,0,.14.2.2,0,0,0,0,.21l-1.24-.72a.84.84,0,0,0-.74,0l-4.45,2.57a.2.2,0,0,0-.11.26.19.19,0,0,0,0,.15.17.17,0,0,0,0,.14.19.19,0,0,0,0,.15.19.19,0,0,0,0,.15.19.19,0,0,0,0,.15.17.17,0,0,0,0,.14.19.19,0,0,0,0,.15.2.2,0,0,0,0,.15.19.19,0,0,0,0,.15.17.17,0,0,0,0,.14.2.2,0,0,0,0,.21l-1.24-.72a.84.84,0,0,0-.74,0l-6.85,4a1.06,1.06,0,0,0-.11.55.17.17,0,0,0,0,.14.19.19,0,0,0,0,.15.2.2,0,0,0,0,.15.19.19,0,0,0,0,.15.17.17,0,0,0,0,.14.2.2,0,0,0,0,.15.19.19,0,0,0,0,.15.19.19,0,0,0,0,.15c-.05.1,0,.22.16.32l5.54,3.19a.81.81,0,0,0,.74,0l6.85-4a.2.2,0,0,0,.1-.26.14.14,0,0,0,0-.14.16.16,0,0,0,0-.15.16.16,0,0,0,0-.15.16.16,0,0,0,0-.15.14.14,0,0,0,0-.14.16.16,0,0,0,0-.15.16.16,0,0,0,0-.15.16.16,0,0,0,0-.15.14.14,0,0,0,0-.14.16.16,0,0,0,0-.15.18.18,0,0,0,0-.21l1.24.72a.81.81,0,0,0,.74,0l4.45-2.57a.2.2,0,0,0,.1-.26.14.14,0,0,0,0-.14.16.16,0,0,0,0-.15.16.16,0,0,0,0-.15.14.14,0,0,0,0-.14.16.16,0,0,0,0-.15.16.16,0,0,0,0-.15.16.16,0,0,0,0-.15.14.14,0,0,0,0-.14.16.16,0,0,0,0-.15.16.16,0,0,0,0-.15.17.17,0,0,0,0-.2l1.24.71a.81.81,0,0,0,.74,0L186,404a.19.19,0,0,0,.1-.25.16.16,0,0,0,0-.15.16.16,0,0,0,0-.15.16.16,0,0,0,0-.15.14.14,0,0,0,0-.14.16.16,0,0,0,0-.15.16.16,0,0,0,0-.15.16.16,0,0,0,0-.15.14.14,0,0,0,0-.14.16.16,0,0,0,0-.15.16.16,0,0,0,0-.15.17.17,0,0,0,0-.2l1.24.71a.79.79,0,0,0,.73,0l4.46-2.57a.19.19,0,0,0,.1-.25.16.16,0,0,0,0-.15.16.16,0,0,0,0-.15.14.14,0,0,0,0-.14.16.16,0,0,0,0-.15.16.16,0,0,0,0-.15.16.16,0,0,0,0-.15.14.14,0,0,0,0-.14.16.16,0,0,0,0-.15.16.16,0,0,0,0-.15.16.16,0,0,0,0-.15.17.17,0,0,0,0-.2l1.24.71a.82.82,0,0,0,.73,0l4.46-2.58a.19.19,0,0,0,.1-.25.16.16,0,0,0,0-.15.14.14,0,0,0,0-.14.16.16,0,0,0,0-.15.16.16,0,0,0,0-.15.16.16,0,0,0,0-.15.14.14,0,0,0,0-.14.16.16,0,0,0,0-.15.16.16,0,0,0,0-.15.16.16,0,0,0,0-.15.14.14,0,0,0,0-.14.18.18,0,0,0,0-.21l1.24.72a.82.82,0,0,0,.73,0l4.46-2.57a.2.2,0,0,0,.1-.26.16.16,0,0,0,0-.15.14.14,0,0,0,0-.14.16.16,0,0,0,0-.15.16.16,0,0,0,0-.15.16.16,0,0,0,0-.15.14.14,0,0,0,0-.14.16.16,0,0,0,0-.15.16.16,0,0,0,0-.15s0-.09,0-.15a.14.14,0,0,0,0-.14.18.18,0,0,0,0-.21l1.24.72a.82.82,0,0,0,.73,0l4.46-2.57a.2.2,0,0,0,.1-.26.14.14,0,0,0,0-.14.16.16,0,0,0,0-.15.16.16,0,0,0,0-.15.16.16,0,0,0,0-.15.14.14,0,0,0,0-.14.16.16,0,0,0,0-.15.16.16,0,0,0,0-.15.16.16,0,0,0,0-.15.14.14,0,0,0,0-.14.16.16,0,0,0,0-.15.18.18,0,0,0,0-.2l1.23.71a.81.81,0,0,0,.74,0l4.46-2.57a.2.2,0,0,0,.1-.26.14.14,0,0,0,0-.14.16.16,0,0,0,0-.15.16.16,0,0,0,0-.15.14.14,0,0,0,0-.14.16.16,0,0,0,0-.15.16.16,0,0,0,0-.15.16.16,0,0,0,0-.15.14.14,0,0,0,0-.14.16.16,0,0,0,0-.15.16.16,0,0,0,0-.15.18.18,0,0,0,0-.2l1.23.71a.81.81,0,0,0,.74,0l4.46-2.57a.19.19,0,0,0,.1-.25.2.2,0,0,0,0-.15.2.2,0,0,0,0-.15.19.19,0,0,0,0-.15.17.17,0,0,0,0-.14.2.2,0,0,0,0-.15.2.2,0,0,0,0-.15.19.19,0,0,0,0-.15.17.17,0,0,0,0-.14.2.2,0,0,0,0-.15.19.19,0,0,0,0-.15.21.21,0,0,0,0-.2l1.23.71a.81.81,0,0,0,.74,0l4.46-2.57a.19.19,0,0,0,.1-.25.2.2,0,0,0,0-.15.2.2,0,0,0,0-.15.17.17,0,0,0,0-.14.19.19,0,0,0,0-.15.2.2,0,0,0,0-.15.2.2,0,0,0,0-.15.17.17,0,0,0,0-.14.2.2,0,0,0,0-.15.2.2,0,0,0,0-.15.19.19,0,0,0,0-.15.19.19,0,0,0,0-.2l1.24.72a.84.84,0,0,0,.74,0l4.46-2.58a.19.19,0,0,0,.1-.25.2.2,0,0,0,0-.15.17.17,0,0,0,0-.14.2.2,0,0,0,0-.15.2.2,0,0,0,0-.15.2.2,0,0,0,0-.15.17.17,0,0,0,0-.14.2.2,0,0,0,0-.15.2.2,0,0,0,0-.15.2.2,0,0,0,0-.15.17.17,0,0,0,0-.14.2.2,0,0,0,0-.21l1.24.72a.84.84,0,0,0,.74,0l4.45-2.57a.2.2,0,0,0,.11-.26.19.19,0,0,0,0-.15.17.17,0,0,0,0-.14.2.2,0,0,0,0-.15.2.2,0,0,0,0-.15.17.17,0,0,0,0-.14.2.2,0,0,0,0-.15.2.2,0,0,0,0-.15.19.19,0,0,0,0-.15.17.17,0,0,0,0-.14.2.2,0,0,0,0-.15.2.2,0,0,0,0-.21l1.24.72a.84.84,0,0,0,.74,0l4.45-2.57a.2.2,0,0,0,.11-.26.17.17,0,0,0,0-.14.19.19,0,0,0,0-.15.2.2,0,0,0,0-.15.2.2,0,0,0,0-.15.17.17,0,0,0,0-.14.2.2,0,0,0,0-.15.2.2,0,0,0,0-.15.19.19,0,0,0,0-.15.17.17,0,0,0,0-.14.2.2,0,0,0,0-.15.19.19,0,0,0,0-.2l1.82,1-3,1.76a.2.2,0,0,0-.11.26.17.17,0,0,0,0,.14.19.19,0,0,0,0,.15.19.19,0,0,0,0,.15.2.2,0,0,0,0,.15.17.17,0,0,0,0,.14.19.19,0,0,0,0,.15.2.2,0,0,0,0,.15.19.19,0,0,0,0,.15.17.17,0,0,0,0,.14.2.2,0,0,0,0,.15.18.18,0,0,0,0,.2l-1.24-.71a.81.81,0,0,0-.74,0l-4.45,2.57c-.12.07-.15.16-.11.25a.19.19,0,0,0,0,.15.19.19,0,0,0,0,.15.2.2,0,0,0,0,.15.17.17,0,0,0,0,.14.19.19,0,0,0,0,.15.19.19,0,0,0,0,.15.2.2,0,0,0,0,.15.17.17,0,0,0,0,.14.19.19,0,0,0,0,.15.2.2,0,0,0,0,.15.19.19,0,0,0,0,.2l-1.24-.71a.81.81,0,0,0-.74,0l-4.45,2.57a1.81,1.81,0,0,0-.11.7.17.17,0,0,0,0,.14.19.19,0,0,0,0,.15.2.2,0,0,0,0,.15.19.19,0,0,0,0,.15.17.17,0,0,0,0,.14.2.2,0,0,0,0,.15.19.19,0,0,0,0,.15.19.19,0,0,0,0,.2l-1.24-.71a.81.81,0,0,0-.74,0l-4.45,2.57a1.06,1.06,0,0,0-.11.55.17.17,0,0,0,0,.14.19.19,0,0,0,0,.15.2.2,0,0,0,0,.15.19.19,0,0,0,0,.15.17.17,0,0,0,0,.14.2.2,0,0,0,0,.15.2.2,0,0,0,0,.15.19.19,0,0,0,0,.15.19.19,0,0,0,0,.2l-1.24-.72a.84.84,0,0,0-.74,0l-4.45,2.58a.52.52,0,0,0-.11.4.17.17,0,0,0,0,.14.19.19,0,0,0,0,.15.19.19,0,0,0,0,.15.2.2,0,0,0,0,.15.17.17,0,0,0,0,.14.19.19,0,0,0,0,.15.2.2,0,0,0,0,.15.19.19,0,0,0,0,.15.17.17,0,0,0,0,.14.2.2,0,0,0,0,.21l-1.24-.72a.84.84,0,0,0-.74,0l-4.45,2.57a.2.2,0,0,0-.11.26.19.19,0,0,0,0,.15.17.17,0,0,0,0,.14.19.19,0,0,0,0,.15.19.19,0,0,0,0,.15.17.17,0,0,0,0,.14.19.19,0,0,0,0,.15.19.19,0,0,0,0,.15.2.2,0,0,0,0,.15.17.17,0,0,0,0,.14.19.19,0,0,0,0,.15.2.2,0,0,0,0,.21l-1.24-.72a.81.81,0,0,0-.74,0l-4.45,2.57a.2.2,0,0,0-.11.26.17.17,0,0,0,0,.14.19.19,0,0,0,0,.15.19.19,0,0,0,0,.15.19.19,0,0,0,0,.15.17.17,0,0,0,0,.14.19.19,0,0,0,0,.15.19.19,0,0,0,0,.15.19.19,0,0,0,0,.15.17.17,0,0,0,0,.14.2.2,0,0,0,0,.15.19.19,0,0,0,0,.2l-1.24-.71a.81.81,0,0,0-.74,0l-4.45,2.57a.21.21,0,0,0-.11.25.19.19,0,0,0,0,.15.19.19,0,0,0,0,.15.19.19,0,0,0,0,.15.17.17,0,0,0,0,.14.19.19,0,0,0,0,.15.19.19,0,0,0,0,.15.2.2,0,0,0,0,.15.17.17,0,0,0,0,.14.19.19,0,0,0,0,.15.2.2,0,0,0,0,.15.19.19,0,0,0,0,.2l-1.24-.71a.81.81,0,0,0-.74,0l-4.45,2.57a.19.19,0,0,0-.1.25.16.16,0,0,0,0,.15.16.16,0,0,0,0,.15.14.14,0,0,0,0,.14.16.16,0,0,0,0,.15.16.16,0,0,0,0,.15.16.16,0,0,0,0,.15.14.14,0,0,0,0,.14.16.16,0,0,0,0,.15.16.16,0,0,0,0,.15.16.16,0,0,0,0,.15.17.17,0,0,0,0,.2l-1.24-.71a.81.81,0,0,0-.74,0l-4.45,2.57a.19.19,0,0,0-.1.25.16.16,0,0,0,0,.15.16.16,0,0,0,0,.15.14.14,0,0,0,0,.14.16.16,0,0,0,0,.15.16.16,0,0,0,0,.15.16.16,0,0,0,0,.15.14.14,0,0,0,0,.14.16.16,0,0,0,0,.15.16.16,0,0,0,0,.15.16.16,0,0,0,0,.15.17.17,0,0,0,0,.2l-1.24-.72a.84.84,0,0,0-.74,0l-4.45,2.58a.19.19,0,0,0-.1.25.16.16,0,0,0,0,.15.14.14,0,0,0,0,.14.16.16,0,0,0,0,.15.16.16,0,0,0,0,.15.16.16,0,0,0,0,.15.14.14,0,0,0,0,.14.16.16,0,0,0,0,.15.16.16,0,0,0,0,.15.16.16,0,0,0,0,.15.14.14,0,0,0,0,.14.18.18,0,0,0,0,.21l-1.24-.72a.82.82,0,0,0-.73,0l-4.46,2.57a.2.2,0,0,0-.1.26.14.14,0,0,0,0,.14.16.16,0,0,0,0,.15.16.16,0,0,0,0,.15.16.16,0,0,0,0,.15.14.14,0,0,0,0,.14.16.16,0,0,0,0,.15.16.16,0,0,0,0,.15.16.16,0,0,0,0,.15.14.14,0,0,0,0,.14.16.16,0,0,0,0,.15.18.18,0,0,0,0,.21l-1.24-.72a.79.79,0,0,0-.73,0l-8.57,4.95a.19.19,0,0,0-.1.25.16.16,0,0,0,0,.15.14.14,0,0,0,0,.14.16.16,0,0,0,0,.15.16.16,0,0,0,0,.15.16.16,0,0,0,0,.15.14.14,0,0,0,0,.14.16.16,0,0,0,0,.15.16.16,0,0,0,0,.15.16.16,0,0,0,0,.15.14.14,0,0,0,0,.14c-.06.11,0,.23.15.32l5.54,3.2a.81.81,0,0,0,.74,0l8.57-4.94A.2.2,0,0,0,182.73,414.84Zm4.83,6.35a.2.2,0,0,0,0-.15.17.17,0,0,0,0-.14.19.19,0,0,0,0-.15.19.19,0,0,0,0-.15.2.2,0,0,0,0-.15.17.17,0,0,0,0-.14.19.19,0,0,0,0-.15.2.2,0,0,0,0-.15.2.2,0,0,0,0-.15.17.17,0,0,0,0-.14.2.2,0,0,0,0-.21l1.24.72a.84.84,0,0,0,.74,0l4.45-2.57a.2.2,0,0,0,.11-.26.19.19,0,0,0,0-.15.17.17,0,0,0,0-.14.19.19,0,0,0,0-.15.2.2,0,0,0,0-.15.19.19,0,0,0,0-.15.17.17,0,0,0,0-.14.2.2,0,0,0,0-.15.19.19,0,0,0,0-.15.17.17,0,0,0,0-.14.2.2,0,0,0,0-.15.2.2,0,0,0,0-.21l1.24.72a.84.84,0,0,0,.74,0l4.45-2.57a.2.2,0,0,0,.11-.26.17.17,0,0,0,0-.14.2.2,0,0,0,0-.15.2.2,0,0,0,0-.15.19.19,0,0,0,0-.15.17.17,0,0,0,0-.14.2.2,0,0,0,0-.15.19.19,0,0,0,0-.15.19.19,0,0,0,0-.15.17.17,0,0,0,0-.14.19.19,0,0,0,0-.15.19.19,0,0,0,0-.2l1.24.71a.81.81,0,0,0,.74,0l4.45-2.57a1.81,1.81,0,0,0,.11-.7.17.17,0,0,0,0-.14.19.19,0,0,0,0-.15.2.2,0,0,0,0-.15.19.19,0,0,0,0-.15.17.17,0,0,0,0-.14.2.2,0,0,0,0-.15.19.19,0,0,0,0-.15.19.19,0,0,0,0-.2l1.24.71a.81.81,0,0,0,.74,0l4.45-2.57a1.06,1.06,0,0,0,.11-.55.17.17,0,0,0,0-.14.2.2,0,0,0,0-.15.19.19,0,0,0,0-.15.2.2,0,0,0,0-.15.17.17,0,0,0,0-.14.19.19,0,0,0,0-.15.2.2,0,0,0,0-.15.2.2,0,0,0,0-.15.19.19,0,0,0,0-.2l1.24.71a.81.81,0,0,0,.74,0l4.45-2.57a1.06,1.06,0,0,0,.11-.55.17.17,0,0,0,0-.14.2.2,0,0,0,0-.15.19.19,0,0,0,0-.15.19.19,0,0,0,0-.15.17.17,0,0,0,0-.14.19.19,0,0,0,0-.15.2.2,0,0,0,0-.15.19.19,0,0,0,0-.15.19.19,0,0,0,0-.2l1.24.72a.84.84,0,0,0,.74,0l4.45-2.57a.21.21,0,0,0,.11-.26.19.19,0,0,0,0-.15.17.17,0,0,0,0-.14.2.2,0,0,0,0-.15.2.2,0,0,0,0-.15.2.2,0,0,0,0-.15.17.17,0,0,0,0-.14.2.2,0,0,0,0-.15.2.2,0,0,0,0-.15.2.2,0,0,0,0-.15.17.17,0,0,0,0-.14.2.2,0,0,0,0-.21l1.24.72a.84.84,0,0,0,.74,0l4.45-2.57a.21.21,0,0,0,.11-.26.17.17,0,0,0,0-.14.19.19,0,0,0,0-.15.2.2,0,0,0,0-.15.2.2,0,0,0,0-.15.17.17,0,0,0,0-.14.2.2,0,0,0,0-.15.2.2,0,0,0,0-.15.19.19,0,0,0,0-.15.17.17,0,0,0,0-.14.2.2,0,0,0,0-.15.2.2,0,0,0,0-.21l1.24.72a.81.81,0,0,0,.74,0l4.45-2.57a.21.21,0,0,0,.11-.26.22.22,0,0,0,0-.14.26.26,0,0,0,0-.15.26.26,0,0,0,0-.15.26.26,0,0,0,0-.15.22.22,0,0,0,0-.14.26.26,0,0,0,0-.15.26.26,0,0,0,0-.15.26.26,0,0,0,0-.15.22.22,0,0,0,0-.14.26.26,0,0,0,0-.15.19.19,0,0,0,0-.2l1.24.71a.81.81,0,0,0,.74,0l4.45-2.57a.19.19,0,0,0,.1-.25.16.16,0,0,0,0-.15.16.16,0,0,0,0-.15.16.16,0,0,0,0-.15.14.14,0,0,0,0-.14.16.16,0,0,0,0-.15.16.16,0,0,0,0-.15.16.16,0,0,0,0-.15.14.14,0,0,0,0-.14.16.16,0,0,0,0-.15.16.16,0,0,0,0-.15.17.17,0,0,0,0-.2l1.24.71a.81.81,0,0,0,.74,0l4.45-2.57a.19.19,0,0,0,.1-.25.16.16,0,0,0,0-.15.16.16,0,0,0,0-.15.14.14,0,0,0,0-.14.16.16,0,0,0,0-.15.16.16,0,0,0,0-.15.16.16,0,0,0,0-.15.14.14,0,0,0,0-.14.16.16,0,0,0,0-.15.16.16,0,0,0,0-.15.16.16,0,0,0,0-.15.17.17,0,0,0,0-.2l1.24.71a.82.82,0,0,0,.73,0l4.46-2.58a.19.19,0,0,0,.1-.25.16.16,0,0,0,0-.15.16.16,0,0,0,0-.15.14.14,0,0,0,0-.14.16.16,0,0,0,0-.15.16.16,0,0,0,0-.15s0-.09,0-.15a.14.14,0,0,0,0-.14.16.16,0,0,0,0-.15.16.16,0,0,0,0-.15.14.14,0,0,0,0-.14.18.18,0,0,0,0-.21l1.24.72a.82.82,0,0,0,.73,0l13-7.52c.12-.07.15-.16.11-.25a.19.19,0,0,0,0-.15.19.19,0,0,0,0-.15.2.2,0,0,0,0-.15.17.17,0,0,0,0-.14.19.19,0,0,0,0-.15.2.2,0,0,0,0-.15.2.2,0,0,0,0-.15.17.17,0,0,0,0-.14.2.2,0,0,0,0-.15.2.2,0,0,0,0-.15c.05-.1,0-.23-.16-.32l-5.54-3.2a.84.84,0,0,0-.74,0l-13,7.52a.19.19,0,0,0-.1.25.19.19,0,0,0,0,.15.19.19,0,0,0,0,.15.2.2,0,0,0,0,.15.17.17,0,0,0,0,.14.19.19,0,0,0,0,.15.2.2,0,0,0,0,.15.19.19,0,0,0,0,.15.17.17,0,0,0,0,.14.19.19,0,0,0,0,.15.2.2,0,0,0,0,.15.19.19,0,0,0,0,.2l-1.24-.71a.81.81,0,0,0-.74,0l-4.45,2.57a.19.19,0,0,0-.11.25.2.2,0,0,0,0,.15.19.19,0,0,0,0,.15.19.19,0,0,0,0,.15.17.17,0,0,0,0,.14.19.19,0,0,0,0,.15.2.2,0,0,0,0,.15.17.17,0,0,0,0,.14.19.19,0,0,0,0,.15.2.2,0,0,0,0,.15.19.19,0,0,0,0,.15.19.19,0,0,0,0,.2l-1.24-.71a.81.81,0,0,0-.74,0l-4.45,2.57a.19.19,0,0,0-.11.25.2.2,0,0,0,0,.15.19.19,0,0,0,0,.15.17.17,0,0,0,0,.14.2.2,0,0,0,0,.15.2.2,0,0,0,0,.15.19.19,0,0,0,0,.15.17.17,0,0,0,0,.14.2.2,0,0,0,0,.15.19.19,0,0,0,0,.15.19.19,0,0,0,0,.15.19.19,0,0,0,0,.2l-1.24-.72a.84.84,0,0,0-.74,0l-4.45,2.58a.19.19,0,0,0-.11.25.19.19,0,0,0,0,.15.17.17,0,0,0,0,.14.19.19,0,0,0,0,.15.19.19,0,0,0,0,.15.19.19,0,0,0,0,.15.17.17,0,0,0,0,.14.2.2,0,0,0,0,.15.19.19,0,0,0,0,.15.19.19,0,0,0,0,.15.17.17,0,0,0,0,.14.2.2,0,0,0,0,.21l-1.24-.72a.84.84,0,0,0-.74,0l-4.45,2.57a.2.2,0,0,0-.11.26.19.19,0,0,0,0,.15.17.17,0,0,0,0,.14.2.2,0,0,0,0,.15.19.19,0,0,0,0,.15.19.19,0,0,0,0,.15.17.17,0,0,0,0,.14.19.19,0,0,0,0,.15.19.19,0,0,0,0,.15.17.17,0,0,0,0,.14.2.2,0,0,0,0,.15.2.2,0,0,0,0,.21l-1.24-.72a.84.84,0,0,0-.74,0l-4.45,2.57a.2.2,0,0,0-.11.26.17.17,0,0,0,0,.14.19.19,0,0,0,0,.15.19.19,0,0,0,0,.15.2.2,0,0,0,0,.15.17.17,0,0,0,0,.14.2.2,0,0,0,0,.15.19.19,0,0,0,0,.15.2.2,0,0,0,0,.15.17.17,0,0,0,0,.14.19.19,0,0,0,0,.15.19.19,0,0,0,0,.2l-1.24-.71a.81.81,0,0,0-.74,0l-4.45,2.57a1.81,1.81,0,0,0-.11.7.17.17,0,0,0,0,.14.2.2,0,0,0,0,.15.19.19,0,0,0,0,.15.2.2,0,0,0,0,.15.17.17,0,0,0,0,.14.19.19,0,0,0,0,.15.2.2,0,0,0,0,.15.19.19,0,0,0,0,.2l-1.24-.71a.81.81,0,0,0-.74,0L209.22,400a1.81,1.81,0,0,0-.11.7.17.17,0,0,0,0,.14.19.19,0,0,0,0,.15.2.2,0,0,0,0,.15.17.17,0,0,0,0,.14.19.19,0,0,0,0,.15.2.2,0,0,0,0,.15.19.19,0,0,0,0,.15.19.19,0,0,0,0,.2l-1.24-.71a.81.81,0,0,0-.74,0l-4.45,2.57a1.06,1.06,0,0,0-.11.55.17.17,0,0,0,0,.14.19.19,0,0,0,0,.15.2.2,0,0,0,0,.15.19.19,0,0,0,0,.15.17.17,0,0,0,0,.14.2.2,0,0,0,0,.15.19.19,0,0,0,0,.15.19.19,0,0,0,0,.15.19.19,0,0,0,0,.2l-1.24-.72a.84.84,0,0,0-.74,0l-4.45,2.57a.21.21,0,0,0-.11.26.2.2,0,0,0,0,.15.17.17,0,0,0,0,.14.19.19,0,0,0,0,.15.2.2,0,0,0,0,.15.19.19,0,0,0,0,.15.17.17,0,0,0,0,.14.2.2,0,0,0,0,.15.2.2,0,0,0,0,.15.19.19,0,0,0,0,.15.17.17,0,0,0,0,.14.2.2,0,0,0,0,.21l-1.24-.72a.84.84,0,0,0-.74,0l-4.45,2.57a.21.21,0,0,0-.11.26.17.17,0,0,0,0,.14.2.2,0,0,0,0,.15.19.19,0,0,0,0,.15.19.19,0,0,0,0,.15.17.17,0,0,0,0,.14.19.19,0,0,0,0,.15.19.19,0,0,0,0,.15.19.19,0,0,0,0,.15.17.17,0,0,0,0,.14.2.2,0,0,0,0,.15.2.2,0,0,0,0,.21l-1.24-.72a.81.81,0,0,0-.74,0L183.18,415a.2.2,0,0,0-.1.26.14.14,0,0,0,0,.14.16.16,0,0,0,0,.15.16.16,0,0,0,0,.15s0,.09,0,.15a.14.14,0,0,0,0,.14.16.16,0,0,0,0,.15.16.16,0,0,0,0,.15s0,.09,0,.15a.14.14,0,0,0,0,.14.16.16,0,0,0,0,.15.17.17,0,0,0,0,.2l-1.24-.71a.81.81,0,0,0-.74,0l-5.48,3.16a.2.2,0,0,0-.1.26.14.14,0,0,0,0,.14.16.16,0,0,0,0,.15.16.16,0,0,0,0,.15.16.16,0,0,0,0,.15.14.14,0,0,0,0,.14.16.16,0,0,0,0,.15.16.16,0,0,0,0,.15.16.16,0,0,0,0,.15.14.14,0,0,0,0,.14.16.16,0,0,0,0,.15c0,.11,0,.23.16.32l5.53,3.2a.84.84,0,0,0,.74,0l5.48-3.17A.19.19,0,0,0,187.56,421.19Zm-35-26.69a.16.16,0,0,0,0,.15.14.14,0,0,0,0,.14.16.16,0,0,0,0,.15.16.16,0,0,0,0,.15.16.16,0,0,0,0,.15.14.14,0,0,0,0,.14.16.16,0,0,0,0,.15.16.16,0,0,0,0,.15.16.16,0,0,0,0,.15c0,.1,0,.22.16.32l5.53,3.19a.81.81,0,0,0,.74,0l4.46-2.57a.19.19,0,0,0,.1-.25.16.16,0,0,0,0-.15.16.16,0,0,0,0-.15.14.14,0,0,0,0-.14.16.16,0,0,0,0-.15.16.16,0,0,0,0-.15.16.16,0,0,0,0-.15.14.14,0,0,0,0-.14.16.16,0,0,0,0-.15.16.16,0,0,0,0-.15.16.16,0,0,0,0-.15.19.19,0,0,0,0-.2l1.23.72a.84.84,0,0,0,.74,0L170,393a.19.19,0,0,0,.1-.25.2.2,0,0,0,0-.15.17.17,0,0,0,0-.14.19.19,0,0,0,0-.15.2.2,0,0,0,0-.15.2.2,0,0,0,0-.15.17.17,0,0,0,0-.14.2.2,0,0,0,0-.15.2.2,0,0,0,0-.15.2.2,0,0,0,0-.15.17.17,0,0,0,0-.14.23.23,0,0,0,0-.21l1.23.72a.84.84,0,0,0,.74,0l4.46-2.57a.2.2,0,0,0,.1-.26.19.19,0,0,0,0-.15.17.17,0,0,0,0-.14.19.19,0,0,0,0-.15.2.2,0,0,0,0-.15.19.19,0,0,0,0-.15.17.17,0,0,0,0-.14.2.2,0,0,0,0-.15.2.2,0,0,0,0-.15.17.17,0,0,0,0-.14.2.2,0,0,0,0-.15.2.2,0,0,0,0-.21l1.24.72a.84.84,0,0,0,.74,0l4.46-2.57a.2.2,0,0,0,.1-.26.17.17,0,0,0,0-.14.2.2,0,0,0,0-.15.2.2,0,0,0,0-.15.19.19,0,0,0,0-.15.17.17,0,0,0,0-.14.2.2,0,0,0,0-.15.19.19,0,0,0,0-.15.2.2,0,0,0,0-.15.17.17,0,0,0,0-.14.2.2,0,0,0,0-.15c0-.1,0-.23-.16-.32l-5.54-3.2a.82.82,0,0,0-.73,0l-4.46,2.57a.2.2,0,0,0-.1.26.14.14,0,0,0,0,.14.16.16,0,0,0,0,.15.16.16,0,0,0,0,.15.16.16,0,0,0,0,.15.14.14,0,0,0,0,.14.16.16,0,0,0,0,.15.16.16,0,0,0,0,.15.16.16,0,0,0,0,.15.14.14,0,0,0,0,.14.16.16,0,0,0,0,.15.18.18,0,0,0,0,.21l-1.24-.72a.79.79,0,0,0-.73,0l-4.46,2.57a.2.2,0,0,0-.1.26.14.14,0,0,0,0,.14.16.16,0,0,0,0,.15.16.16,0,0,0,0,.15s0,.09,0,.15a.14.14,0,0,0,0,.14.16.16,0,0,0,0,.15.16.16,0,0,0,0,.15.14.14,0,0,0,0,.14.16.16,0,0,0,0,.15.16.16,0,0,0,0,.15.17.17,0,0,0,0,.2l-1.24-.71a.79.79,0,0,0-.73,0l-4.46,2.57a.19.19,0,0,0-.1.25.16.16,0,0,0,0,.15.16.16,0,0,0,0,.15.16.16,0,0,0,0,.15.14.14,0,0,0,0,.14.16.16,0,0,0,0,.15.16.16,0,0,0,0,.15.16.16,0,0,0,0,.15.14.14,0,0,0,0,.14.16.16,0,0,0,0,.15.16.16,0,0,0,0,.15.17.17,0,0,0,0,.2l-1.24-.71a.79.79,0,0,0-.73,0l-4.46,2.57a.19.19,0,0,0-.1.25A.16.16,0,0,0,152.57,394.5Zm1.65,7.44a.19.19,0,0,0,0-.15.17.17,0,0,0,0-.14.2.2,0,0,0,0-.15.2.2,0,0,0,0-.15.17.17,0,0,0,0-.14.19.19,0,0,0,0-.15.2.2,0,0,0,0-.15.2.2,0,0,0,0-.15.17.17,0,0,0,0-.14.2.2,0,0,0,0-.15c.05-.11,0-.23-.16-.32l-5.54-3.2a.79.79,0,0,0-.73,0l-5.49,3.17a.19.19,0,0,0-.1.25.16.16,0,0,0,0,.15.14.14,0,0,0,0,.14.16.16,0,0,0,0,.15.16.16,0,0,0,0,.15.16.16,0,0,0,0,.15.14.14,0,0,0,0,.14.16.16,0,0,0,0,.15.16.16,0,0,0,0,.15.16.16,0,0,0,0,.15.14.14,0,0,0,0,.14c0,.11,0,.23.16.32l5.53,3.2a.81.81,0,0,0,.74,0l5.49-3.16A.2.2,0,0,0,154.22,401.94Zm8.57,6.14a.16.16,0,0,0,0-.15s0-.09,0-.15a.14.14,0,0,0,0-.14.16.16,0,0,0,0-.15.16.16,0,0,0,0-.15s0-.09,0-.15a.14.14,0,0,0,0-.14.16.16,0,0,0,0-.15.16.16,0,0,0,0-.15.14.14,0,0,0,0-.14.18.18,0,0,0,0-.21l1.24.72a.84.84,0,0,0,.74,0l4.45-2.57a.2.2,0,0,0,.1-.26.16.16,0,0,0,0-.15.14.14,0,0,0,0-.14.16.16,0,0,0,0-.15.16.16,0,0,0,0-.15.16.16,0,0,0,0-.15.14.14,0,0,0,0-.14.16.16,0,0,0,0-.15.16.16,0,0,0,0-.15.16.16,0,0,0,0-.15.14.14,0,0,0,0-.14.18.18,0,0,0,0-.21l1.24.72a.82.82,0,0,0,.73,0l4.46-2.57a.2.2,0,0,0,.1-.26.14.14,0,0,0,0-.14.16.16,0,0,0,0-.15.16.16,0,0,0,0-.15.16.16,0,0,0,0-.15.14.14,0,0,0,0-.14.16.16,0,0,0,0-.15.16.16,0,0,0,0-.15.16.16,0,0,0,0-.15.14.14,0,0,0,0-.14.16.16,0,0,0,0-.15.18.18,0,0,0,0-.21l1.24.72a.79.79,0,0,0,.73,0l4.46-2.57a.2.2,0,0,0,.1-.26.14.14,0,0,0,0-.14.16.16,0,0,0,0-.15.16.16,0,0,0,0-.15.14.14,0,0,0,0-.14.16.16,0,0,0,0-.15.16.16,0,0,0,0-.15.16.16,0,0,0,0-.15.14.14,0,0,0,0-.14.16.16,0,0,0,0-.15.16.16,0,0,0,0-.15.17.17,0,0,0,0-.2l1.24.71a.79.79,0,0,0,.73,0l4.46-2.57a.19.19,0,0,0,.1-.25.16.16,0,0,0,0-.15.16.16,0,0,0,0-.15.16.16,0,0,0,0-.15.14.14,0,0,0,0-.14.16.16,0,0,0,0-.15.16.16,0,0,0,0-.15.16.16,0,0,0,0-.15.14.14,0,0,0,0-.14.16.16,0,0,0,0-.15.16.16,0,0,0,0-.15.17.17,0,0,0,0-.2l1.24.71a.79.79,0,0,0,.73,0l4.46-2.57a.19.19,0,0,0,.1-.25.16.16,0,0,0,0-.15.16.16,0,0,0,0-.15.14.14,0,0,0,0-.14.16.16,0,0,0,0-.15.16.16,0,0,0,0-.15.16.16,0,0,0,0-.15.14.14,0,0,0,0-.14.16.16,0,0,0,0-.15.16.16,0,0,0,0-.15.16.16,0,0,0,0-.15.19.19,0,0,0,0-.2l1.24.72a.85.85,0,0,0,.73,0l4.46-2.58a.19.19,0,0,0,.1-.25.16.16,0,0,0,0-.15s0-.09,0-.15a.14.14,0,0,0,0-.14.16.16,0,0,0,0-.15.16.16,0,0,0,0-.15.14.14,0,0,0,0-.14.16.16,0,0,0,0-.15.16.16,0,0,0,0-.15.16.16,0,0,0,0-.15.14.14,0,0,0,0-.14.2.2,0,0,0,0-.21l1.23.72a.84.84,0,0,0,.74,0l4.46-2.57a.2.2,0,0,0,.1-.26.2.2,0,0,0,0-.15.17.17,0,0,0,0-.14.2.2,0,0,0,0-.15.19.19,0,0,0,0-.15.19.19,0,0,0,0-.15.17.17,0,0,0,0-.14.19.19,0,0,0,0-.15.2.2,0,0,0,0-.15.19.19,0,0,0,0-.15.14.14,0,0,0,0-.14.2.2,0,0,0,0-.21l1.23.72a.84.84,0,0,0,.74,0l4.46-2.57a.2.2,0,0,0,.1-.26.17.17,0,0,0,0-.14.19.19,0,0,0,0-.15.2.2,0,0,0,0-.15.2.2,0,0,0,0-.15.17.17,0,0,0,0-.14.19.19,0,0,0,0-.15.2.2,0,0,0,0-.15.2.2,0,0,0,0-.15.17.17,0,0,0,0-.14.2.2,0,0,0,0-.15.2.2,0,0,0,0-.2l1.23.71a.81.81,0,0,0,.74,0l4.46-2.57a.19.19,0,0,0,.1-.25.2.2,0,0,0,0-.15.19.19,0,0,0,0-.15.2.2,0,0,0,0-.15.17.17,0,0,0,0-.14.19.19,0,0,0,0-.15.2.2,0,0,0,0-.15.2.2,0,0,0,0-.15.17.17,0,0,0,0-.14.2.2,0,0,0,0-.15.19.19,0,0,0,0-.15.19.19,0,0,0,0-.2l1.24.71a.81.81,0,0,0,.74,0l4.45-2.57a.19.19,0,0,0,.11-.25.19.19,0,0,0,0-.15.2.2,0,0,0,0-.15.19.19,0,0,0,0-.15.17.17,0,0,0,0-.14.2.2,0,0,0,0-.15.2.2,0,0,0,0-.15.19.19,0,0,0,0-.15.17.17,0,0,0,0-.14.2.2,0,0,0,0-.15.2.2,0,0,0,0-.15.19.19,0,0,0,0-.2l1.24.71a.81.81,0,0,0,.74,0l4.45-2.57a.19.19,0,0,0,.11-.25.2.2,0,0,0,0-.15.2.2,0,0,0,0-.15.17.17,0,0,0,0-.14.2.2,0,0,0,0-.15.2.2,0,0,0,0-.15.2.2,0,0,0,0-.15.17.17,0,0,0,0-.14.19.19,0,0,0,0-.15.2.2,0,0,0,0-.15.2.2,0,0,0,0-.15.19.19,0,0,0,0-.2l1.24.72a.88.88,0,0,0,.74,0l4.45-2.58a.19.19,0,0,0,.11-.25.2.2,0,0,0,0-.15.17.17,0,0,0,0-.14.2.2,0,0,0,0-.15.2.2,0,0,0,0-.15.19.19,0,0,0,0-.15.17.17,0,0,0,0-.14.2.2,0,0,0,0-.15.2.2,0,0,0,0-.15.2.2,0,0,0,0-.15.17.17,0,0,0,0-.14.2.2,0,0,0,0-.21l1.24.72a.84.84,0,0,0,.74,0l7.54-4.35a.2.2,0,0,0,.1-.26.16.16,0,0,0,0-.15.14.14,0,0,0,0-.14.16.16,0,0,0,0-.15.16.16,0,0,0,0-.15s0-.09,0-.15a.14.14,0,0,0,0-.14.16.16,0,0,0,0-.15.16.16,0,0,0,0-.15s0-.09,0-.15a.14.14,0,0,0,0-.14c.05-.11,0-.23-.16-.32l-5.53-3.2a.81.81,0,0,0-.74,0l-7.54,4.35a.2.2,0,0,0-.1.26.14.14,0,0,0,0,.14.16.16,0,0,0,0,.15.16.16,0,0,0,0,.15.16.16,0,0,0,0,.15.14.14,0,0,0,0,.14.16.16,0,0,0,0,.15.16.16,0,0,0,0,.15s0,.09,0,.15a.14.14,0,0,0,0,.14.16.16,0,0,0,0,.15.17.17,0,0,0,0,.2l-1.24-.71a.81.81,0,0,0-.74,0L230,360.53a.19.19,0,0,0-.1.25.16.16,0,0,0,0,.15.16.16,0,0,0,0,.15.16.16,0,0,0,0,.15.14.14,0,0,0,0,.14.16.16,0,0,0,0,.15.16.16,0,0,0,0,.15.16.16,0,0,0,0,.15.14.14,0,0,0,0,.14.16.16,0,0,0,0,.15.16.16,0,0,0,0,.15.17.17,0,0,0,0,.2l-1.24-.71a.81.81,0,0,0-.74,0l-4.45,2.57a.19.19,0,0,0-.1.25.16.16,0,0,0,0,.15.16.16,0,0,0,0,.15.14.14,0,0,0,0,.14.16.16,0,0,0,0,.15.16.16,0,0,0,0,.15.16.16,0,0,0,0,.15.14.14,0,0,0,0,.14.16.16,0,0,0,0,.15.16.16,0,0,0,0,.15.16.16,0,0,0,0,.15.17.17,0,0,0,0,.2l-1.24-.71a.82.82,0,0,0-.73,0L217,368.05a.19.19,0,0,0-.1.25.16.16,0,0,0,0,.15s0,.09,0,.15a.14.14,0,0,0,0,.14.16.16,0,0,0,0,.15.16.16,0,0,0,0,.15.14.14,0,0,0,0,.14.16.16,0,0,0,0,.15.16.16,0,0,0,0,.15.16.16,0,0,0,0,.15.14.14,0,0,0,0,.14.18.18,0,0,0,0,.21l-1.24-.72a.82.82,0,0,0-.73,0l-4.46,2.57a.2.2,0,0,0-.1.26.16.16,0,0,0,0,.15.14.14,0,0,0,0,.14.16.16,0,0,0,0,.15.16.16,0,0,0,0,.15.16.16,0,0,0,0,.15.14.14,0,0,0,0,.14.16.16,0,0,0,0,.15.16.16,0,0,0,0,.15.16.16,0,0,0,0,.15.14.14,0,0,0,0,.14.18.18,0,0,0,0,.21l-1.24-.72a.82.82,0,0,0-.73,0L204,375.56a.2.2,0,0,0-.1.26.14.14,0,0,0,0,.14.16.16,0,0,0,0,.15.16.16,0,0,0,0,.15.16.16,0,0,0,0,.15.14.14,0,0,0,0,.14.16.16,0,0,0,0,.15.16.16,0,0,0,0,.15.16.16,0,0,0,0,.15.14.14,0,0,0,0,.14.16.16,0,0,0,0,.15.18.18,0,0,0,0,.21l-1.24-.72a.79.79,0,0,0-.73,0l-4.46,2.57a.2.2,0,0,0-.1.26.14.14,0,0,0,0,.14.16.16,0,0,0,0,.15.16.16,0,0,0,0,.15.14.14,0,0,0,0,.14.16.16,0,0,0,0,.15.16.16,0,0,0,0,.15.16.16,0,0,0,0,.15.14.14,0,0,0,0,.14.16.16,0,0,0,0,.15.16.16,0,0,0,0,.15.18.18,0,0,0,0,.2l-1.23-.71a.81.81,0,0,0-.74,0L191,383.08a.19.19,0,0,0-.1.25.16.16,0,0,0,0,.15.16.16,0,0,0,0,.15.16.16,0,0,0,0,.15.14.14,0,0,0,0,.14.16.16,0,0,0,0,.15.16.16,0,0,0,0,.15.16.16,0,0,0,0,.15.14.14,0,0,0,0,.14.16.16,0,0,0,0,.15.16.16,0,0,0,0,.15.19.19,0,0,0,0,.2l-1.23-.71a.81.81,0,0,0-.74,0l-4.46,2.57a.19.19,0,0,0-.1.25.19.19,0,0,0,0,.15.2.2,0,0,0,0,.15.17.17,0,0,0,0,.14.19.19,0,0,0,0,.15.2.2,0,0,0,0,.15.19.19,0,0,0,0,.15.17.17,0,0,0,0,.14.2.2,0,0,0,0,.15.19.19,0,0,0,0,.15.19.19,0,0,0,0,.15.19.19,0,0,0,0,.2l-1.23-.71a.84.84,0,0,0-.74,0l-4.46,2.58a.19.19,0,0,0-.1.25.2.2,0,0,0,0,.15.19.19,0,0,0,0,.15.17.17,0,0,0,0,.14.19.19,0,0,0,0,.15.2.2,0,0,0,0,.15.17.17,0,0,0,0,.14.19.19,0,0,0,0,.15.2.2,0,0,0,0,.15.19.19,0,0,0,0,.15.17.17,0,0,0,0,.14.23.23,0,0,0,0,.21l-1.23-.72a.84.84,0,0,0-.74,0l-4.46,2.57a.2.2,0,0,0-.1.26.19.19,0,0,0,0,.15.17.17,0,0,0,0,.14.19.19,0,0,0,0,.15.2.2,0,0,0,0,.15.19.19,0,0,0,0,.15.17.17,0,0,0,0,.14.2.2,0,0,0,0,.15.19.19,0,0,0,0,.15.19.19,0,0,0,0,.15.17.17,0,0,0,0,.14.2.2,0,0,0,0,.21l-1.24-.72a.84.84,0,0,0-.74,0l-4.45,2.57a.2.2,0,0,0-.11.26.17.17,0,0,0,0,.14.19.19,0,0,0,0,.15.2.2,0,0,0,0,.15.19.19,0,0,0,0,.15.17.17,0,0,0,0,.14.2.2,0,0,0,0,.15.2.2,0,0,0,0,.15.19.19,0,0,0,0,.15.17.17,0,0,0,0,.14.2.2,0,0,0,0,.15.2.2,0,0,0,0,.21l-1.24-.72a.81.81,0,0,0-.74,0l-4.45,2.57c-.12.07-.15.16-.11.25a.19.19,0,0,0,0,.15.19.19,0,0,0,0,.15.2.2,0,0,0,0,.15.17.17,0,0,0,0,.14.19.19,0,0,0,0,.15.2.2,0,0,0,0,.15.19.19,0,0,0,0,.15.17.17,0,0,0,0,.14.19.19,0,0,0,0,.15.19.19,0,0,0,0,.15.19.19,0,0,0,0,.2l-1.24-.71a.81.81,0,0,0-.74,0l-4.45,2.57a.19.19,0,0,0-.11.25.19.19,0,0,0,0,.15.19.19,0,0,0,0,.15.19.19,0,0,0,0,.15.17.17,0,0,0,0,.14.19.19,0,0,0,0,.15.2.2,0,0,0,0,.15.17.17,0,0,0,0,.14.19.19,0,0,0,0,.15.2.2,0,0,0,0,.15.19.19,0,0,0,0,.15c-.05.1,0,.23.16.32l5.54,3.19a.84.84,0,0,0,.74,0l4.45-2.58A.19.19,0,0,0,162.79,408.08Z" style="fill:#263238"></path><path d="M268.24,354.91l4.46-2.58c.19-.1.16-.3-.05-.42l-5.54-3.2a.81.81,0,0,0-.74,0l-4.46,2.57c-.18.11-.16.3.06.43l5.54,3.2A.82.82,0,0,0,268.24,354.91Zm-9.78-10.8L254,346.68c-.19.11-.16.3.06.43l5.53,3.2a.84.84,0,0,0,.74,0l4.46-2.57c.19-.11.16-.3-.06-.43l-5.54-3.2A.82.82,0,0,0,258.46,344.11Zm-14.39,8.31-7.54,4.35c-.19.11-.17.3.05.43l5.54,3.2a.88.88,0,0,0,.74,0l7.54-4.36c.19-.1.16-.3-.06-.42l-5.53-3.2A.81.81,0,0,0,244.07,352.42Zm7.88-4.55-4.46,2.57c-.19.11-.16.3.06.43l5.54,3.2a.82.82,0,0,0,.73,0l4.46-2.58c.19-.1.16-.3-.06-.42l-5.53-3.2A.81.81,0,0,0,252,347.87ZM234.47,358,230,360.53c-.19.11-.16.3,0,.43l5.54,3.19a.81.81,0,0,0,.74,0l4.45-2.57c.19-.11.17-.3-.05-.42l-5.54-3.2A.81.81,0,0,0,234.47,358ZM228,361.72l-4.45,2.57c-.19.11-.16.3.05.42l5.54,3.2a.81.81,0,0,0,.74,0l4.45-2.57c.19-.11.17-.3,0-.43l-5.54-3.19A.81.81,0,0,0,228,361.72Zm21.82,13,4.45-2.58c.19-.11.17-.3,0-.42l-5.54-3.2a.81.81,0,0,0-.74,0l-4.45,2.57c-.19.11-.17.3.05.43l5.54,3.19A.84.84,0,0,0,249.78,374.71Zm-6.51,3.75,4.45-2.57c.19-.11.17-.3-.05-.42l-5.54-3.2a.81.81,0,0,0-.74,0l-4.45,2.57c-.19.11-.17.3.05.42l5.54,3.2A.81.81,0,0,0,243.27,378.46Zm-6.51,3.76,4.45-2.57c.19-.11.17-.3-.05-.43L235.62,376a.81.81,0,0,0-.74,0l-4.45,2.57c-.19.11-.17.3,0,.42l5.54,3.2A.81.81,0,0,0,236.76,382.22ZM230.25,386l4.45-2.57c.19-.11.17-.3,0-.43l-5.54-3.2a.84.84,0,0,0-.74,0l-4.45,2.58c-.19.1-.17.3.05.42l5.54,3.2A.81.81,0,0,0,230.25,386Zm31.49-27.32,4.45-2.57c.19-.11.16-.3-.05-.42l-5.54-3.2a.81.81,0,0,0-.74,0L255.41,355c-.19.11-.17.3.05.43l5.54,3.19A.81.81,0,0,0,261.74,358.66ZM256.29,371l9.93-5.74c.19-.11.17-.3-.05-.43L252.72,357a.81.81,0,0,0-.74,0l-5.14,3c-.19.11-.16.31,0,.43l7.12,4.11c.22.13.25.32.06.43L250,367.29c-.19.11-.17.3,0,.43l5.54,3.2A.84.84,0,0,0,256.29,371Zm-34.83-5.48L217,368.05c-.19.11-.16.3.05.42l5.54,3.2a.81.81,0,0,0,.74,0l4.45-2.57c.19-.11.17-.3-.05-.43l-5.54-3.19A.82.82,0,0,0,221.46,365.47ZM215,369.23l-4.46,2.57c-.19.11-.16.3.06.43l5.53,3.2a.84.84,0,0,0,.74,0l4.46-2.57c.18-.11.16-.3-.06-.43l-5.54-3.2A.82.82,0,0,0,215,369.23Zm-31,43a.84.84,0,0,0,.74,0l4.46-2.57c.18-.11.16-.3-.06-.43l-5.54-3.2a.82.82,0,0,0-.73,0l-4.46,2.57c-.19.11-.16.3.05.43Zm-21.07-13-4.45,2.57c-.19.11-.17.3.05.43l5.54,3.19a.81.81,0,0,0,.74,0L169.2,403c.19-.11.16-.3,0-.42l-5.54-3.2A.81.81,0,0,0,162.87,399.3Zm11.45,9.38a.84.84,0,0,0,.74,0l4.45-2.57c.19-.11.17-.3,0-.43l-5.54-3.2a.84.84,0,0,0-.74,0l-4.45,2.57c-.19.11-.17.3.05.43Zm21.7,6.2,4.45-2.57c.19-.11.17-.3-.05-.43l-5.54-3.2a.84.84,0,0,0-.74,0l-4.45,2.57c-.19.11-.17.3.05.43l5.54,3.2A.84.84,0,0,0,196,414.88Zm-7.25,3.73a.84.84,0,0,0,.74,0l4.45-2.58c.19-.1.17-.3-.05-.42l-5.54-3.2a.81.81,0,0,0-.74,0L183.18,415c-.19.11-.17.3,0,.43Zm-19.39-23.07-4.45,2.57c-.19.11-.17.3,0,.43l5.54,3.2a.84.84,0,0,0,.74,0l4.45-2.57c.19-.11.16-.3-.05-.43l-5.54-3.2A.84.84,0,0,0,169.38,395.54Zm32.55-18.79-4.46,2.57c-.19.11-.16.3.06.43l5.53,3.19a.84.84,0,0,0,.74,0l4.46-2.58c.19-.11.16-.3-.06-.42l-5.54-3.2A.79.79,0,0,0,201.93,376.75Zm-26,15-4.46,2.57c-.18.11-.16.3.06.43L177,398a.82.82,0,0,0,.73,0l4.46-2.57c.19-.11.16-.3-.05-.43l-5.54-3.2A.84.84,0,0,0,175.89,391.78ZM208.44,373,204,375.56c-.19.11-.16.3.06.43l5.53,3.2a.84.84,0,0,0,.74,0l4.46-2.57c.19-.11.16-.3-.06-.43l-5.54-3.2A.82.82,0,0,0,208.44,373Zm-13,7.52L191,383.08c-.19.11-.16.3.06.43l5.54,3.19a.79.79,0,0,0,.73,0l4.46-2.57c.19-.11.16-.3-.06-.42l-5.53-3.2A.81.81,0,0,0,195.42,380.51Zm-6.51,3.76-4.46,2.57c-.19.11-.16.3.06.42l5.54,3.2a.79.79,0,0,0,.73,0l4.46-2.57c.19-.11.16-.3-.06-.43l-5.53-3.19A.81.81,0,0,0,188.91,384.27ZM182.4,388l-4.46,2.58c-.18.11-.16.3.06.42l5.54,3.2a.79.79,0,0,0,.73,0l4.46-2.57c.19-.11.16-.3-.06-.43l-5.53-3.19A.84.84,0,0,0,182.4,388Zm34.83,5.48,4.45-2.58c.19-.1.17-.3-.05-.42l-5.54-3.2a.81.81,0,0,0-.74,0l-4.45,2.57c-.19.11-.17.3,0,.43l5.54,3.2A.84.84,0,0,0,217.23,393.5Zm55.62-57.7-4.46,2.58c-.19.1-.16.3.06.42L274,342a.81.81,0,0,0,.74,0l4.46-2.57c.19-.11.16-.3-.06-.43l-5.54-3.2A.85.85,0,0,0,272.85,335.8ZM265,340.35l-4.46,2.58c-.19.1-.16.3.06.42l5.53,3.2a.81.81,0,0,0,.74,0L271.3,344c.19-.11.16-.3-.06-.43l-5.54-3.2A.82.82,0,0,0,265,340.35Zm14.39-8.3-4.46,2.57c-.19.11-.16.3.05.42l5.54,3.2a.81.81,0,0,0,.74,0l4.46-2.57c.18-.11.16-.3-.06-.43l-5.54-3.19A.79.79,0,0,0,279.36,332.05Zm-32.7,35.32,4.45-2.57c.19-.11.17-.3-.05-.43l-5.54-3.2a.84.84,0,0,0-.74,0l-4.45,2.57c-.19.11-.16.3,0,.43l5.54,3.2A.84.84,0,0,0,246.66,367.37Zm39.94-39.05a.81.81,0,0,0-.74,0l-4.45,2.57c-.19.11-.16.3,0,.43l5.54,3.19a.81.81,0,0,0,.74,0l4.45-2.57c.19-.11.17-.3-.05-.42Zm-62.86,61.42,4.45-2.57c.19-.11.17-.3-.05-.43l-5.54-3.2a.84.84,0,0,0-.74,0l-4.45,2.57c-.19.11-.17.3.05.43l5.54,3.2A.84.84,0,0,0,223.74,389.74Zm79.83-46.09,4.45-2.57c.19-.11.16-.3,0-.43l-5.54-3.2a.84.84,0,0,0-.74,0L297.24,340c-.19.1-.17.3.05.42l5.54,3.2A.81.81,0,0,0,303.57,343.65Zm-14.43-.81,4.46-2.57c.19-.11.16-.3-.06-.43l-5.53-3.2a.88.88,0,0,0-.74,0l-4.46,2.58c-.19.1-.16.3.06.42l5.54,3.2A.79.79,0,0,0,289.14,342.84Zm5.38-9.95a.81.81,0,0,0-.74,0l-4.46,2.57c-.19.11-.16.3.06.42l5.54,3.2a.79.79,0,0,0,.73,0l4.46-2.57c.19-.11.16-.3-.06-.43Zm1.37-.79,13.45,7.76a.79.79,0,0,0,.73,0l4.46-2.57c.19-.11.16-.3,0-.43L301,329.13a.79.79,0,0,0-.73,0l-4.46,2.57C295.64,331.78,295.67,332,295.89,332.1Zm-15.13,8.27-4.46,2.57c-.18.11-.16.3.06.43l5.54,3.2a.82.82,0,0,0,.73,0l4.46-2.57c.19-.11.16-.3,0-.43l-5.54-3.2A.84.84,0,0,0,280.76,340.37Zm-49,28.29-4.46,2.57c-.19.11-.16.3.05.43l5.54,3.19a.81.81,0,0,0,.74,0l4.46-2.57c.18-.11.16-.3-.06-.42l-5.54-3.2A.79.79,0,0,0,231.77,368.66Zm64.55-21.28a.84.84,0,0,0,.74,0l4.45-2.57c.19-.11.17-.3-.05-.43l-5.54-3.2a.84.84,0,0,0-.74,0l-4.45,2.57c-.19.11-.17.3,0,.43Zm-58,17.52-4.46,2.57c-.19.11-.16.3.05.43l5.54,3.2a.84.84,0,0,0,.74,0l4.45-2.58c.19-.1.17-.3,0-.42l-5.54-3.2A.79.79,0,0,0,238.28,364.9Zm-47.83,43.6a.84.84,0,0,0,.74,0l4.45-2.57c.19-.11.17-.3,0-.43l-5.54-3.2a.84.84,0,0,0-.74,0l-4.45,2.58c-.19.1-.16.3,0,.42Zm-10.76-9.78-4.45,2.58c-.19.11-.17.3,0,.42l5.54,3.2a.81.81,0,0,0,.74,0l4.45-2.57c.19-.11.16-.3-.05-.43l-5.54-3.19A.84.84,0,0,0,179.69,398.72Zm18,6,4.45-2.57c.19-.11.17-.3-.05-.43l-5.54-3.19a.81.81,0,0,0-.74,0l-4.45,2.57c-.19.11-.17.3,0,.42l5.54,3.2A.81.81,0,0,0,197.7,404.77Zm6.51-3.76,4.45-2.57c.19-.11.17-.3,0-.42l-5.54-3.2a.81.81,0,0,0-.74,0l-4.45,2.57c-.19.11-.17.3.05.42l5.54,3.2A.81.81,0,0,0,204.21,401Zm6.51-3.76,4.45-2.57c.19-.11.17-.3,0-.42l-5.54-3.2a.81.81,0,0,0-.74,0l-4.45,2.57c-.19.11-.17.3.05.43l5.54,3.19A.81.81,0,0,0,210.72,397.25ZM186.2,395l-4.45,2.57c-.19.11-.17.3.05.42l5.54,3.2a.79.79,0,0,0,.73,0l4.46-2.57c.19-.11.16-.3-.05-.43L186.94,395A.81.81,0,0,0,186.2,395Zm6.51-3.76-4.46,2.57c-.18.11-.16.3.06.43l5.54,3.19a.79.79,0,0,0,.73,0l4.46-2.57c.19-.11.16-.3,0-.42l-5.54-3.2A.81.81,0,0,0,192.71,391.21Zm26-15-4.46,2.58c-.19.11-.16.3.06.42l5.53,3.2a.81.81,0,0,0,.74,0l4.46-2.57c.19-.11.16-.3-.06-.43l-5.54-3.19A.82.82,0,0,0,218.75,376.17Zm-6.51,3.76-4.46,2.57c-.19.11-.16.3.06.43l5.53,3.2a.84.84,0,0,0,.74,0l4.46-2.57c.19-.11.16-.3-.06-.43L213,380A.84.84,0,0,0,212.24,379.93Zm13-7.51L220.8,375c-.19.11-.16.3.06.42l5.53,3.2a.81.81,0,0,0,.74,0l4.46-2.57c.19-.11.16-.3-.06-.43L226,372.45A.79.79,0,0,0,225.26,372.42Zm-26,15L194.76,390c-.18.11-.16.3.06.43l5.54,3.19a.82.82,0,0,0,.73,0l4.46-2.58c.19-.11.16-.3-.06-.42l-5.53-3.2A.81.81,0,0,0,199.22,387.45Zm6.51-3.76-4.46,2.57c-.19.11-.16.3.06.43l5.54,3.2a.82.82,0,0,0,.73,0l4.46-2.57c.19-.11.16-.3-.06-.43l-5.53-3.2A.84.84,0,0,0,205.73,383.69Zm-3.2,27.43,4.45-2.57c.19-.11.17-.3,0-.43l-5.54-3.2a.84.84,0,0,0-.74,0l-4.45,2.57c-.19.11-.17.31.05.43l5.54,3.2A.84.84,0,0,0,202.53,411.12Zm-39.89-4.83-5.54-3.2a.81.81,0,0,0-.74,0l-4.45,2.57c-.19.11-.17.3.05.43l5.54,3.19a.81.81,0,0,0,.74,0l4.45-2.57C162.88,406.6,162.86,406.41,162.64,406.29ZM173,409.47l-5.54-3.2a.84.84,0,0,0-.74,0l-6.85,4c-.19.11-.17.3.05.42l5.54,3.2a.81.81,0,0,0,.74,0l6.85-4C173.19,409.79,173.17,409.6,173,409.47Zm-18.89-9.32-5.54-3.2a.79.79,0,0,0-.73,0l-5.49,3.17c-.19.1-.16.3.06.42l5.53,3.2a.84.84,0,0,0,.74,0l5.49-3.17C154.3,400.47,154.28,400.27,154.06,400.15Zm4.2-2.43a.81.81,0,0,0,.74,0l4.46-2.57c.19-.11.16-.3-.06-.43l-5.54-3.19a.79.79,0,0,0-.73,0l-4.46,2.57c-.19.11-.16.3.06.42Zm24.31,15.33-5.54-3.2a.79.79,0,0,0-.73,0l-8.57,4.95c-.19.1-.16.3.05.42l5.54,3.2a.81.81,0,0,0,.74,0l8.57-4.95C182.81,413.37,182.79,413.17,182.57,413.05Zm4.83,6.35-5.54-3.2a.81.81,0,0,0-.74,0l-5.48,3.16c-.19.11-.16.3.06.43l5.53,3.2a.84.84,0,0,0,.74,0l5.48-3.17C187.64,419.71,187.62,419.52,187.4,419.4Zm19.26-49.62a.81.81,0,0,0,.74,0l4.46-2.57c.18-.11.16-.3-.06-.43l-5.54-3.2a.82.82,0,0,0-.73,0l-4.46,2.57c-.19.11-.16.3.05.43Zm-13,7.52a.84.84,0,0,0,.74,0l4.46-2.58c.19-.1.16-.3-.06-.42l-5.54-3.2a.79.79,0,0,0-.73,0l-4.46,2.57c-.19.11-.16.3.06.43ZM164.77,394a.81.81,0,0,0,.74,0l4.46-2.57c.19-.11.16-.3-.06-.42l-5.54-3.2a.79.79,0,0,0-.73,0l-4.46,2.57c-.19.11-.16.3.06.43Zm35.38-20.42a.84.84,0,0,0,.74,0l4.46-2.57c.19-.11.16-.3-.06-.43l-5.54-3.2a.82.82,0,0,0-.73,0l-4.46,2.57c-.19.11-.16.3.06.43Zm-13,7.51a.81.81,0,0,0,.74,0l4.46-2.57c.19-.11.16-.3-.06-.42l-5.53-3.2a.81.81,0,0,0-.74,0l-4.46,2.57c-.19.11-.16.3.06.43Zm4,38.93a.81.81,0,0,0-.74,0l-6.86,3.95c-.18.11-.16.3.06.43l5.54,3.19a.79.79,0,0,0,.73,0l6.86-4c.19-.11.16-.3-.06-.43Zm-13.36-33.53a.84.84,0,0,0,.74,0l4.46-2.57c.18-.11.16-.3-.06-.43l-5.54-3.2a.82.82,0,0,0-.73,0l-4.46,2.57c-.19.11-.16.3.05.43Zm-6.51,3.76a.84.84,0,0,0,.74,0l4.46-2.58c.18-.1.16-.3-.06-.42l-5.54-3.2a.79.79,0,0,0-.73,0l-4.46,2.57c-.19.11-.16.3.06.43Zm140.46-39.86a.81.81,0,0,0-.74,0l-11,6.33c-.19.11-.16.3,0,.42l5.54,3.2a.81.81,0,0,0,.74,0l11-6.33c.19-.11.17-.3-.05-.42Zm-14.39,8.31a.81.81,0,0,0-.74,0l-4.45,2.57c-.19.11-.16.3,0,.42l5.54,3.2a.81.81,0,0,0,.74,0l4.45-2.57c.19-.11.17-.3-.05-.43ZM209,407.36l4.45-2.57c.19-.11.17-.3-.05-.43l-5.54-3.19a.81.81,0,0,0-.74,0l-4.45,2.57c-.19.11-.17.3,0,.42l5.54,3.2A.81.81,0,0,0,209,407.36Zm75.29-41.19a.82.82,0,0,0-.73,0l-4.46,2.57c-.19.11-.16.3.05.43l5.54,3.2a.84.84,0,0,0,.74,0l4.46-2.57c.18-.11.16-.3-.06-.43Zm33.92-19.58a.81.81,0,0,0-.74,0l-4.45,2.57c-.19.11-.17.3.05.43l5.54,3.2a.84.84,0,0,0,.74,0l4.45-2.58c.19-.1.17-.3,0-.42ZM330.3,346l-13.45-7.77a.84.84,0,0,0-.74,0l-4.45,2.58c-.19.1-.17.3,0,.42L325.16,349a.84.84,0,0,0,.74,0l4.45-2.57C330.54,346.35,330.52,346.16,330.3,346ZM260,380.22a.81.81,0,0,0-.74,0l-5.48,3.16c-.19.11-.17.3.05.43l5.54,3.2a.84.84,0,0,0,.74,0l5.48-3.17c.19-.11.17-.3-.05-.42Zm16.44-9.5a.82.82,0,0,0-.73,0l-6.86,4c-.19.11-.16.3.06.42l5.54,3.2a.79.79,0,0,0,.73,0l6.86-3.95c.19-.11.16-.3-.06-.43Zm-31.52,18.2a.79.79,0,0,0-.73,0l-36.66,21.17c-.19.1-.17.3.05.42l5.54,3.2a.81.81,0,0,0,.74,0l36.66-21.17c.19-.1.16-.3-.06-.42Zm-38.71,22.35a.84.84,0,0,0-.74,0L200,414.41c-.19.11-.17.3.05.42l5.54,3.2a.81.81,0,0,0,.74,0l5.48-3.16c.19-.11.17-.3-.05-.43Zm46.25-26.7a.81.81,0,0,0-.74,0l-5.48,3.16c-.19.11-.16.3.05.43l5.54,3.2a.84.84,0,0,0,.74,0l5.48-3.17c.19-.11.17-.3-.05-.42Zm-53.79,31.05a.84.84,0,0,0-.74,0l-5.48,3.17c-.19.11-.16.3.06.42l5.53,3.2a.81.81,0,0,0,.74,0l5.48-3.16c.19-.11.17-.3-.05-.43Zm68.87-39.75a.81.81,0,0,0-.74,0L261.33,379c-.19.11-.17.3.05.43l5.54,3.19a.81.81,0,0,0,.74,0l5.48-3.16c.19-.11.16-.3-.06-.43Zm23.29-13.46a.85.85,0,0,0-.73,0L285.65,365c-.19.11-.16.3.05.42l5.54,3.2a.81.81,0,0,0,.74,0l4.46-2.57c.18-.11.16-.3-.06-.43ZM305,352l4.45-2.58c.19-.1.17-.3-.05-.42l-5.54-3.2a.81.81,0,0,0-.74,0l-4.45,2.57c-.19.11-.17.3.05.43l5.54,3.2A.84.84,0,0,0,305,352Zm-30.22-.83,4.46-2.57c.19-.11.16-.3,0-.43l-5.54-3.2a.84.84,0,0,0-.74,0l-4.46,2.57c-.18.11-.16.3.06.43l5.54,3.2A.82.82,0,0,0,274.75,351.15ZM261.11,377.3l13-7.52c.19-.11.17-.3-.05-.43l-5.54-3.2a.84.84,0,0,0-.74,0l-13,7.52c-.18.11-.16.3.06.43l5.54,3.19A.82.82,0,0,0,261.11,377.3Zm36.61-21.6a.81.81,0,0,0,.74,0l4.45-2.57c.19-.11.17-.3-.05-.42l-5.54-3.2a.81.81,0,0,0-.74,0l-4.45,2.57c-.19.11-.17.3.05.43Zm-7.17-4.53,4.45-2.58c.19-.1.17-.3-.05-.42l-5.54-3.2a.81.81,0,0,0-.74,0l-4.45,2.57c-.19.11-.17.3,0,.43l5.54,3.2A.84.84,0,0,0,290.55,351.17Zm-36,29.88,4.46-2.57c.19-.11.16-.3-.05-.42l-5.54-3.2a.81.81,0,0,0-.74,0l-4.45,2.57c-.19.11-.17.3.05.42l5.54,3.2A.79.79,0,0,0,254.6,381.05Zm28.73-17a.81.81,0,0,0,.74,0l4.45-2.57c.19-.11.17-.3,0-.43l-5.54-3.19a.81.81,0,0,0-.74,0l-4.45,2.57c-.19.11-.17.3.05.42Zm-61.27,35.83,4.45-2.57c.19-.11.17-.3,0-.42l-5.54-3.2a.81.81,0,0,0-.74,0l-4.45,2.57c-.19.11-.17.3.05.43l5.54,3.19A.81.81,0,0,0,222.06,399.84Zm6.51-3.75,4.45-2.57c.19-.11.17-.31-.05-.43l-5.54-3.2a.84.84,0,0,0-.74,0l-4.45,2.57c-.19.11-.17.3,0,.43l5.54,3.2A.84.84,0,0,0,228.57,396.09Zm-13,7.51L220,401c.19-.11.17-.3-.05-.42l-5.54-3.2a.81.81,0,0,0-.74,0L209.22,400c-.19.11-.17.3.05.42l5.54,3.2A.81.81,0,0,0,215.55,403.6Zm26-15L246,386c.19-.11.17-.3,0-.43l-5.54-3.2a.84.84,0,0,0-.74,0l-4.45,2.58c-.19.1-.17.3.05.42l5.54,3.2A.81.81,0,0,0,241.59,388.57Zm-6.51,3.76,4.45-2.57c.19-.11.17-.3-.05-.43l-5.54-3.2a.84.84,0,0,0-.74,0l-4.45,2.57c-.19.11-.17.3.05.43l5.54,3.2A.84.84,0,0,0,235.08,392.33Zm13-7.52,4.45-2.57c.19-.11.16-.3-.05-.43L247,378.62a.81.81,0,0,0-.74,0l-4.45,2.57c-.19.11-.17.3,0,.42l5.54,3.2A.81.81,0,0,0,248.1,384.81Zm-4.62-36.29a.81.81,0,0,0,.74,0l4.45-2.57c.19-.11.17-.3,0-.43l-5.54-3.19a.81.81,0,0,0-.74,0l-4.45,2.57c-.19.11-.17.3.05.42Zm13-7.52a.84.84,0,0,0,.74,0l4.45-2.58c.19-.11.17-.3-.05-.42l-5.54-3.2a.81.81,0,0,0-.74,0l-4.45,2.57c-.19.11-.17.3.05.43Zm-21,12.11a.81.81,0,0,0,.74,0l4.46-2.57c.18-.11.16-.3-.06-.43L235.13,347a.79.79,0,0,0-.73,0l-4.46,2.57c-.19.11-.16.3.06.42ZM250,344.76a.81.81,0,0,0,.74,0l4.45-2.57c.19-.11.17-.3-.05-.42l-5.54-3.2a.81.81,0,0,0-.74,0l-4.45,2.57c-.19.11-.17.3,0,.43Zm-27.48,15.87a.84.84,0,0,0,.74,0l4.46-2.57c.19-.11.16-.3-.06-.43l-5.53-3.2a.84.84,0,0,0-.74,0L216.92,357c-.19.11-.16.3.06.43Zm6.51-3.76a.81.81,0,0,0,.74,0l4.46-2.57c.19-.11.16-.3-.06-.43l-5.54-3.2a.82.82,0,0,0-.73,0l-4.46,2.57c-.19.11-.16.3.06.43Zm64.49-26.15a.84.84,0,0,0,.74,0l4.45-2.58c.19-.11.17-.3-.05-.42l-5.54-3.2a.81.81,0,0,0-.74,0l-4.45,2.57c-.19.11-.16.3.05.43Zm18,17.5,4.45-2.57c.19-.11.17-.3-.05-.43l-5.54-3.2a.84.84,0,0,0-.74,0l-4.45,2.57c-.19.11-.17.3.05.43l5.54,3.2A.84.84,0,0,0,311.48,348.22ZM216,364.39a.88.88,0,0,0,.74,0l4.46-2.58c.19-.1.16-.3-.06-.42l-5.53-3.2a.81.81,0,0,0-.74,0l-4.46,2.57c-.19.11-.16.3.06.43Z" style="fill:#455a64"></path><path d="M260.72,334.41a.14.14,0,0,0,0,.14.16.16,0,0,0,0,.15.16.16,0,0,0,0,.15.16.16,0,0,0,0,.15.14.14,0,0,0,0,.14.16.16,0,0,0,0,.15.16.16,0,0,0,0,.15.16.16,0,0,0,0,.15.14.14,0,0,0,0,.14c-.06.11,0,.23.15.32l1.48.85a.81.81,0,0,0,.74,0l4.45-2.57a.23.23,0,0,0,.11-.11.22.22,0,0,0,0-.14.2.2,0,0,0,0-.15h0a.2.2,0,0,0,0-.15h0a.17.17,0,0,0,0-.14h0a.2.2,0,0,0,0-.15h0a.2.2,0,0,0,0-.15h0a.19.19,0,0,0,0-.15h0a.17.17,0,0,0,0-.14h0a.19.19,0,0,0,0-.15h0a.2.2,0,0,0,0-.15h0a.19.19,0,0,0,0-.15h0a.22.22,0,0,0,0-.14h0l0,0a0,0,0,0,0,0,0l1.24.72a.84.84,0,0,0,.74,0l4.45-2.58a.23.23,0,0,0,.11-.11.22.22,0,0,0,0-.14.2.2,0,0,0,0-.15h0a.17.17,0,0,0,0-.14h0a.19.19,0,0,0,0-.15h0a.2.2,0,0,0,0-.15.2.2,0,0,0,0-.15.17.17,0,0,0,0-.14.2.2,0,0,0,0-.15.2.2,0,0,0,0-.15.2.2,0,0,0,0-.15.17.17,0,0,0,0-.14h0a.26.26,0,0,0,0-.15h0l0,0a0,0,0,0,0,0,0l1.24.72a.84.84,0,0,0,.74,0l4.45-2.57a.3.3,0,0,0,.11-.12.22.22,0,0,0,0-.14.25.25,0,0,0,0-.15h0a.22.22,0,0,0,0-.14h0a.26.26,0,0,0,0-.15h0a.26.26,0,0,0,0-.15h0a.22.22,0,0,0,0-.14h0a.26.26,0,0,0,0-.15h0a.26.26,0,0,0,0-.15h0a.26.26,0,0,0,0-.15h0a.22.22,0,0,0,0-.14h0a.26.26,0,0,0,0-.15h0a.22.22,0,0,0,0-.14h0l0,0a0,0,0,0,0,0,0l1.24.72a.81.81,0,0,0,.74,0l4.45-2.57a.21.21,0,0,0,.11-.12.17.17,0,0,0,0-.14.14.14,0,0,0,0-.14h0a.16.16,0,0,0,0-.15h0a.16.16,0,0,0,0-.15h0a.16.16,0,0,0,0-.15h0a.14.14,0,0,0,0-.14h0a.16.16,0,0,0,0-.15h0a.16.16,0,0,0,0-.15h0s0-.09,0-.15h0a.14.14,0,0,0,0-.14h0a.16.16,0,0,0,0-.15.16.16,0,0,0,0-.15h0a0,0,0,0,0,0,0h0A.37.37,0,0,0,287,321l-1.48-.85a.81.81,0,0,0-.74,0l-4.45,2.57a.25.25,0,0,0-.11.12h0a.19.19,0,0,0,0,.13h0a.16.16,0,0,0,0,.15h0a.16.16,0,0,0,0,.15h0a.16.16,0,0,0,0,.15h0a.14.14,0,0,0,0,.14h0a.16.16,0,0,0,0,.15h0a.16.16,0,0,0,0,.15h0a.16.16,0,0,0,0,.15h0a.14.14,0,0,0,0,.14h0a.16.16,0,0,0,0,.15h0a.16.16,0,0,0,0,.15.17.17,0,0,0,0,.2L279,324a.81.81,0,0,0-.74,0l-4.45,2.57a.25.25,0,0,0-.11.12h0a.19.19,0,0,0,0,.13h0a.16.16,0,0,0,0,.15.16.16,0,0,0,0,.15.14.14,0,0,0,0,.14.16.16,0,0,0,0,.15.16.16,0,0,0,0,.15.16.16,0,0,0,0,.15.14.14,0,0,0,0,.14.16.16,0,0,0,0,.15.16.16,0,0,0,0,.15.16.16,0,0,0,0,.15h0a.17.17,0,0,0,0,.2l-1.24-.71a.8.8,0,0,0-.38-.11.75.75,0,0,0-.35.07h0l-4.45,2.57a.21.21,0,0,0-.11.12h0a.2.2,0,0,0,0,.13h0a.16.16,0,0,0,0,.15.16.16,0,0,0,0,.15h0a.14.14,0,0,0,0,.14h0a.16.16,0,0,0,0,.15h0a.16.16,0,0,0,0,.15s0,.09,0,.15a.14.14,0,0,0,0,.14.16.16,0,0,0,0,.15h0a.16.16,0,0,0,0,.15h0s0,.09,0,.15a.17.17,0,0,0,0,.2l-1.24-.72a.82.82,0,0,0-.73,0L260.82,334a.27.27,0,0,0-.11.13h0a.2.2,0,0,0,0,.13A.16.16,0,0,0,260.72,334.41Z" style="fill:#09AFF4"></path><path d="M275.37,327.77a.84.84,0,0,0,.74,0l4.45-2.58c.19-.1.17-.29-.05-.42L279,324a.81.81,0,0,0-.74,0l-4.45,2.57c-.19.11-.16.3.05.42Z" style="fill:#09AFF4"></path><path d="M262.35,335.28a.81.81,0,0,0,.74,0l4.45-2.57c.19-.11.17-.3-.05-.42l-1.48-.86a.82.82,0,0,0-.73,0L260.82,334c-.19.11-.16.3.05.43Z" style="fill:#09AFF4"></path><path d="M281.88,324a.84.84,0,0,0,.74,0l4.45-2.57c.19-.11.17-.3-.05-.43l-1.48-.85a.81.81,0,0,0-.74,0l-4.45,2.57c-.19.11-.17.3,0,.43Z" style="fill:#09AFF4"></path><path d="M268.86,331.52a.81.81,0,0,0,.74,0l4.45-2.57c.19-.11.17-.3-.05-.42l-1.48-.85a.81.81,0,0,0-.74,0l-4.45,2.57c-.19.11-.16.3.05.42Z" style="fill:#09AFF4"></path><path d="M275.37,327.77a.84.84,0,0,0,.74,0l4.45-2.58c.19-.1.17-.29-.05-.42L279,324a.81.81,0,0,0-.74,0l-4.45,2.57c-.19.11-.16.3.05.42Z" style="fill:#fff;opacity:0.4"></path><path d="M262.35,335.28a.81.81,0,0,0,.74,0l4.45-2.57c.19-.11.17-.3-.05-.42l-1.48-.86a.82.82,0,0,0-.73,0L260.82,334c-.19.11-.16.3.05.43Z" style="fill:#fff;opacity:0.4"></path><path d="M281.88,324a.84.84,0,0,0,.74,0l4.45-2.57c.19-.11.17-.3-.05-.43l-1.48-.85a.81.81,0,0,0-.74,0l-4.45,2.57c-.19.11-.17.3,0,.43Z" style="fill:#fff;opacity:0.4"></path><path d="M268.86,331.52a.81.81,0,0,0,.74,0l4.45-2.57c.19-.11.17-.3-.05-.42l-1.48-.85a.81.81,0,0,0-.74,0l-4.45,2.57c-.19.11-.16.3.05.42Z" style="fill:#fff;opacity:0.4"></path><path d="M339.29,345.64,189,432.41l28.44,21.87,150.31-86.77A142.68,142.68,0,0,0,339.29,345.64Z" style="fill:#09AFF4"></path><g style="opacity:0.1"><path d="M220.57,448.05a.5.5,0,0,1-.25-.93l139-80.23a.5.5,0,1,1,.5.86L220.82,448A.45.45,0,0,1,220.57,448.05Z"></path><path d="M216,443.3a.5.5,0,0,1-.43-.25.5.5,0,0,1,.18-.68l139-80.23a.5.5,0,1,1,.5.87l-139,80.22A.43.43,0,0,1,216,443.3Z"></path><path d="M210.81,439.36a.5.5,0,0,1-.43-.25.51.51,0,0,1,.18-.69l139-80.22a.5.5,0,1,1,.5.86l-139,80.23A.52.52,0,0,1,210.81,439.36Z"></path><path d="M205.29,435.48a.5.5,0,0,1-.43-.25.51.51,0,0,1,.18-.69l139-80.22a.5.5,0,1,1,.5.86l-139,80.23A.52.52,0,0,1,205.29,435.48Z"></path><path d="M199.26,431.82a.51.51,0,0,1-.44-.25.5.5,0,0,1,.19-.68l139-80.23a.5.5,0,1,1,.5.86l-139,80.23A.47.47,0,0,1,199.26,431.82Z"></path></g><path d="M189,432.41v5.46l28.43,16.41A142.43,142.43,0,0,0,189,432.41Z" style="fill:#09AFF4"></path><path d="M189,432.41v5.46l28.43,16.41A142.43,142.43,0,0,0,189,432.41Z" style="opacity:0.2"></path></g></g><g id="freepik--Mouse--inject-311"><g id="freepik--mouse--inject-311"><path d="M387.65,355c0,4.56-.76,6.81,5.35,9.75s12.54,5,18.71,9.36,12.61,10.23,25.47,8.23,14-8.88,13.72-11.81C450.9,370.49,416.78,348.81,387.65,355Z" style="fill:#09AFF4"></path><path d="M402.15,340.41a14,14,0,0,0-6.07,2,28.76,28.76,0,0,0-3.75,2.9s-4.56,4.09-4,9.76,6.65,3.48,9.79,3.59,9.49,2.42,9.49,2.42l20.24-15.77-.55-.32-17.73-4.55Z" style="fill:#263238"></path><path d="M418.18,347.27l-5.62-3.17.45-.36a17.56,17.56,0,0,0-4.65-2,28,28,0,0,0-6.21-1.29s2.94-1.19,10.77-.19A40.47,40.47,0,0,1,427.34,345,20.26,20.26,0,0,0,418.18,347.27Z" style="fill:#455a64"></path><path d="M414.79,349a13.74,13.74,0,0,0-5.83-8.29c-1.69-1-3.23-1.07-4.33-.43L402,341.83c-1.11.64-1.8,2-1.8,4a10.72,10.72,0,0,0,.56,3.24Z" style="fill:#09AFF4"></path><path d="M414.79,349a13.74,13.74,0,0,0-5.83-8.29c-1.69-1-3.23-1.07-4.33-.43L402,341.83c-1.11.64-1.8,2-1.8,4a10.72,10.72,0,0,0,.56,3.24Z" style="fill:#fff;opacity:0.30000000000000004"></path><path d="M411.71,349a13.44,13.44,0,0,0-5.37-6.78c-1.69-1-3.22-1.06-4.33-.42s-1.8,2-1.8,4a10.72,10.72,0,0,0,.56,3.24Z" style="fill:#09AFF4"></path><path d="M412.13,344.6l-1.58,1.15a29.24,29.24,0,0,0-9.67-3.3,5.92,5.92,0,0,1,2.37-1.57s-4.33-.73-7.42,1.5-6.17,6.24-6.67,9.9,1.28,5.13,3.88,5,9.5-.23,13.66,1.78a55.86,55.86,0,0,1,10.95-11.33Z" style="fill:#455a64"></path><path d="M427.89,345.28a20.16,20.16,0,0,0-9.78,2.89c-3.11,1.95-7.3,6.22-11.27,11.47a18.87,18.87,0,0,0-4.94-1.54,45.21,45.21,0,0,0-8.59-.31c-2.21,0-4.63-.36-4.58-3.86a12.73,12.73,0,0,1,3.6-8.65c-2.93,2.68-4.68,5.82-4.68,9.68s2,5.14,4.53,5,5.92-1.13,10.86.36,7.82,3.24,10.19,6.69,5.19,9.06,10.23,11.73,11.53,2.47,17.29.67,9.47-5.5,10.09-8.44-3.35-9.78-8.39-15.33A42.31,42.31,0,0,0,427.89,345.28Z" style="fill:#37474f"></path></g></g><g id="freepik--Pencil--inject-311"><g id="freepik--Pen--inject-311"><path d="M80.07,403.48a2,2,0,1,1,2-3.4h0l3,1.74a1,1,0,0,1,.41.9,3.08,3.08,0,0,1-1.39,2.4,1,1,0,0,1-1,.1l-3-1.74Z" style="fill:#455a64"></path><path d="M84,405.12a1,1,0,0,1-1,.1l-3-1.74h0a2,2,0,0,1-1-1.64h0c.1.54,2.19,1.76,3.14,2.31s1.78.61,2.65-.76c.63-1,.22-1.49,0-1.68l.19.11a1,1,0,0,1,.41.9A3.08,3.08,0,0,1,84,405.12Z" style="fill:#37474f"></path><path d="M85.25,410.65a5.53,5.53,0,0,1,5.53-9.57h0a2.73,2.73,0,0,1,1.14,2.53A8.63,8.63,0,0,1,88,410.38a2.74,2.74,0,0,1-2.76.27Z" style="fill:#09AFF4"></path><path d="M156.45,440.94a8.63,8.63,0,0,1-3.91,6.77,2.76,2.76,0,0,1-2.77.27L85.25,410.65a2.73,2.73,0,0,1-1.14-2.53A8.61,8.61,0,0,1,88,401.36a2.75,2.75,0,0,1,2.76-.28l64.53,37.33A2.77,2.77,0,0,1,156.45,440.94Z" style="fill:#455a64"></path><path d="M156.45,440.94a2.77,2.77,0,0,0-1.14-2.53l-.77-.44a3.35,3.35,0,0,0-2.13.52,8.87,8.87,0,0,0-4,7,3.34,3.34,0,0,0,.6,2.08l.77.45a2.76,2.76,0,0,0,2.77-.27A8.63,8.63,0,0,0,156.45,440.94Z" style="fill:#09AFF4"></path><path d="M144.81,436.84,133,430a.73.73,0,0,0-1,.27l-.52.92a.75.75,0,0,0,.27,1L143.57,439a.73.73,0,0,0,1-.27l.52-.92A.74.74,0,0,0,144.81,436.84Z" style="fill:#37474f"></path><polygon points="140.22 436.99 141.38 434.94 141.02 434.75 139.85 436.8 140.22 436.99" style="fill:#263238"></polygon><path d="M155.6,449.6a8.87,8.87,0,0,0,4-7,2.82,2.82,0,0,0-1.18-2.6l-2.62-1.51a2.82,2.82,0,0,0-2.84.28,8.85,8.85,0,0,0-4,7,2.83,2.83,0,0,0,1.17,2.6l2.63,1.51A2.82,2.82,0,0,0,155.6,449.6Z" style="fill:#455a64"></path><path d="M167.46,450.53a1.31,1.31,0,0,0-.07-.51c-1.13-2.7-6.92-8.76-8.92-9.95l0,0a2.82,2.82,0,0,0-2.84.28,8.92,8.92,0,0,0-4,7,2.83,2.83,0,0,0,1.17,2.6h0c1.95,1.13,10.17,3.16,13.1,2.8h0a1,1,0,0,0,.44-.14A2.59,2.59,0,0,0,167.46,450.53Z" style="fill:#09AFF4"></path><path d="M170.66,453.82h0a.68.68,0,0,1-.93.23l-3.38-2a.68.68,0,0,1-.24-.94h0a.69.69,0,0,1,.94-.23l3.38,2A.68.68,0,0,1,170.66,453.82Z"></path></g></g></svg>
