<svg xmlns="http://www.w3.org/2000/svg" width="45" height="45" viewBox="0 0 500 500"><g id="freepik--background-simple--inject-2"><path d="M167.19,71.92S91.42,110.52,53.63,170,18.83,306,64.75,362.8s133.69,49.34,207.18,85.32,154.57,28.57,189.32-47.66S443.6,295.74,434.6,207.52,346.07-9.88,167.19,71.92Z" style="fill:#09AFF4"></path><path d="M167.19,71.92S91.42,110.52,53.63,170,18.83,306,64.75,362.8s133.69,49.34,207.18,85.32,154.57,28.57,189.32-47.66S443.6,295.74,434.6,207.52,346.07-9.88,167.19,71.92Z" style="fill:#fff;opacity:0.7000000000000001"></path></g><g id="freepik--question-mark-1--inject-2"><path d="M272.85,408.29c-.07-.21-.14-.42-.22-.63s-.14-.43-.22-.64-.14-.42-.22-.63-.14-.43-.22-.64-.14-.42-.22-.63-.14-.43-.22-.64l-.22-.63c-.07-.22-.15-.43-.22-.64l-.22-.63c-.07-.22-.15-.43-.22-.64l-.22-.63c-.07-.22-.15-.43-.22-.64L270,400c-.07-.22-.15-.43-.22-.64l-.23-.63c-.07-.22-.14-.43-.22-.64s-.14-.42-.22-.63-.14-.43-.22-.64-.14-.42-.22-.63c-3.26-9.92-13.34-17.2-24.43-17.2-10.75,0-20.1,6.26-24,15.08-.1.2-.19.41-.28.61l-.27.62c-.1.2-.19.4-.28.61s-.19.41-.28.61l-.27.61c-.1.21-.19.41-.28.62s-.19.4-.28.61-.19.4-.28.61l-.27.61c-.1.2-.19.41-.28.61s-.19.41-.28.61l-.27.62c-.1.2-.19.4-.28.61s-.19.41-.28.61l-.27.61c-.1.21-.19.41-.28.62s-.19.4-.28.61l-.27.61c-.1.2-.19.41-.28.61s-.19.41-.28.62A27.21,27.21,0,0,0,212.12,418c0,16.1,13.9,29.26,31.09,29.26,16.82,0,31.45-13.16,31.45-29.26a26.42,26.42,0,0,0-1.59-9C273,408.71,272.93,408.5,272.85,408.29Z" style="fill:#263238"></path><path d="M249.06,186.8c-51.57,0-86.68,30.35-86.68,74.61v4a3.84,3.84,0,0,0,1.9,3.26,4.91,4.91,0,0,0,.7.56,4.38,4.38,0,0,0,.71.56,4.38,4.38,0,0,0,.71.56,4,4,0,0,0,.71.56,4.3,4.3,0,0,0,.7.56,4.43,4.43,0,0,0,.71.57,5,5,0,0,0,.71.56,4.5,4.5,0,0,0,.71.56,4.41,4.41,0,0,0,.7.56,4.65,4.65,0,0,0,.77.6,5.63,5.63,0,0,0,.65.51,5,5,0,0,0,.71.56,4.91,4.91,0,0,0,.7.56,5,5,0,0,0,.71.56,4.5,4.5,0,0,0,.71.56,4.41,4.41,0,0,0,.7.56,4.5,4.5,0,0,0,.71.56,4.41,4.41,0,0,0,.7.56,5,5,0,0,0,.71.56,4.41,4.41,0,0,0,.7.56,5.89,5.89,0,0,0,4.2,1.46l32.16,1.2c3.31,0,5.11-1.5,5.11-4.81v-3.3c0-13.23,10.82-22.54,28-22.54,15.63,0,26.15,8.41,26.15,21.34a23.1,23.1,0,0,1-.42,4.39c-16.14,21.16-58.15,30.49-58.15,71.56v9.88c0,4,2.19,6.21,6.22,6.21H260.4c4,0,6.22-2.19,6.22-6.21v-6.59c0-33.28,65.47-33.65,65.47-94.36C332.09,215.32,299.53,186.8,249.06,186.8Z" style="fill:#263238"></path><path d="M215.41,359.07v-9.88c0-50.84,64.37-53,64.37-89.24,0-15.73-12.8-26-31.82-26-20.85,0-34,11.34-34,27.43v4c0,4-2.2,5.86-6.22,5.86l-39.14-1.47c-3.65,0-6.21-1.83-6.21-4.39v-4c0-44.26,35.11-74.61,86.68-74.61,50.47,0,83,28.52,83,71.32,0,60.71-65.47,61.08-65.47,94.36v6.59c0,4-2.2,6.21-6.22,6.21H221.63C217.6,365.28,215.41,363.09,215.41,359.07ZM212.12,418c0-16.09,14.26-29.26,31.45-29.26,16.46,0,31.09,13.17,31.09,29.26S260,447.21,243.21,447.21C226,447.21,212.12,434.05,212.12,418Z" style="fill:#09AFF4;stroke:#09AFF4;stroke-miterlimit:10"></path><ellipse cx="241.61" cy="467.79" rx="54.61" ry="12.21" style="fill:#263238"></ellipse></g></svg>